<svg xmlns="http://www.w3.org/2000/svg" width="804.598" height="200"><g fill="#fafafa"><path d="M365.793 96.746c25.42-8.46 30.028-29.793 29.977-47.183C395.72 22.978 376.97.02 321.481.02L217.891 0v199.581h103.304c55.837 0 76.373-28.659 76.373-57.369 0-34.769-31.775-45.466-31.775-45.466m-98.738-53.323h69.742l.245.05c7.867 1.39 13.6 8.083 13.6 15.93 0 8.04-6.141 15.611-14.254 16.715l-69.302.112-.031-32.807zm66.38 109.64h-66.38v-33.4h68.005l.153.02c8.46.96 14.876 8 14.876 16.348 0 9.124-7.59 16.909-16.654 17.032M629.517.04h175.04l-.102 43.546H678.16l.123 32.174h113.86v43.78h-113.86v34.81h126.314l-.03 45.65h-175.05M527.704.286h-105.85V199.94h48.603v-80.787l53.538-.051c15.326.235 27.249 12.782 27.249 28.27v52.384l47.57-.02-.08-64.42c0-29.854-28.844-38.681-28.844-38.681s29.487-8.808 29.487-44.098c0-43.187-37.099-52.25-71.673-52.25m26.534 61.936c-.88 6.57-7.439 13.691-15.633 13.691l-68.321.02V43.976h68.342c8.173 0 14.57 5.997 15.612 13.895M186.38 151.694c-.684.01-66.441 1.277-89.144-.93-36.536-3.576-49.491-30.662-49.491-52.751 0-27.576 18.789-47.847 47.887-51.648 13.855-1.818 89.543-.96 90.35-.96l1.584.03.163-45.404h-1.604l-85.68.163c-9.543.583-25.36 1.543-41.564 8.164-15.54 7.131-29.088 18.084-39.193 31.703C6.815 57.39 0 77.977 0 99.556c0 6.804.542 13.537 1.635 20.005 6.16 30.263 26.013 55.325 54.467 68.792 9.604 4.23 24.43 9.287 54.304 10.973l16.102.337 59.72.051h1.583l.163-48.04"/></g></svg>
