<svg xmlns="http://www.w3.org/2000/svg" width="589.213" height="141.371"><defs><clipPath id="a"><path d="M0 656.693h996.693V0H0z"/></clipPath></defs><path d="M0 41.898C0 60.802 14.148 75.61 32.204 75.61c14.939 0 26.11-9.052 29.152-23.617a1.075 1.075 0 0 0-1.055-1.305H45.893c-.422 0-.805.247-.982.631-2.659 5.832-6.579 8.435-12.707 8.435-9.628 0-16.345-7.344-16.345-17.856 0-10.513 6.717-17.859 16.345-17.859 6.128 0 10.048 2.6 12.707 8.436.177.388.56.634.982.634h14.408c.324 0 .635-.15.838-.396.206-.256.285-.59.221-.907C58.336 17.238 47.161 8.185 32.204 8.185 14.148 8.185 0 22.993 0 41.898M65.424 9.253c-.599 0-1.083.486-1.083 1.078v63.134c0 .593.484 1.08 1.083 1.08h13.159c.601 0 1.085-.487 1.085-1.08V46.878c0-6.504 6.588-7.015 8.607-7.015 4.416 0 6.3 1.594 6.3 5.322v28.28c0 .593.484 1.08 1.081 1.08h13.159a1.08 1.08 0 0 0 1.078-1.08V42.517c0-10.43-6.897-17.44-17.173-17.44-5.785 0-9.33 1.804-13.052 5.146V10.331c0-.592-.484-1.078-1.085-1.078zM112.235 50.346c0 13.93 10.936 25.264 24.378 25.264 5.886 0 9.475-2.068 11.54-3.79v1.645c0 .593.486 1.08 1.083 1.08h13.161c.599 0 1.082-.487 1.082-1.08V27.222a1.08 1.08 0 0 0-1.082-1.077h-13.161c-.597 0-1.083.484-1.083 1.077v1.381c-3.388-2.332-7.26-3.526-11.54-3.526-13.442 0-24.378 11.337-24.378 25.27m15.322 0c0-5.78 4.624-10.484 10.3-10.484 5.678 0 10.296 4.704 10.296 10.483 0 5.78-4.618 10.476-10.296 10.476-5.676 0-10.3-4.696-10.3-10.476M194.168 25.077c-5.635 0-9.33 1.562-12.079 5.168v-3.023a1.08 1.08 0 0 0-1.081-1.077h-13.163a1.08 1.08 0 0 0-1.081 1.077v46.243c0 .593.483 1.08 1.081 1.08h13.163c.599 0 1.081-.487 1.081-1.08V51.233c0-7.906 1.208-11.37 12.788-11.37h.888c.6 0 1.086-.48 1.086-1.08V26.161c0-.598-.486-1.084-1.086-1.084zM200.745 9.253c-.598 0-1.077.486-1.077 1.078v12.624c0 .6.479 1.084 1.077 1.084h13.16c.6 0 1.084-.484 1.084-1.084V10.331c0-.592-.484-1.078-1.084-1.078zM200.745 26.145c-.598 0-1.077.484-1.077 1.077v46.243c0 .593.479 1.08 1.077 1.08h13.16c.6 0 1.084-.487 1.084-1.08V27.222a1.08 1.08 0 0 0-1.084-1.077zM225.73 12.097a1.08 1.08 0 0 0-1.08 1.085v12.963h-5.854c-.599 0-1.084.484-1.084 1.077v11.561c0 .6.485 1.08 1.084 1.08h5.855v33.602c0 .593.482 1.08 1.078 1.08h13.158c.6 0 1.082-.487 1.082-1.08V39.863h6.746c.594 0 1.078-.48 1.078-1.08v-11.56a1.08 1.08 0 0 0-1.078-1.078h-6.746V13.182c0-.601-.482-1.085-1.082-1.085zM286.933 26.085c-.425 0-.814.256-.986.644l-10.882 24.277-9.897-24.247a1.077 1.077 0 0 0-.997-.674h-14.763c-.364 0-.701.19-.904.49-.199.31-.232.695-.085 1.024l18.117 41.422-11.903 25.862c-.162.336-.144.727.052 1.044.2.32.55.511.919.511h13.695c.417 0 .794-.241.974-.617l31.862-68.186a1.086 1.086 0 0 0-.06-1.042 1.08 1.08 0 0 0-.919-.508zM303.752 41.898c0 18.904 14.145 33.712 32.199 33.712 14.942 0 26.113-9.052 29.156-23.617a1.09 1.09 0 0 0-.22-.91 1.073 1.073 0 0 0-.838-.396h-14.404c-.425 0-.808.248-.988.632-2.657 5.832-6.572 8.435-12.706 8.435-9.62 0-16.342-7.344-16.342-17.856 0-10.513 6.722-17.859 16.342-17.859 6.134 0 10.049 2.6 12.706 8.436.18.388.563.634.988.634h14.404c.326 0 .635-.15.838-.396.206-.256.286-.59.22-.907-3.024-14.568-14.192-23.621-29.156-23.621-18.054 0-32.199 14.808-32.199 33.713M371.336 9.253c-.595 0-1.08.486-1.08 1.078v63.134c0 .593.485 1.08 1.08 1.08H384.5c.596 0 1.083-.487 1.083-1.08V46.878c0-6.504 6.585-7.015 8.606-7.015 4.412 0 6.3 1.594 6.3 5.322v28.28c0 .593.486 1.08 1.078 1.08h13.164c.597 0 1.08-.487 1.08-1.08V42.517c0-10.43-6.903-17.44-17.174-17.44-5.785 0-9.336 1.804-13.054 5.146V10.331c0-.592-.487-1.078-1.083-1.078zM472.633 9.253c-.596 0-1.08.486-1.08 1.078v12.624c0 .6.484 1.084 1.08 1.084h13.164c.598 0 1.082-.484 1.082-1.084V10.331c0-.592-.484-1.078-1.082-1.078zM472.633 26.145a1.08 1.08 0 0 0-1.08 1.077v46.243c0 .593.484 1.08 1.08 1.08h13.164c.598 0 1.082-.487 1.082-1.08V27.222a1.08 1.08 0 0 0-1.082-1.077zM489.748 50.346c0 14.165 11.253 25.264 25.625 25.264 12.112 0 20.902-7.155 22.935-18.677a1.055 1.055 0 0 0-.239-.88 1.068 1.068 0 0 0-.824-.388h-13.157c-.457 0-.859.281-1.019.708-1.373 3.714-3.948 5.516-7.874 5.516-6.956 0-10.123-5.983-10.123-11.543 0-5.75 3.128-11.547 10.123-11.547 3.926 0 6.501 1.806 7.874 5.52.16.418.562.707 1.019.707h13.157c.312 0 .611-.136.815-.373.207-.244.297-.558.252-.87-1.596-11.012-11.03-18.706-22.939-18.706-14.372 0-25.625 11.098-25.625 25.27M540.61 50.7c0 14.662 10.131 24.91 24.643 24.91 12.627 0 21.883-7.023 23.564-17.899a1.08 1.08 0 0 0-1.07-1.243h.001H574.5c-.508 0-.94.346-1.05.84-.747 3.25-3.8 5.114-8.377 5.114-5.978 0-8.456-4.124-8.873-8.33h31.903c.584 0 1.061-.46 1.082-1.045.315-9.048-2.024-16.428-6.77-21.344-4.251-4.397-10.172-6.626-17.608-6.626-13.795 0-24.198 11.018-24.198 25.624m24.464-13.679c4.266 0 7.026 1.913 8.264 5.66h-16.526c1.236-3.747 4.002-5.66 8.262-5.66M442.935 58.853c-.618.52-7.62 9.512-11.162 13.893a25.113 25.113 0 0 0 11.642 2.864c3.95 0 7.67-.935 11.005-2.557-3.447-4.248-10.78-13.667-11.413-14.2z" fill="#e89d18"/><path d="M418.15 50.346c0 5.761 1.962 11.064 5.225 15.319 3.085-2.019 10.784-7.508 13.824-13.926 0 0-4.36-3.66-4.572-9.177-.203-5.524 4.674-12.639 9.966-12.572.112 0 .228.016.342.023h.072c.113-.007.225-.023.341-.023 5.29-.067 10.17 7.048 9.965 12.572-.21 5.517-4.572 9.177-4.572 9.177 3.264 6.888 11.906 12.718 14.431 14.314 3.437-4.316 5.508-9.768 5.508-15.707 0-13.932-11.33-25.27-25.265-25.27-13.93 0-25.264 11.338-25.264 25.27" fill="#e89d18"/><path d="M443.047 34.826h-.144c-1.015 0-3.839-.279-3.162 2.655.672 2.93 3.124 6.568 3.124 6.568.11.18.21 0 .21 0s2.457-3.639 3.126-6.568c.568-2.466-1.337-2.662-2.556-2.662-.232 0-.438.007-.598.007" fill="#e89d18"/><g clip-path="url(#a)" transform="matrix(1.33333 0 0 -1.33333 -369.892 484.885)"><path d="M345.682 363.664h4.956l2.805-9.614h.044l2.866 9.614h4.803v-15.302h-3.187v11.033h-.044l-3.083-11.033h-2.909l-3.017 11.033h-.04v-11.033h-3.194zM368.851 351.163c1.531 0 2.761 1.27 2.761 2.8 0 1.532-1.23 2.804-2.76 2.804-1.53 0-2.76-1.272-2.76-2.803 0-1.53 1.23-2.801 2.76-2.801m2.76-2.801v1.012c-.388-.432-1.252-1.27-3.065-1.27-3.209 0-5.644 2.693-5.644 5.86 0 3.169 2.435 5.863 5.644 5.863 1.165 0 2.18-.367 3.065-1.12v.86h3.188v-11.205h-3.188M377.126 363.664h3.191v-8.535h.043l3.513 4.439h4.093l-3.901-4.311 4.247-6.895h-3.837l-2.629 4.46-1.529-1.702v-2.758h-3.191z" fill="#c44042"/><path d="M396.069 355.56c-.256 1.207-1.054 1.895-2.35 1.895-1.291 0-2.088-.688-2.345-1.895zm3.148-3.342c-.432-2.779-2.824-4.115-5.454-4.115-3.554 0-5.711 2.52-5.711 5.774 0 3.233 2.24 5.95 5.6 5.95 4.014 0 5.78-2.803 5.65-6.509h-8.014c.02-1.358.816-2.545 2.43-2.545 1.427 0 2.115.69 2.287 1.445h3.212M412.364 351.163c1.53 0 2.759 1.27 2.759 2.8 0 1.532-1.23 2.804-2.76 2.804-1.528 0-2.76-1.272-2.76-2.803 0-1.53 1.232-2.801 2.76-2.801m2.76-2.801v1.012c-.39-.432-1.251-1.27-3.063-1.27-3.21 0-5.646 2.693-5.646 5.86 0 3.169 2.436 5.863 5.646 5.863 1.167 0 2.179-.367 3.063-1.12v.86h3.188v-11.205h-3.188" fill="#c44042"/><path d="M280.258 274.137h3.008l.838-8.508h.038l3.693 8.508h2.495l.818-8.508h.038l3.637 8.508h2.826l-5.95-13.02h-2.715l-.775 8.124h-.034l-3.577-8.123h-2.768zM298.101 274.137h2.715l-.77-4.62c1.046.899 1.84 1.356 3.142 1.356 2.016 0 3.096-1.338 2.757-3.374l-1.064-6.381h-2.715l.974 5.832c.16.97-.368 1.32-1.304 1.32-1.027 0-2.079-.478-2.278-1.67l-.914-5.482h-2.714zM314.098 267.242c-.048 1.028-.63 1.615-1.73 1.615-1.102 0-1.877-.587-2.269-1.615zm2.203-2.842c-.76-2.365-2.988-3.502-5.224-3.502-3.027 0-4.503 2.145-4.042 4.914.46 2.751 2.751 5.061 5.613 5.061 3.412 0 4.52-2.383 3.884-5.538h-6.824c-.175-1.155.335-2.162 1.71-2.162 1.213 0 1.897.587 2.151 1.227zM318.916 270.653h2.715l-.189-1.136c1.046.9 1.84 1.356 3.142 1.356 2.017 0 3.097-1.338 2.758-3.374l-1.064-6.38h-2.716l.974 5.83c.161.971-.367 1.321-1.303 1.321-1.028 0-2.079-.478-2.278-1.67l-.914-5.482h-2.715zM334.924 270.653h2.714l-.198-1.19c1.041.953 1.83 1.41 3.151 1.41 1.212 0 1.897-.404 2.351-1.41.97.97 1.74 1.41 3.061 1.41 2.054 0 3.076-1.138 2.734-3.19l-1.095-6.565h-2.715l.997 5.977c.14.844-.245 1.175-1.07 1.175-.935 0-1.926-.66-2.097-1.687l-.912-5.465h-2.714l1.002 6.013c.117.7-.084 1.14-1.149 1.14-1.192 0-1.872-.772-2.024-1.688l-.91-5.465h-2.716zM356.894 267.242c-.049 1.028-.629 1.615-1.73 1.615-1.1 0-1.877-.587-2.269-1.615zm2.205-2.842c-.762-2.365-2.988-3.502-5.227-3.502-3.026 0-4.502 2.145-4.041 4.914.459 2.751 2.751 5.061 5.613 5.061 3.412 0 4.519-2.383 3.883-5.538h-6.823c-.173-1.155.335-2.162 1.712-2.162 1.209 0 1.893.587 2.147 1.227zM365.033 263.503c1.303 0 2.528 1.08 2.745 2.383.216 1.302-.646 2.385-1.95 2.385-1.303 0-2.53-1.083-2.747-2.385-.216-1.302.648-2.383 1.952-2.383m1.95-2.385l.144.864c-.39-.368-1.245-1.083-2.786-1.083-2.734 0-4.423 2.29-3.974 4.987.451 2.695 2.903 4.987 5.637 4.987.991 0 1.801-.31 2.446-.954l.122.734h2.715l-1.589-9.535zM373.263 270.653h2.715l-.189-1.136c1.05.9 1.84 1.356 3.141 1.356 2.02 0 3.1-1.338 2.76-3.374l-1.065-6.38h-2.715l.973 5.83c.162.971-.367 1.321-1.302 1.321-1.026 0-2.08-.478-2.277-1.67l-.916-5.482h-2.714zM384.755 274.137h2.715l-.435-2.603h-2.715zm-.582-3.483h2.715l-1.59-9.536h-2.714zM388.885 270.653h2.715l-.19-1.136c1.05.9 1.84 1.356 3.142 1.356 2.02 0 3.099-1.338 2.759-3.374l-1.065-6.38h-2.714l.973 5.83c.163.971-.367 1.321-1.302 1.321-1.026 0-2.08-.478-2.278-1.67l-.915-5.482h-2.715zM402.87 263.906c1.192 0 2.422.988 2.64 2.292.215 1.301-.683 2.292-1.876 2.292-1.19 0-2.42-.99-2.638-2.292-.216-1.304.682-2.292 1.873-2.292m-2.5-2.788c.222-.989.98-1.283 1.988-1.283 1.762 0 2.195.623 2.525 2.603-.73-.642-1.73-.916-2.683-.916-2.605 0-4.244 2.054-3.807 4.676.436 2.621 2.76 4.675 5.365 4.675.973 0 1.851-.22 2.501-.843l.104.623h2.604l-1.342-8.05c-.559-3.355-2.019-4.968-5.597-4.968-2.292 0-4.46.97-4.373 3.483zM410.912 268.379h-1.394l.38 2.274h1.393c.425 2.548 1.243 3.484 3.903 3.484h1.192l-.399-2.383h-.898c-.698 0-.936-.22-1.083-1.101h1.798l-.379-2.274h-1.798l-1.21-7.261h-2.715zM424.766 265.115c-.47-2.713-2.594-4.217-5.197-4.217-2.624 0-4.247 1.484-3.791 4.217l.923 5.538h2.714l-.908-5.445c-.198-1.195.23-1.705 1.459-1.705s1.876.457 2.102 1.705l.906 5.445h2.715zM428.228 274.137h2.715l-2.172-13.02h-2.715zM437.493 270.653h2.715l-.2-1.19c1.042.953 1.832 1.41 3.152 1.41 1.213 0 1.897-.404 2.352-1.41.969.97 1.739 1.41 3.06 1.41 2.055 0 3.077-1.138 2.734-3.19l-1.095-6.565h-2.715l.997 5.977c.14.844-.244 1.175-1.07 1.175-.935 0-1.925-.66-2.097-1.687l-.912-5.465H441.7l1.003 6.013c.116.7-.084 1.14-1.15 1.14-1.191 0-1.871-.772-2.023-1.688l-.912-5.465h-2.714zM457.078 263.503c1.303 0 2.528 1.08 2.745 2.383.216 1.302-.647 2.385-1.95 2.385-1.304 0-2.53-1.083-2.747-2.385-.216-1.302.65-2.383 1.952-2.383m1.95-2.385l.145.864c-.39-.368-1.246-1.083-2.786-1.083-2.735 0-4.424 2.29-3.975 4.987.45 2.695 2.903 4.987 5.638 4.987.99 0 1.8-.31 2.445-.954l.123.734h2.714l-1.589-9.535zM465.352 268.27h-1.431l.397 2.384h1.43l.485 2.896h2.715l-.485-2.896h1.615l-.396-2.383h-1.615l-1.193-7.152h-2.715zM471.127 268.27h-1.43l.396 2.384h1.43l.484 2.896h2.715l-.484-2.896h1.615l-.397-2.383h-1.614l-1.194-7.152h-2.714zM482.565 267.242c-.05 1.028-.63 1.615-1.73 1.615-1.101 0-1.877-.587-2.27-1.615zm2.204-2.842c-.761-2.365-2.987-3.502-5.226-3.502-3.026 0-4.502 2.145-4.041 4.914.459 2.751 2.75 5.061 5.613 5.061 3.41 0 4.519-2.383 3.884-5.538h-6.824c-.173-1.155.335-2.162 1.712-2.162 1.208 0 1.894.587 2.147 1.227zM487.42 270.653h2.714l-.222-1.339h.035c.783 1.175 1.635 1.56 2.938 1.56h.33l-.433-2.604h-.183c-2.513 0-2.999-.826-3.289-2.568l-.766-4.584h-2.714zM495.035 264.2c-.098-.808.3-1.284 1.034-1.284.55 0 1.237.384 1.339.99.244 1.466-4.531.77-3.987 4.033.353 2.11 2.214 2.934 4.084 2.934 1.945 0 3.118-.66 3.087-2.715h-2.494c-.007.606-.194.92-.818.92-.457 0-.994-.242-1.083-.773-.27-1.612 4.537-.734 3.953-4.235-.358-2.145-2.418-3.172-4.344-3.172-2.221 0-3.517 1.027-3.376 3.302zM501.774 263.833h2.604l-.452-2.715h-2.604zM506.872 263.833h2.604l-.452-2.715h-2.604zM511.97 263.833h2.605l-.453-2.715h-2.604z" fill="#e89d18"/><path d="M495.888 294.773c-.363-2.053-1.927-3.158-3.885-3.158-2.385 0-4.359 1.847-4.359 4.296 0 2.447 1.974 4.295 4.36 4.295 1.894 0 3.6-1.2 3.884-3.159h-2.337c-.268.727-.79 1.106-1.58 1.106-1.294 0-1.989-1.042-1.989-2.242 0-1.185.71-2.243 1.99-2.243.79 0 1.311.378 1.58 1.105zM497.04 303.018h2.337v-3.98c.774.774 1.39 1.168 2.51 1.168 1.738 0 2.86-1.152 2.86-2.905v-5.496h-2.337v5.023c0 .836-.506 1.136-1.312 1.136-.884 0-1.721-.41-1.721-1.437v-4.722h-2.337zM510.114 293.952c1.074 0 1.958.885 1.958 1.96a1.968 1.968 0 0 1-1.958 1.957 1.968 1.968 0 0 1-1.958-1.958c0-1.074.884-1.959 1.958-1.959m0 6.254a4.3 4.3 0 0 0 4.296-4.295 4.3 4.3 0 0 0-4.296-4.296 4.3 4.3 0 0 0-4.296 4.296 4.3 4.3 0 0 0 4.296 4.295M519.366 293.952c1.074 0 1.958.885 1.958 1.96a1.968 1.968 0 0 1-1.958 1.957 1.968 1.968 0 0 1-1.958-1.958c0-1.074.884-1.959 1.958-1.959m0 6.254a4.3 4.3 0 0 0 4.296-4.295 4.3 4.3 0 0 0-4.296-4.296 4.3 4.3 0 0 0-4.296 4.296 4.3 4.3 0 0 0 4.296 4.295M526.472 294.458c.03-.695.44-1.105 1.073-1.105.474 0 1.01.331 1.01.852 0 1.264-4.01.663-4.01 3.475 0 1.816 1.485 2.526 3.095 2.526 1.674 0 2.779-.568 3.048-2.337h-2.148c-.094.522-.3.79-.837.79-.394 0-.821-.206-.821-.664 0-1.39 4.012-.631 4.012-3.647 0-1.848-1.627-2.733-3.285-2.733-1.911 0-3.175.885-3.38 2.843zM537.398 297.08c-.189.884-.773 1.39-1.722 1.39-.947 0-1.53-.506-1.72-1.39zm2.306-2.448c-.316-2.037-2.069-3.017-3.995-3.017-2.607 0-4.186 1.848-4.186 4.233 0 2.37 1.643 4.358 4.106 4.358 2.938 0 4.233-2.053 4.138-4.769h-5.875c.016-.995.6-1.864 1.784-1.864 1.043 0 1.548.506 1.675 1.06zM545.513 298.059h-1.2v1.958h1.2c0 2.195.569 3 2.858 3h1.028v-2.052h-.775c-.6 0-.773-.19-.773-.948h1.548v-1.958h-1.548v-6.254h-2.338zM550.124 300.017h2.337v-1.152h.031c.506 1.01 1.185 1.34 2.306 1.34h.285v-2.241h-.158c-2.164 0-2.464-.711-2.464-2.211v-3.948h-2.337zM559.364 293.952c1.074 0 1.958.885 1.958 1.96a1.968 1.968 0 0 1-1.958 1.957 1.968 1.968 0 0 1-1.958-1.958c0-1.074.884-1.959 1.958-1.959m0 6.254a4.3 4.3 0 0 0 4.296-4.295 4.3 4.3 0 0 0-4.296-4.296 4.3 4.3 0 0 0-4.296 4.296 4.3 4.3 0 0 0 4.296 4.295M564.826 300.017h2.337v-1.026c.758.82 1.374 1.215 2.511 1.215 1.043 0 1.69-.346 2.227-1.215.695.837 1.295 1.215 2.432 1.215 1.768 0 2.811-.978 2.811-2.747v-5.654h-2.338v5.149c0 .726-.378 1.01-1.089 1.01-.805 0-1.564-.568-1.564-1.453v-4.706h-2.337v5.18c0 .6-.237.979-1.153.979-1.026 0-1.5-.663-1.5-1.453v-4.706h-2.337zM586.822 293.952c1.074 0 1.958.885 1.958 1.96a1.968 1.968 0 0 1-1.958 1.957 1.968 1.968 0 0 1-1.958-1.958c0-1.074.884-1.959 1.958-1.959m0 6.254a4.3 4.3 0 0 0 4.296-4.295 4.3 4.3 0 0 0-4.296-4.296 4.3 4.3 0 0 0-4.296 4.296 4.3 4.3 0 0 0 4.296 4.295M590.99 300.017h2.59l2.036-4.975 2.101 4.975h2.574l-3.775-8.212h-1.832zM606.023 297.08c-.19.884-.773 1.39-1.722 1.39-.947 0-1.531-.506-1.72-1.39zm2.306-2.448c-.316-2.037-2.07-3.017-3.995-3.017-2.607 0-4.186 1.848-4.186 4.233 0 2.37 1.643 4.358 4.106 4.358 2.938 0 4.233-2.053 4.138-4.769h-5.875c.016-.995.6-1.864 1.784-1.864 1.043 0 1.548.506 1.675 1.06zM609.606 300.017h2.337v-1.152h.03c.506 1.01 1.185 1.34 2.307 1.34h.284v-2.241h-.158c-2.164 0-2.464-.711-2.464-2.211v-3.948h-2.337zM621.51 301.122h-1.404v1.896h3.743v-11.213h-2.338zM629.38 301.09c-1.736 0-1.815-2.558-1.815-3.773 0-1.185.158-3.585 1.816-3.585 1.753 0 1.848 2.574 1.848 3.79 0 1.2-.19 3.569-1.848 3.569m.03-9.476c-3.19 0-4.184 2.938-4.184 5.654 0 2.622.979 5.938 4.17 5.938 3.173 0 4.169-3.221 4.169-5.86 0-2.668-.963-5.732-4.154-5.732M638.675 301.09c-1.737 0-1.816-2.558-1.816-3.773 0-1.185.158-3.585 1.816-3.585 1.753 0 1.848 2.574 1.848 3.79 0 1.2-.19 3.569-1.848 3.569m.03-9.476c-3.19 0-4.184 2.938-4.184 5.654 0 2.622.979 5.938 4.17 5.938 3.173 0 4.169-3.221 4.169-5.86 0-2.668-.963-5.732-4.154-5.732M647.719 301.09c-1.737 0-1.816-2.558-1.816-3.773 0-1.185.158-3.585 1.816-3.585 1.753 0 1.848 2.574 1.848 3.79 0 1.2-.19 3.569-1.848 3.569m.03-9.476c-3.19 0-4.184 2.938-4.184 5.654 0 2.622.979 5.938 4.17 5.938 3.173 0 4.169-3.221 4.169-5.86 0-2.668-.963-5.732-4.154-5.732M664.57 294.773c-.363-2.053-1.927-3.158-3.885-3.158-2.385 0-4.359 1.847-4.359 4.296 0 2.447 1.974 4.295 4.36 4.295 1.895 0 3.6-1.2 3.884-3.159h-2.337c-.268.727-.79 1.106-1.579 1.106-1.296 0-1.99-1.042-1.99-2.242 0-1.185.711-2.243 1.99-2.243.79 0 1.311.378 1.58 1.105zM665.72 303.018h2.339v-3.98c.773.774 1.39 1.168 2.51 1.168 1.738 0 2.859-1.152 2.859-2.905v-5.496h-2.337v5.023c0 .836-.506 1.136-1.311 1.136-.884 0-1.721-.41-1.721-1.437v-4.722h-2.338zM678.86 293.857c1.12 0 2.02.932 2.02 2.054 0 1.121-.9 2.052-2.02 2.052-1.123 0-2.022-.93-2.022-2.052 0-1.122.9-2.054 2.021-2.054m2.021-2.053v.742c-.285-.315-.916-.93-2.243-.93-2.352 0-4.137 1.972-4.137 4.295 0 2.321 1.785 4.295 4.137 4.295.853 0 1.596-.268 2.243-.82v.63h2.337v-8.212zM684.843 300.017h2.337v-1.152h.03c.507 1.01 1.186 1.34 2.307 1.34h.285v-2.241h-.158c-2.164 0-2.464-.711-2.464-2.211v-3.948h-2.337zM690.574 300.017h2.337v-8.212h-2.337zm0 3.001h2.337v-2.242h-2.337zM694.9 297.964h-1.232v2.053h1.231v2.496h2.338v-2.496h1.39v-2.053h-1.39v-6.16H694.9zM699.416 300.017h2.337v-8.212h-2.337zm0 3.001h2.337v-2.242h-2.337zM708.765 297.08c-.19.884-.773 1.39-1.722 1.39-.947 0-1.531-.506-1.72-1.39zm2.306-2.448c-.316-2.037-2.07-3.017-3.995-3.017-2.607 0-4.186 1.848-4.186 4.233 0 2.37 1.643 4.358 4.106 4.358 2.938 0 4.233-2.053 4.138-4.769h-5.875c.016-.995.6-1.864 1.784-1.864 1.043 0 1.548.506 1.675 1.06zM713.99 294.458c.031-.695.441-1.105 1.073-1.105.474 0 1.011.331 1.011.852 0 1.264-4.01.663-4.01 3.475 0 1.816 1.484 2.526 3.094 2.526 1.674 0 2.78-.568 3.048-2.337h-2.148c-.094.522-.299.79-.837.79-.394 0-.82-.206-.82-.664 0-1.39 4.011-.631 4.011-3.647 0-1.848-1.627-2.733-3.285-2.733-1.91 0-3.175.885-3.38 2.843z" fill="#c44042"/></g></svg>