<svg xmlns="http://www.w3.org/2000/svg" width="430.456" height="200"><g fill="#fafafa"><path d="M32.635 100.062c0 36.685 29.845 66.53 66.53 66.53h62.143c3.903 0 6.93-3.71 6.93-6.904V37.77c0-7.701 6.266-13.97 13.966-13.97 4.94 0 9.543 2.62 12.01 6.839.31.531 19.124 32.968 39.042 67.313 19.03 32.819 38.712 66.754 39.021 67.287.996 1.699 2.943 2.794 4.963 2.794 3.2 0 5.805-2.603 5.805-5.804V37.77c0-7.701 6.263-13.97 13.966-13.97 4.94 0 9.544 2.62 12.009 6.839.313.531 19.111 32.968 39.016 67.315 19.013 32.811 38.677 66.738 38.994 67.285.996 1.699 2.942 2.794 4.963 2.794 3.2 0 5.8-2.603 5.8-5.804V.87H373.3v96.048s-44.382-76.39-45.82-78.846C321.003 6.997 308.717 0 295.64 0c-20.482 0-37.093 16.617-37.093 37.098V96.92s-44.38-76.39-45.819-78.846C206.25 6.997 193.964 0 180.888 0c-20.483 0-37.093 16.617-37.093 37.098v98.298c.013 3.577-2.676 6.695-6.591 6.702H99.428c-23.215 0-42.035-18.82-42.035-42.036s18.82-42.036 42.035-42.036h31.642V33.532H99.165c-36.685 0-66.53 29.845-66.53 66.53"/><path d="M405.96.87v161.36c0 7.703-6.262 13.97-13.966 13.97-4.94 0-9.543-2.62-12.01-6.837-.31-.531-19.112-32.97-39.013-67.315-19.017-32.81-38.675-66.74-38.997-67.285-.992-1.699-2.943-2.796-4.963-2.796a5.808 5.808 0 0 0-5.801 5.803v124.46c0 7.703-6.266 13.97-13.968 13.97-4.94 0-9.54-2.62-12.01-6.837-.31-.531-19.124-32.969-39.042-67.315-19.033-32.817-38.713-66.753-39.024-67.285-.996-1.699-2.942-2.796-4.963-2.796a5.808 5.808 0 0 0-5.801 5.803v121.92c0 8.026-7.053 15.068-15.092 15.068H99.166c-41.187 0-74.697-33.506-74.697-74.697 0-41.187 33.51-74.695 74.697-74.695h31.903V.87H99.195C44.412.87 0 45.278 0 100.06c0 54.785 44.412 99.195 99.195 99.195h62.739c23.766.013 39.05-13.912 39.018-39.597V103.08s44.698 76.933 45.82 78.848c6.48 11.074 18.765 18.071 31.841 18.071 20.484 0 37.091-16.617 37.091-37.096V103.08s44.382 76.392 45.82 78.848c6.48 11.074 18.765 18.071 31.841 18.071 20.483 0 37.091-16.617 37.091-37.096V.87H405.96z"/></g></svg>
