<svg xmlns="http://www.w3.org/2000/svg" viewBox="0 0 1024 768" height="1024" width="1024pt"><path d="M879.262.005C877.5-.01 875.735.013 874 .008H48c-11.16-.04-22.29 4.09-30.8 11.29C7.15 19.628 1.06 31.958 0 44.928v582.07c1.05 13.5 7.64 26.33 18.37 34.66 8.35 6.63 18.94 10.37 29.61 10.35H629c4 .02 7.98-.08 11.98.1 28.16 44.44 73.73 77.29 124.87 89.75 37.97 9.52 78.54 7.92 115.67-4.43 31.98-10.59 61.14-29.15 84.47-53.44 20.99-21.85 37.15-48.28 46.93-76.96 6.76-19.79 10.35-40.49 11.08-61.37v-10.27c-.42-12.23-1.56-24.23-4.08-36.23-10.65-54.82-44.64-104.33-91.82-134.15-.18-4-.08-8-.1-12v-325c.03-10.2-3.39-20.32-9.48-28.49-7.92-10.85-20.64-18.05-34.01-19.3-1.726-.15-3.485-.2-5.248-.213zM47.96 32.008h832.07c8.56-.15 16.111 7.4 15.971 15.96-.06 6.55.16 13.13-.14 19.68-57.9 41.73-115.8 83.83-173.66 125.66-79.65 57.68-159.29 115.38-238.96 173.03-8.68 6.62-20.61 8.27-30.76 4.29-4.64-1.71-8.47-4.86-12.45-7.7-135.84-98.31-272.04-197.1-407.89-295.28-.3-6.55-.08-13.12-.14-19.67-.15-8.58 7.39-16.11 15.96-15.97zm-15.88 75.02c128.61 93.04 257.131 186.2 385.721 279.26 6.61 4.73 12.53 9.61 20.07 12.88 16.63 7.54 36.4 7.42 52.94-.32 7.25-3.24 12.99-8 19.39-12.56 128.59-93.07 257.12-186.22 385.72-279.26.06 1.99.09 3.99.09 5.98-.06 84.99.07 170.04-.07 255.02-18.72-7.88-38.7-12.85-58.9-14.94-45.56-4.72-92.46 6.17-131.21 30.63-25.03-15.13-49.95-30.49-74.98-45.62-6.7-3.99-15.87-1.9-20.47 4.31-5.57 7.19-3.54 18.2 4.22 22.97 21.15 12.89 42.42 25.88 63.58 38.74-13.83 12.68-26.31 26.69-36.48 42.5-14.93 22.81-25.26 48.58-30.2 75.39-7.41 39.46-2.98 80.92 12.5 117.96-191.95.09-384.06.01-576.03.04-8.57.13-16.11-7.38-15.97-15.96 0-28.99-.01-58.11.01-87.08 93.6-56.99 187.31-114.08 280.87-171.11 8.16-4.72 10.47-15.94 4.73-23.44-4.83-6.62-14.23-8.41-21.17-4.03-86.62 52.76-173.22 105.56-259.83 158.33-1.54.96-3.48 1.86-4.59 3.32-.05-125.63 0-251.39-.02-377.03.04-5.33-.08-10.66.08-15.98zm782.424 276.96c4.158-.028 8.32.097 12.477.38 49.44 2.73 96.65 27.59 127.14 66.55 28.51 35.88 42.07 82.91 36.78 128.45-4.09 39.04-21.96 76.15-49.48 104.06-17.53 17.82-38.86 31.85-62.19 40.85-39.81 15.45-85.09 15.63-125.03.54-26.54-9.96-50.58-26.37-69.46-47.52-18.41-20.52-31.87-45.5-38.92-72.16-10.67-40.29-6.62-84.13 11.67-121.62 10.91-22.63 26.75-42.89 46.06-58.97 30.93-25.737 70.756-40.297 110.953-40.56z" fill="#343a40"/><path d="M817 464.038c4.73.29 8.69 2.71 11.82 6.15 26.12 26.17 52.36 52.37 78.5 78.53 6.43 6.52 6.12 16.84-.51 23.11-26.51 26.47-53.01 53.02-79.52 79.49-4.83 4.81-12.48 6.14-18.54 2.91-5.94-2.92-9.52-9.7-8.61-16.26.47-3.77 2.34-7.15 5.04-9.78 17.44-17.32 34.7-34.84 52.21-52.08-48.76-.24-97.61-.03-146.39-.1-5.02-.13-9.64.69-14.25-1.78-6.53-3.18-10.09-11-8.28-18.03 1.67-7.05 8.25-12.24 15.52-12.18 51.11-.09 102.3.14 153.4-.11-17.51-17.24-34.76-34.76-52.21-52.08-4.55-4.35-6.43-10.96-4.31-16.98 2.23-6.72 9.06-11.31 16.13-10.81zM75.47 544.658c5.82-1.76 12.27.13 16.36 4.58 2.62 3.01 4.18 6.74 4.16 10.76.02 10.68.02 21.37 0 32.05 0 5.88-3.44 11.58-8.74 14.17-4.73 2.5-10.55 2.34-15.16-.35-4.92-2.66-8.13-8.27-8.08-13.85-.04-8.67.01-17.34-.01-26.01.05-3.21-.26-6.7.47-9.82 1.32-5.47 5.61-9.94 11-11.53zM155.49 544.658c4.93-1.44 10.07-.44 14.17 2.61 3.91 2.93 6.36 7.84 6.33 12.73.02 10.68.02 21.37 0 32.05 0 5.88-3.44 11.58-8.74 14.17-4.73 2.5-10.55 2.34-15.16-.35-4.91-2.65-8.1-8.26-8.07-13.82-.05-8.68 0-17.36-.02-26.04.06-3.4-.31-7.24.65-10.51 1.51-5.17 5.67-9.32 10.84-10.84zM236.03 544.518c5.67-1.52 11.86.43 15.81 4.73 2.61 3 4.17 6.74 4.15 10.75.02 10.68.02 21.37 0 32.05 0 5.88-3.44 11.58-8.74 14.18-4.73 2.49-10.55 2.33-15.16-.36-4.91-2.65-8.1-8.26-8.07-13.82-.05-8.68 0-17.36-.02-26.04.06-3.61-.35-7.72.86-11.14 1.7-5.06 6-9.05 11.17-10.35zM316.02 544.518c5.67-1.52 11.87.43 15.82 4.73 2.61 3 4.17 6.74 4.15 10.75.02 10.68.02 21.37 0 32.05 0 5.88-3.44 11.58-8.74 14.17-4.73 2.5-10.55 2.34-15.16-.35-4.91-2.65-8.1-8.26-8.07-13.82-.05-8.68 0-17.36-.02-26.04.06-3.61-.35-7.72.86-11.14 1.69-5.05 5.99-9.05 11.16-10.35zM396.02 544.518c5.67-1.52 11.87.43 15.82 4.73 2.61 3 4.17 6.74 4.15 10.75.02 10.68.02 21.37 0 32.05 0 5.88-3.44 11.58-8.74 14.17-4.73 2.5-10.55 2.34-15.16-.35-4.91-2.65-8.1-8.26-8.07-13.82-.05-8.68 0-17.36-.02-26.04.06-3.61-.35-7.72.86-11.14 1.69-5.05 5.99-9.05 11.16-10.35zM476.03 544.518c5.67-1.52 11.86.43 15.81 4.73 2.61 3 4.17 6.74 4.15 10.75.02 10.68.02 21.37 0 32.05 0 5.88-3.44 11.58-8.74 14.17-4.71 2.5-10.57 2.34-15.16-.35-4.92-2.66-8.1-8.26-8.07-13.82-.05-8.68 0-17.36-.02-26.04.05-3.21-.26-6.7.47-9.83 1.36-5.65 5.93-10.25 11.56-11.66zM556.03 544.518c5.67-1.52 11.86.43 15.81 4.73 2.61 3 4.17 6.74 4.15 10.75.02 10.68.02 21.37 0 32.05 0 5.88-3.44 11.58-8.74 14.18-4.73 2.49-10.55 2.33-15.16-.36-4.91-2.65-8.1-8.26-8.07-13.82-.05-8.68 0-17.36-.02-26.04.06-3.6-.36-7.75.86-11.16 1.7-5.05 6.01-9.03 11.17-10.33z" fill="#343a40"/><g fill="#343a40"><path d="M461.386 225.845c-3.144 2.65-38.809 48.448-56.848 70.766a127.912 127.912 0 0 0 59.297 14.585c20.123 0 39.07-4.761 56.057-13.025-17.557-21.634-54.906-69.608-58.136-72.326z"/><path d="M335.155 182.52c0 29.343 9.99 56.35 26.61 78.02 15.714-10.278 54.925-38.242 70.407-70.923 0 0-22.205-18.642-23.283-46.743-1.037-28.136 23.806-64.372 50.76-64.034.571 0 1.162.08 1.737.117h.366c.58-.033 1.15-.117 1.742-.117 26.942-.338 51.793 35.898 50.756 64.034-1.074 28.1-23.287 46.743-23.287 46.743 16.624 35.082 60.636 64.77 73.5 72.902 17.505-21.985 28.052-49.751 28.052-80 0-70.958-57.709-128.703-128.68-128.703-70.955 0-128.68 57.745-128.68 128.704"/><path d="M461.958 103.47h-.732c-5.168 0-19.552-1.42-16.101 13.524 3.418 14.918 15.908 33.452 15.908 33.452.559.917 1.07 0 1.07 0s12.513-18.534 15.923-33.456c2.896-12.555-6.812-13.552-13.02-13.552-1.179 0-2.232.032-3.048.032"/></g></svg>