<svg xmlns="http://www.w3.org/2000/svg" viewBox="0 0 1024 704.044" height="938.725" width="1024pt"><path d="M48.95 0c-8.38.03-16.67 1.789-23.99 5.969-12.17 6.58-21.05 18.6-23.95 32.11C.73 40.2.65 42.23 0 44.27v615.21c1.23 13.64 7.96 26.33 18.9 34.63 8.29 6.37 18.61 9.821 29.05 9.891 307.68.03 615.37-.011 923.05.018 8.33.17 16.35-.47 24.03-3.98 12.57-5.45 22.54-16.328 26.61-29.438 1.25-3.53 1.34-7.241 2.36-10.811V44.539c-1.13-10.53-5.02-20.46-12.15-28.37-9.06-10.21-22.12-16.17-35.8-16.15-309.03-.03-618.07.01-927.1-.02zm275.6 31.981c1.488.002 2.975.028 4.45.028h640c3.75.07 7.87-.34 11.52.58 6.57 2.07 11.62 8.35 11.48 15.37.01 200.68-.01 401.361 0 602.041-.05 3.42.31 7.23-.6 10.53-1.59 5.11-5.77 9.299-10.88 10.889-2.99.83-6.44.57-9.53.6-216.98-.04-433.97.04-650.95-.05-.09-108.2-.01-216.72-.05-324.96 0-2.92-.19-5.799.41-8.679 3.56-.36 6.71 1.13 10.05 2.26 13.68 4.78 26.12 13.46 35.29 24.68 11.51 13.93 18.19 31.68 18.26 49.79-.18 5.81 2.49 11.39 7.48 14.48 5.33 3.41 12.46 3.25 17.63-.4 4.36-2.91 6.77-7.93 6.89-13.11.29-35.18-17.35-69.62-45.79-90.24-1.15-.8-2.16-1.79-3.23-2.7 2.09-.64 4.16-1.31 6.3-1.78 16.65-4.06 33.1-9.01 49.2-14.89 13.46-5.22 27.51-11.22 39.34-19.59 7.95-5.52 14.55-13.04 20.1-20.91 6.24-9.17 11.12-19.39 13.95-30.12 1.04-5.31 2.6-10.32 2.91-15.74 1.93-20.23-2.17-40.85-12.35-58.49-10.83-19.06-28.23-34.27-48.58-42.44-17.32-7.06-36.83-8.8-55.18-5.34-20.11 3.81-38.89 14.07-52.85 29.05-3.92 4.28-6.69 9.18-9.66 14.11-.34-5.97-.08-11.97-.16-17.94.07-35.56-.14-71.39.1-106.9 1.475-.106 2.962-.13 4.45-.129zm-274.075.007c.854.004 1.7.017 2.525.012 78.29.05 156.68-.05 234.96.05.03 49.29.13 98.66-.05 147.94-11.71-14.82-28.66-24.56-47.04-28.48-15.51-2.65-31.44-1.69-46.13 4.19-18.21 7.06-33.68 21.03-42.68 38.35-7.72 14.62-10.71 31.52-8.7 47.91 2.03 17.83 10.38 34.939 23.02 47.659 7.62 7.7 17.04 12.681 26.72 17.281 15.31 6.88 31.53 11.92 47.73 16.23-1.21 1.42-2.69 2.449-4.22 3.489-21.79 16.4-37.26 40.83-42.45 67.64-1.7 6.83-2.02 13.781-2.18 20.791-.09 4.56 1.43 9.03 4.71 12.26 4.22 4.29 10.78 5.8 16.46 3.84 6.9-2.35 11.1-8.87 10.85-16.09.05-25.57 13.42-50.17 34.43-64.61 8.75-5.92 18.98-10.81 29.48-12.42.2 5.66.04 11.31.09 16.98-.03 105.58.06 211.409-.04 316.959-79.61.1-159.37-.01-239 .06-6.22.19-11.7-2.77-14.87-8.12-2.72-4.42-2.02-8.97-2.09-13.9V47.96c-.13-6.77 4.57-12.989 10.92-15.109 2.355-.817 4.992-.876 7.555-.862zm351.148 112.04c11.139.133 22.167 2.859 31.947 8.431 12.55 7.03 22.83 18.3 28.42 31.58 5.42 12.2 6.44 26.27 4.09 39.32-2.84 13.32-9.61 25.82-19.67 35.05-9.45 8-22.11 12.89-33.48 17.47-28.46 10.44-58.72 17.62-88.4 23.6-1.42.22-2.86.33-4.29.49.81-12.26 2.88-24.47 4.3-36.68 3.55-23.22 7.5-45.8 14.39-68.31 2.96-9.15 5.85-17.8 11.09-25.95 3.01-4.98 7.87-9.06 12.49-12.51 8.31-6.11 17.91-9.769 27.98-11.769a73.295 73.295 0 0 1 11.133-.722zm-177.37 38.011c12.112-.102 24.22 4.153 33.377 12.32 5.07 4.16 7.86 9.68 10.35 15.62 8.13 20.5 11.79 43.77 15.32 65.48.96 8.27 2.31 16.45 2.74 24.78-1.57-.09-3.04-.13-4.58-.55-22.37-4.52-44.74-10.14-66.18-18.02-8.09-3.2-16.85-6.81-23.74-12.19-8.16-6.95-13.48-16.56-15.82-26.96-2.13-10.53-.91-21.579 3.47-31.369 5.66-12.04 16.13-22.001 28.82-26.231 5.23-1.888 10.738-2.834 16.243-2.88z" fill="#343a40"/><path d="M87.89 322.1c5.02 2.8 8.05 8.17 8.09 13.89.03 10.68.04 21.36 0 32.04-.06 5.68-3.07 11.13-8.09 13.87-6.07 3.59-14.27 2.42-19.2-2.59-3.01-2.96-4.61-7.08-4.67-11.29-.06-8.66.01-17.34-.02-26.01 0-5.24-.48-9.88 2.47-14.53 4.43-7.15 14.11-9.63 21.42-5.38zM167.24 321.76c5.73 2.84 8.98 8.89 8.77 15.21-.07 10.66.1 21.34-.08 32-.4 8.33-7.57 15.12-15.91 15.01-8.38.08-15.55-6.63-15.95-15.01-.18-8.65-.01-17.31-.07-25.96.08-5.34-.65-10.02 2.09-14.9 4.08-7.34 13.68-10.28 21.15-6.35zM464 320.02c8.4-.01 15.5 6.62 15.93 15.04.18 8.31.01 16.63.07 24.95-.03 3.27.15 6.59-.15 9.86-.61 5.29-3.83 10-8.61 12.39-5.82 3.02-13.23 2.02-18.03-2.45-3.63-3.25-5.32-7.95-5.22-12.76.06-10.66-.09-21.34.08-32 .42-8.41 7.53-15.03 15.93-15.03zM552.51 322.47c4.99 3.08 7.68 8.71 7.5 14.5-.07 10.66.1 21.34-.08 31.99-.41 8.38-7.56 15.09-15.93 15.04-8.37.05-15.52-6.66-15.94-15.03-.17-8.31 0-16.64-.06-24.96.03-3.27-.15-6.59.15-9.86.56-5.01 3.52-9.6 7.96-12.03 5.05-2.89 11.49-2.79 16.4.35zM623.09 320.06c8.67-.64 16.44 6.32 16.84 15 .18 8.3.02 16.63.07 24.94-.05 3.55.23 7.21-.28 10.72-.86 5.21-4.31 9.73-9.15 11.86-6.56 3.08-14.98.97-19.28-4.88-2.38-3.07-3.35-6.8-3.3-10.65.07-10.66-.09-21.34.08-31.99.4-8.05 6.99-14.59 15.02-15zM717.9 328.12c2.76 4.84 2.01 9.58 2.1 14.9-.03 8.33.04 16.67-.01 25.01-.07 5.43-2.81 10.65-7.48 13.51-5.52 3.55-13.02 3.21-18.2-.82-3.98-2.97-6.25-7.75-6.29-12.7a4882.3 4882.3 0 0 1 0-32.02c.02-6.53 4.01-12.49 10.11-14.86 7.28-2.97 15.98.12 19.77 6.98zM797.53 327.49c2.96 4.64 2.47 9.28 2.47 14.52-.03 8.67.04 17.35-.02 26.01-.05 5.43-2.81 10.66-7.46 13.52-5.74 3.71-13.56 3.11-18.78-1.26-3.94-3.24-5.88-8.18-5.75-13.23.03-10.35-.03-20.71.03-31.06.02-6.49 4.03-12.56 10.15-14.85 6.99-2.83 15.41-.08 19.36 6.35zM877.91 328.12c2.75 4.85 2.01 9.57 2.09 14.89-.06 8.65.11 17.31-.07 25.95-.42 8.7-8.15 15.61-16.84 15-8.04-.42-14.61-6.94-15.02-14.99-.15-10.98-.05-21.99-.05-32.97.03-6.83 4.37-13 10.88-15.13 7.16-2.49 15.34.64 19.01 7.25zM957.9 328.12c2.77 4.84 2.01 9.57 2.1 14.9-.03 8.33.04 16.67-.02 25-.05 5.68-3.08 11.15-8.1 13.89-5.86 3.44-13.71 2.51-18.67-2.1-3.63-3.24-5.32-7.96-5.22-12.76.03-10.35-.03-20.71.03-31.05.02-6.5 4.03-12.57 10.15-14.85 7.27-2.97 15.95.11 19.73 6.97z" fill="#343a40"/><g style="line-height:125%;-inkscape-font-specification:Montserrat" font-weight="700" font-size="102" font-family="Montserrat" letter-spacing="0" word-spacing="0" fill="#343a40"><path d="M391.59 544.128v22.848h-18.665v-22.338l-26.316-49.164h18.666l16.932 30.702 16.524-30.702h18.666l-25.806 48.654zM443.008 511.182q8.976 0 15.81 3.57 6.834 3.468 10.608 9.894 3.774 6.324 3.774 14.688 0 8.466-3.774 14.892-3.774 6.324-10.608 9.894-6.834 3.468-15.81 3.468t-15.81-3.468q-6.834-3.57-10.608-9.894-3.672-6.426-3.672-14.892 0-8.364 3.672-14.688 3.774-6.426 10.608-9.894 6.834-3.57 15.81-3.57zm0 14.688q-5.304 0-8.568 3.774-3.264 3.774-3.264 9.894 0 6.222 3.264 9.996t8.568 3.774q5.406 0 8.67-3.774 3.264-3.774 3.264-9.996 0-6.12-3.366-9.894-3.264-3.774-8.568-3.774zM536.407 511.794v55.182H518.25V558q-5.61 9.588-17.646 9.792-8.976 0-14.382-5.712-5.304-5.814-5.304-15.402v-34.884h18.156v29.682q0 4.692 2.346 7.344 2.448 2.652 6.528 2.652 4.794-.102 7.548-3.468 2.754-3.468 2.754-8.976v-27.234h18.156zM568.441 520.974q2.856-4.794 7.344-7.344 4.59-2.55 10.404-2.55v16.626q-.918-.102-2.754-.102-6.426 0-10.404 3.06-3.978 2.958-4.59 8.16v28.152h-18.156v-55.182h18.156v9.18zM647.628 495.474q11.22 0 19.788 4.488 8.67 4.488 13.464 12.648 4.794 8.058 4.794 18.564t-4.896 18.666q-4.794 8.16-13.668 12.648-8.772 4.488-20.196 4.488h-30.09v-71.502h30.804zm.51 56.406q5.406 0 9.588-2.55 4.182-2.55 6.528-7.242 2.346-4.692 2.346-10.71 0-6.12-2.55-10.812-2.448-4.692-6.834-7.242-4.386-2.652-9.996-2.652h-11.73v41.208h12.648zM719.194 511.182q13.464 0 20.706 7.956 7.242 7.956 7.242 21.828 0 2.142-.102 3.264h-38.352q1.326 4.692 4.59 7.242 3.264 2.448 7.956 2.448 3.57 0 6.834-1.428 3.366-1.428 6.12-4.182l9.486 9.486q-4.284 4.794-10.404 7.344-6.018 2.448-13.668 2.448-8.874 0-15.504-3.468-6.63-3.468-10.2-9.792-3.468-6.324-3.468-14.688 0-8.466 3.57-14.892 3.57-6.528 10.098-9.996 6.528-3.57 15.096-3.57zm10.302 23.358q0-4.794-2.856-7.65-2.754-2.958-7.344-2.958-4.284 0-7.242 2.856-2.856 2.856-3.774 7.752h21.216zM793.299 529.236q-10.71-5.61-17.544-5.61-2.346 0-3.774.918-1.428.816-1.428 2.55 0 1.836 2.244 2.958t7.14 2.448q5.916 1.734 9.792 3.468 3.978 1.632 6.834 5.1 2.856 3.366 2.856 8.874 0 8.364-6.528 13.158-6.426 4.692-16.83 4.692-7.038 0-13.464-1.938-6.426-2.04-11.424-5.916l5.712-11.73q4.692 3.264 9.792 5.1 5.202 1.734 9.792 1.734 2.652 0 4.182-.816 1.632-.918 1.632-2.55 0-2.04-2.346-3.162-2.244-1.122-7.14-2.448-5.814-1.734-9.588-3.366-3.774-1.734-6.63-5.1-2.754-3.366-2.754-8.772 0-8.364 6.324-13.056 6.324-4.794 16.32-4.794 6.018 0 11.832 1.632 5.916 1.632 11.118 4.794l-6.12 11.832zM827.323 511.794v55.182H809.27v-55.182h18.054zm-9.18-25.398q4.182 0 6.834 2.754 2.754 2.652 2.754 6.936 0 4.182-2.754 6.936-2.652 2.754-6.834 2.754-4.182 0-6.936-2.754-2.652-2.754-2.652-6.936 0-4.284 2.652-6.936 2.754-2.754 6.936-2.754zM893.98 511.794v50.286q0 7.65-3.774 13.362-3.774 5.814-10.608 8.874-6.731 3.162-15.605 3.162-6.936 0-13.362-1.938t-11.322-5.202l6.324-12.546q3.774 2.55 8.16 3.978 4.386 1.428 8.874 1.428 6.12 0 9.69-2.856 3.57-2.856 3.57-7.752v-5.916q-5.508 7.242-15.708 7.242-6.834 0-12.24-3.264-5.304-3.366-8.364-9.384-2.958-6.12-2.958-13.974 0-7.752 2.856-13.668 2.958-5.916 8.262-9.18 5.304-3.264 12.036-3.264 5.1 0 9.18 1.938 4.182 1.836 6.936 5.406v-6.732h18.054zm-29.172 38.862q4.998 0 8.058-3.57 3.06-3.57 3.06-9.282 0-5.814-3.06-9.384-3.06-3.57-8.058-3.57-4.998 0-8.16 3.672-3.06 3.57-3.06 9.282t3.06 9.282q3.162 3.57 8.16 3.57zM943.7 511.08q9.077 0 14.483 5.712 5.508 5.712 5.508 15.402v34.782h-18.054v-29.58q0-4.692-2.55-7.344-2.55-2.754-6.834-2.754-4.488.102-7.446 2.958-2.856 2.856-3.366 7.548v29.172h-18.156v-55.182h18.156v8.976q2.958-4.794 7.548-7.242 4.692-2.448 10.71-2.448z" style="-inkscape-font-specification:'Montserrat Bold'"/></g></svg>