<svg xmlns="http://www.w3.org/2000/svg" viewBox="0 0 819.436 823.165" height="1097.553" width="1092.582"><path d="M583.227.002c-.676.049-1.179 1.02-1.411 1.666-7.22 15.8-12.77 31.339-15.59 48.559-1 2.29-1.21 3.96-1.28 6.44-1.56 9.18-1.7 18.64-1.68 28 .25 6.76.13 14.59 2 21 .36 3.33 1.49 6.95 1.88 10.55 1.34 2.78 1.41 5.73 2.64 8.45 10.15 29.93 31.71 54.52 57.94 71.8 4.93 3.62 10.62 6.2 15.73 9.45 7.59 13.9 14.56 29.03 20.31 43.75-.17 1.8-1.88-.199-2.62-.459-13.36-9.12-29.12-16.56-44.52-21.25-7.82-2.6-16.26-5.05-24.49-5.75-3.78-1.35-8.39-1.42-12.45-1.96-2.68.74-.48 4.35-2.14 6.42-2.24 13.74-1.85 27.17-.56 41 .22 1.51.05 3.03.16 4.55 1.35 1.96.45 4.22 1.54 6.45.57 5.72 3.17 12.13 4.32 18 6.58 19.88 16.77 37.91 32.28 52.39 18.9 18.05 44.32 30.27 69.32 36.95 1.86.76 4.02.58 5.83 1.83.43 3.77-.51 7.91-.17 11.83-.87 2.25-.91 4.55-1 7-1.55 7.22-2.06 16.35-3.9 23.94-2.23 10.46-4.8 21.97-8.35 32.06-.46 1.06-.11 3.24-1.87 2.55-3.11-15.82-10.95-31.91-19.69-45.46-7.72-12.26-17.35-22.97-27.94-32.79h-.58c-6.93 6.84-13.9 13.41-19.68 21.28-10.06 12.89-18.76 28.06-24.27 43.42-1.92 5.31-2.98 10.599-4.57 15.959-.71 1.38-.03 3.11-1.27 4.5-.55 9.55-1.5 18.94-.5 28.54 1.2 5.03.41 9.81 2.58 14.46.59 5.57 3.13 11.2 4.66 16.54 5.69 14.64 13.46 28.221 23.18 40.641.68 1.1 2.04 1.74 1.39 3.2-12.49 13.12-25.39 25.059-39.31 36.619-2.52 1.97-6.58 5.881-9.19 7.231-.64-1.7.75-4.04.8-5.69 1.44-4.37.93-8.53 1.96-13 .96-4.36.52-9.46.64-14 .16-6.21-.47-10.99-1.24-17-1.34-15.67-6.03-29.42-11.71-43.87-1.13-1.16-3.46.44-4.72.86-7.31 3.02-14.39 5.619-21.27 9.669-19.17 10.26-36.98 24.39-50.31 41.74-5.51 7.65-11 15.821-14.18 24.641-1.41 2.02-1.26 4.439-2.78 6.419-.43 2.04-1.04 4.16-2 6-.54 4.13-1.88 8.31-2.5 12.54-.96 2.1-.3 4.6-1.5 6.45-.11 8.24-.82 16.25-.08 24.55.28 2.54-.47 4.71.66 7 .4 6.76 2.42 12.34 3.31 19 .95 2.95 1.89 5.54 2.33 8.78-4.69 3.98-10.66 7.55-15.58 11.4-9.9 7.17-21.12 15.66-30.47 23.44-.91.78-1.78.93-2.63.45-15.44-12.64-30.03-23.28-46.3-34.79-.96-.75.18-2.26.17-3.28.94-3.95 2.49-7.35 2.59-11.55 1.17-1.62.56-3.89 1.27-5.5 1.59-4.65 1.08-10.21 1.86-15.09.93-9.94.03-19.03-1.01-28.86-.91-3.89-2.21-10-3.01-14-1.59-5.24-4.32-11.88-6.4-17.04-9.76-20.19-24.99-36.839-43.17-49.919-13.23-9.82-27.71-17.03-43-22.9-1.15-.56-2.06-.56-2.72-.01-2.84 7.88-6.37 15.8-8.02 23.92-3.23 10.86-3.52 18.97-4.84 29.95-.03 7.12-.51 15.08.6 22 .9 4.13.66 8.22 1.91 12 .05 1.67 1.45 3.95.77 5.68-2.2-1.17-5.5-4.121-7.53-5.871-14.21-11.7-27.24-23.679-40-36.969-1.09-.9-1.63-1.971-.44-3.081 11.74-14.86 21.6-32.13 26.73-50.31 1.73-3.55 1.54-6.87 2.82-10.4 1.26-3.39.55-7.72 1.7-11.05 1.05-9.91.16-19.66-.44-29.54-1.43-1.74-.34-3.699-1.78-5.419-3.31-17.58-11.97-34.98-22.04-49.8-7.18-10.99-16.01-20.42-25.47-29.49-.48-.6-1-.63-1.58-.1-5.72 5.88-11.47 11.04-16.5 17.43-12.73 15.6-23.12 33.689-28.87 52.979-.68 2.59-1.63 4.76-1.76 7.49l-1.12.05c-6.05-18.54-10.04-36.23-12.43-55.6-1.25-2.79-.001-6.76-1.53-9.45.24-4.1-.58-8.45-.2-12.39 3.83-2.2 7.48-1.57 11.2-3.7 4.29-.45 8.39-2.67 12.54-3.79 17.59-6.83 34.71-16.13 48.78-28.9 16.97-14.94 28.55-34.36 35.06-55.77 4.17-13.3 5.71-25.16 6.58-39-.14-8.13.45-16.99-.71-24.95-.72-3.5-.74-7.92-1.17-11.59-1.29-.32-2.75.04-4.09 0-2.22 1.2-5.04.48-7.45 1.49-10.99 1.52-20.55 3.931-31 7.741-11.66 3.61-23.33 9.299-33.84 15.569-2.87 1.48-6.35 4.38-8.92 5.44-.3-.63-.2-1.35.3-2.15 1.57-2.98 1.98-6.18 4-9 1.02-3.99 3.51-7.56 4.76-11.55 3.42-7.03 6.78-14.13 10.44-21.05.97-1.65 3.37-2.43 5.01-3.29 18.72-10.47 35.97-24.63 49.1-41.66 10.93-14.19 19.18-30.54 23.15-48 1.26-4.54 1.28-8.52 2.58-13 .87-9.32 1.02-18.65.69-28-.17-1.5.17-3.23-.81-4.45-.16-3.12.31-7.139-1-10.009-.21-8.4-3.19-17.27-4.79-25.54-1.66-4.64-3.41-10.601-5.22-15.441-2.19-5.45-4.57-10.769-6.84-16.219-.42-.72-.88-1.05-1.38-.99-8.63 4.05-16.97 7.77-25.06 12.9-22.22 13.9-42.19 32.77-54.91 55.88-6.15 11.09-10.49 23.52-12.93 35.94-3.05 14.26-2.71 28.91-1.87 43.48 1.4 3.92.15 7.94 2.08 11.89 1.58 11.27 4.94 22.639 8.83 33.319 1.31 2.3-1.13 2.95-1.43 5.24-5.61 10.39-9.91 20.32-14.79 31-.29 1.1-.85 1.29-1.69.55-.46-1.8-.88-3.469-2-5.009-.59-3.74-3.3-6.301-3.92-10.081-1.84-1.92-2.41-4.22-3.79-6.38-8.39-14.61-19.48-27.57-31.96-38.83-12.88-11.75-27.25-21.41-42.79-29.28-1.44-.05-1.85 1.63-2.41 2.65-4.35 8.17-8.3 15.65-11.36 24.38-4.96 15.05-9.9 31.591-9.69 47.541-.41.7-.59 1.52-.54 2.46.05 6.37-.2 12.65.43 19-.51 3.3 1.16 5.27 1.03 8.55 1.39 2.79 1.07 5.36 1.89 8.29 4.89 19.79 14.91 38.15 28.03 53.79 12.82 15.25 28.48 28.3 45.51 38.59 1.14 1.73.18 4.77.21 6.78-.39 12.32-.32 24.7.31 37-1.19 2.73-2.62-.97-3.98-1.43-21.31-19.31-47.98-30.36-75.43-37.15-7.13-.57-12.67-2.45-20-2.84-2.63.66-.63 3.9-1.79 5.47-.98 3.88-.99 8.1-1.79 11.95-.05 9.06-.55 20.19 1.16 29 .27 7.31 1.76 14.92 3.69 21.95 4.34 18.74 13.41 37.04 26.01 51.77 20.01 22.99 47.78 37.34 76.72 45.36 5.09 1.57 9.95 2.209 15 3.529 4.58.56 7.38.84 11.94 1.71 1.35.63 3.31-.1 4.71.98 4.18 7.66 8.78 15.35 13.59 22.61.55 1.12 1.63 1.191 1.3 2.631-1.77.24-2.55-.091-4-1.081-6.31-.68-11.29-2.009-18.09-1.919-1.87-.9-4.41-.4-6.45-.54-7.21-.31-14.35.409-21.54.459-2.28 1.46-5.41.461-7.92 2.081-7.46.51-18.19 3.94-25.54 5.81-12.49 4.19-24.29 9.48-35.88 15.89-1.29 1.31.63 3.25 1.2 4.53 10.85 21.24 26.41 39.959 45.01 54.889 6.32 4.86 13.58 9.71 20.67 13.35 3.61 2.38 7.74 3.241 11.46 5.531 6.83 2.09 13.33 4.8 20.47 5.8 14.72 2.81 29.29 3.42 44.07 1.08 7.72-.17 14.96-2.67 22.54-3.88 3.73-1.62 7.74-1.8 11.42-3.72 6.67-1.84 15.21-5.3 21.6-8.28 1.08-.46 2.5-1.97 3.64-.81 9.24 7.87 18.9 15.33 28.34 22.81-10.22.14-19.43-.46-29.54 1.69-2.2.11-3.92 1.45-6 1.46-19.94 4.54-39.04 14.74-55.63 26.69-6.69 5.02-12.48 9.66-18.38 15.62-2.11 2.61-6.08 4.98-7.31 8 .68 1.55 2.4 2.54 3.49 3.83 15.32 15.69 34.52 28.15 54.83 36.2 3.82.96 6.62 2.949 10.55 3.429 6.35 2.59 11.83 3.2 18.54 4.17 8.86 1.1 18.01 1.02 26.91.34 3.08-.95 6.73-.69 10-1.37 26.72-5.44 52.48-19.509 72.89-37.709 1.21-.66 2.29-2.89 3.69-2.46 11.04 8.02 24.24 17.679 34.8 26.179 1.29 1.36 4.19 2.57 4.68 4.39-3.26 4.26-8.2 8.12-11.6 12.46-9.87 10.61-18 22-25.19 34.54-2.14 4.27-4.44 8.4-5.95 13.06-1.11 4.43.47 8.821 3.64 11.981 4.56 4.45 12.68 4.659 17.36.269 2.38-2.06 3.8-5.43 4.94-8.31 8.99-17.14 21.1-31.38 35.16-44.58.9-.82 1.71-2.35 3.12-1.96 13.06 12.19 25.6 25.92 34.39 41.54 2.85 3.93 4.06 10.07 7.75 13.32 4.29 4.04 11.74 4.22 16.32.58 3.55-2.61 5.5-7.57 4.91-11.9-.92-3.44-2.51-6.79-4.16-9.95-9.77-19.18-23.14-35.35-38.47-50.32-1.26-1.49 1.83-2.97 2.72-3.85 11.73-9.39 23.76-18.29 35.92-27.08 1.08-.94 1.86-.23 2.62.66 20.5 18.7 46.19 33.23 73.41 38.82 3.43 1.13 7.71.61 11.05 1.7 7.97.64 16.04.65 24 0 3.34-1.07 7.61-.58 11.05-1.7 3.55-1.3 6.85-1.12 10.4-2.82 4.17-.56 7.4-2.77 11.55-3.74 21.22-8.77 42.03-22.45 57.32-39.72-.76-2.59-4.21-4.329-5.76-6.559-18.54-18.41-41.74-33.17-66.56-41.35-3.11-.52-5.81-1.97-9-2.4-1.5.05-2.5-.7-3.94-1-10.69-2.64-20.7-2.03-31.6-2.15 3.21-3.09 8.31-6.12 11.8-9.26 5.77-4.48 11.41-9.28 17.08-13.91 1.27-.23 1.95.65 3.09 1.17 14.52 6.77 29.87 11.68 45.57 14.55 3.71 1.22 8.42.96 12.04 1.65 17.34 2.46 36.21.769 52.96-4.031 12.65-3.94 23.81-9.48 34.77-16.99 21.11-14.87 38.78-35.179 50.88-57.979.68-1.95 2.55-3.69 2.69-5.74-.45-1.23-2.25-1.64-3.29-2.26-12.74-6.96-27.07-12.95-41.05-16.65-5.55-1.53-11.77-3.17-17.54-3.55-6.31-2.18-13.48-1.411-19.46-2.531-6.31-.01-12.71-.26-19 .37-5.05-.4-9.82 1.98-15 2.39-1.72.27-2.8 1.15-4.64.85-.34-1.31 1.29-2.37 1.86-3.49 4.15-6.46 7.87-12.39 11.64-19.13.39-1.12.97-2.57 2.14-3.09 1.71-.47 3.33-.11 5-.83 4.5-1.17 8.85-.65 13-2.02 8.83-1.61 16.01-3.46 24.44-6.6 17.1-5.58 34.24-14.43 48.43-25.69 12.34-9.76 22.81-21.79 30.42-35.59 2.73-5.63 5.8-11.359 7.94-17.139 2.44-6.57 4.54-15.11 6.34-22.04 2.88-17.84 4.36-33.74 2.03-51.88-.61-1.72-.07-3.22-1.14-4.58-.32-1.65.79-4.42-1.46-4.96-4.05.54-8.67.61-12.45 1.96-7.14.51-15.24 2.849-22.11 4.919-22.51 6.96-43.8 17.58-61.44 33.51-1.13.55-1.59 2.26-2.96 1.91l-.46-.88c.66-14.26.83-28.76.01-43 1.04-1.78 3.74-2.619 5.41-3.859 23.54-15.25 44.24-35.67 57.6-60.5 5.29-10.5 10.19-21.95 11.82-33.64 2.37-6.39 1.37-12.77 2.57-19-.14-4.91.35-10.11-.28-14.95-.61-4.38-.49-10.66-1.45-15.1-.73-3.19-1.52-6.67-1.69-9.95-1.6-4.43-2.65-9.92-4.27-14-3.32-12.32-8.86-23.15-14.93-34.32-1.19-1.56-2.11-.08-3.37.34-24.64 12.64-47.05 31.029-63.7 53.239-7.67 10.47-14.98 22.89-18.76 35.29-1.52 1.53-2.23-1.57-2.6-2.55-4.69-10.72-9.4-20.76-14.94-31-1.43-.91-.66-3.83.26-4.95 2.08-6.01 3.98-11.299 5.2-17.609 1.86-5.31 2.27-11.08 3.76-16.4 1.52-13.27 2.57-24.44 1.44-37.97-.49-3.38-.77-7.58-1.08-11.07-1.41-5.45-2.4-11.051-4.12-16.441-7.8-27.2-26.18-50.45-48.28-67.8-12.61-10.13-26.15-17.669-40.91-24.119-.26-.235-.504-.322-.73-.306zM222.083 37.52c1.826.137 1.362 2.797 1.944 4.147 1.86 4.84 2.24 9.46 4.23 14-.07 1.98.249 4.03.709 5.95 2.53 16.9 2.59 33.5-2.18 50.05-1.46 6.55-4.37 11.94-6.92 18.04-9.13 17.32-22.79 31.49-39.18 42.14-1.88.86-4.55 3.73-6.58 3.4-.65-2.42-1.78-4.681-1.88-7.121-1.85-2.66-1.6-6.39-2.62-9.46-1.45-3.83-.7-7.87-2.46-11.45-.89-11.11-1.07-21.999 0-33.109.76-1.27.33-2.62 1.08-3.89.74-7.31 3.81-14.711 6.25-21.591 4.47-9.4 9.54-17.93 16.48-25.75 8.78-10.19 19.26-18.39 30.73-25.35.143-.015.275-.016.397-.007zm375.265.01c.788.03 1.43.88 2.338 1.287 23.37 14.3 42.31 35.639 49.46 62.409 1.94 4.11 1.29 8.32 2.83 12.39 1.6 11.39.99 22.18.25 33.6-1.74 3.5-.95 6.85-2.21 10.52-1.25 5.95-2.98 11.68-4.76 17.51-2.03.32-4.69-2.54-6.57-3.4-14.46-9.37-27.48-22.1-36.25-37-7.37-12.5-11.93-26.63-13.16-41.18-1.41-11.33-.19-19.9.83-31 .7-2.46 1.07-4.94 1.04-7.54 1.32-1.56 1.26-4.15 2.08-5.91.63-3.88 2.28-7.18 2.92-11.1.456-.443.845-.6 1.202-.585zM60.913 178.88c.402-.027.764.119 1.082.438 12.65 8.67 24.361 19.16 33.441 31.57 7.41 9.94 12.88 20.92 16.49 32.73 2.33 9.48 3.96 20.2 3.59 30.05-.07 6.91-1.54 13.16-2.25 20-2.06 6.84-3.39 12.65-6.12 19.45-.52 1.31-.31 3.12-2.31 2.28-18.99-13.11-35.29-29.571-44.93-50.771-2.53-5.07-4.51-10.94-5.68-16.51-1.77-3.77-1.25-7.57-2.42-11.45-.68-6.66-.62-13.32-.47-20 .94-13.13 3.96-25.34 8.81-37.55.27-.142.525-.22.767-.237zm697.537 0c.243.017.503.095.777.238 2.2 5.87 4.309 11.38 5.589 17.55 3.55 13.06 3.92 26.53 2.75 40-1.18 5.24-2.17 12.4-4.18 17.95-7.78 23.99-25.11 43.86-45.48 58.34-1.24.75-3.4 3.23-4.89 2.44-3.23-9.12-6.99-19.04-7.75-28.73-2-9.83-1.8-20.99-.26-30.93 1.13-7.28 2.41-12.88 5.08-19.74 9.12-23.81 26.45-42.4 47.27-56.68.325-.32.688-.465 1.094-.438zm-154.939 72.906c.294-.026.666.037 1.116.19 6.95 1.8 14.409 4.29 21.059 6.95 18.92 8.08 35.9 19.982 47.37 37.392 8.47 12.19 13.36 25.79 15.67 40.35 1.1 2.56.17 6.02 1.5 8.45-.07 4.7.28 9.55.08 14.2-1.53.86-3.99-.58-5.58-.92-17.27-4.58-33.9-12.45-47.67-24.1-9.47-8.08-17.31-17.88-22.99-28.94-8.3-15.74-11.64-35.02-11.38-52.69.062-.544.336-.838.825-.882zm-387.075.172c.95 8.55-.77 19.599-2.29 28.119-2.95 14.57-9.02 28.121-18.15 39.881-14.72 19.15-36.45 31.4-59.31 37.9-2.28.12-5.45 2.45-7.62 1.46-.35-6.77.63-13.86 1.04-20.65 1.61-7.03 2.8-14.81 5.66-22 .35-2.53 2.43-4.54 2.89-7 4.38-9.17 9.99-17.65 16.91-25.05 12.23-12.96 27.6-21.93 44.12-28 4.94-1.45 11.81-4.44 16.75-4.66zM27.511 379.786c.294-.026.666.037 1.116.19 22.26 5.78 43.108 15.692 59.168 32.632 10.39 11.13 17.88 24.47 22.15 39.01 1.68 6.01 1.93 9.61 3.32 15.05.4 6.79 1.39 13.87 1.03 20.65l-1.609.25c-16.34-4.34-31.11-10.091-44.96-20.091-10.79-7.67-20.06-17.569-26.79-28.969-10.45-17.11-14.51-37.99-14.25-57.84.062-.544.336-.838.825-.882zm764.925.172c.85 6.99-.34 15.76-1.36 22.71-2.55 17.91-10.06 34.8-21.75 48.65-14.91 17.38-34.93 28.32-56.64 34.54-2.28.12-5.46 2.45-7.62 1.46-.35-6.96.67-14.23 1.08-21.2 1.43-4.21 1.35-8.591 3.08-12.891 1.19-6.02 3.49-11.369 6.12-16.819 9.5-20.26 26.35-35.98 46.34-45.77 1.06-.19 1.97-.63 2.73-1.32 5.75-2.89 11.2-4.66 17.27-6.71 3.11-.85 7.63-2.73 10.75-2.65zm-600.3 46.169h.09c14.39 17.28 24.86 38.89 25.46 61.54-.22 2.68.5 5.98-.54 8.45-.04 3.48-.16 7.2-1.13 10.55-2.49 14.15-8.86 27.4-17.05 39.21-1.95 2.6-3.84 5.91-6.28 8.01-1.28-.07-1.84-1.63-2.73-2.45-5.73-7.25-11-14.15-14.56-22.77-2.78-5.65-4.94-11.92-6.52-18-2.93-10.47-2.56-21.72-1.73-32.55 1.32-3.76 1.3-7.549 2.79-11.409 2.5-10.51 8.14-20.77 13.99-29.89 2.58-3.57 5.07-7.641 8.21-10.691zm435.1 0c.78.52 1.41 1.221 1.91 2.081 11.23 14.27 19.71 30.48 22.56 48.46 3.02 17.67.17 35.97-7.74 52-4.01 9.76-10.3 17.34-16.74 25.55-1.71-.53-2.67-2.981-3.88-4.241-9.23-12.3-17.07-27.18-19.81-42.31-.49-2.62-1.74-4.53-1.43-7-.14-5.03-1.11-11.15.16-16-.3-11.98 4.43-24.29 9.26-35.04 4.62-8.18 9.42-16.51 15.71-23.5zm-341.12 135.755c.312.038.604.181.88.426 19.08 10.38 35.93 24.56 46.03 44.1 2.4 5.14 4.83 9.98 6.27 15.55 4.33 14.67 4.24 29.799 1.7 44.769-.71 2.94-1.28 5.461-1.77 8.481-1.46.31-2.21-.94-3.54-1.44-4.87-2.83-9.46-5.62-14-8.97-16.95-12.19-30.93-29.37-36.46-49.69-2.14-7.43-3.65-13.58-3.55-21.44.13-3.84-.49-8.38.58-12-.2-3.91.67-7.67.89-11.55 1.34-2.67 1.16-5.251 1.97-8.041.355-.17.687-.234 1-.195zm247.21.03c.328-.047.643-.004.93.176.71 2.82.93 5.79 1.97 9.01 2.04 10.32 1.63 21.06 1.03 31.57-1.43 5.12-1.82 9.84-3.83 14.95-4.42 14.17-12.98 26.809-23.63 37.109-8.11 7.69-16.97 13.97-26.74 19.34-1.03.58-1.65 1.401-2.91 1.141-.53-2.86-1.08-6.231-2-8.981-.52-6.31-1.61-11.24-1.52-17.56-.3-15.67 3.24-30.49 10.74-44.19 9.83-17.87 25.47-31.26 43.1-41.11.787-.382 1.879-1.317 2.86-1.456zm-410.367 5.54c5.047-.063 10.077.131 14.727.856 6.85.74 13.17 2.499 19.65 4.769 20.12 7.31 36.8 21.41 49.37 38.59.65 1.41 2.93 2.94 2.56 4.57-8.3 3.36-17.88 6.49-26.64 8.13-10.88 2.6-21.75 2.79-32.94 2.22-7.45-.36-15.86-2.54-23-4.86-22.54-7.41-41.49-24.01-54.54-43.6 2.38-1.66 4.95-2.14 7.54-3.21 3.37-.81 6.02-2.359 9.54-2.709 3.42-1.78 7.62-1.351 10.92-3.081 2.58-.13 5.55-.16 7.99-1 4.715-.295 9.777-.613 14.823-.675zm572.254.01c5.19-.004 10.38.268 15.473.635 2.74.69 5.69.98 8.54 1.03 4.39 1.94 10.38 2.21 15.02 4 4.23 1.71 9.11 2.54 12.98 5-15.33 23.04-38.12 41.02-65.54 46.6-9.4 2.55-20.24 2.18-30 1.9-3.72-.64-7 .22-10.44-1.5-10.43-1.5-21.38-4.92-31.13-8.9-.12-.68.01-1.21.39-1.6 14.51-20.85 34.43-37.31 59.18-44 8.219-2.381 16.875-3.156 25.527-3.164zM256.095 682.528c5.18.017 10.407.415 15.132.6 3.65 1.7 8 1.56 11.78 3.12 11.71 3.22 22.79 9.36 32.72 16.29.93 1.14 4.29 2.221 3.78 3.921-11.38 9.25-23.74 16.68-37.53 21.59-4.21 2.05-9.46 2.31-13.75 4.16-1.59.18-3.631.08-4.991 1-8.57.38-17.1.949-25.6-.281-16.95-2.75-32.43-9.729-46.26-19.919-.92-.69-3.22-1.91-3.35-3.04 9.44-7.85 20.35-14.62 31.61-19.55 6.85-2.8 14.2-5.4 21.6-6.21 4.545-1.335 9.68-1.699 14.86-1.681zm307.444.017c5.286.011 10.532.403 15.147 1.703 4.31.17 7.75 1.881 11.86 2.761 14.82 4.78 28.79 13.07 40.8 22.96-.67 1.75-4.12 3.41-5.66 4.73-17.8 12.29-38.16 19.94-60 18.97-4.73-1.05-9.94-.29-15-1.92-3.58-.27-6.53-1.751-10-2.421-14.87-5.1-28.59-12.819-40.81-22.869-.52-1.7 2.83-2.79 3.77-3.92 10.87-7.59 23.03-14.14 35.98-17.19 2.54-1.05 5.96-.731 8.52-2.221 4.78-.225 10.107-.594 15.393-.583z" fill="#343a40"/><g fill="#343a40"><path d="M406.13 406.015c-3.23 2.723-39.878 49.783-58.414 72.716a131.436 131.436 0 0 0 60.931 14.987c20.677 0 40.147-4.893 57.6-13.384-18.04-22.23-56.418-71.526-59.736-74.319z"/><path d="M276.422 361.497c0 30.151 10.264 57.902 27.342 80.17 16.148-10.562 56.439-39.296 72.347-72.877 0 0-22.817-19.156-23.924-48.031-1.066-28.912 24.462-66.146 52.159-65.799.586 0 1.194.083 1.785.12h.376c.595-.033 1.181-.12 1.789-.12 27.684-.347 53.22 36.887 52.154 65.799-1.103 28.875-23.928 48.03-23.928 48.03 17.082 36.049 62.307 66.555 75.525 74.91 17.987-22.59 28.825-51.121 28.825-82.202 0-72.914-59.299-132.25-132.225-132.25-72.91 0-132.225 59.336-132.225 132.25"/><path d="M406.717 280.27h-.752c-5.31 0-20.09-1.46-16.544 13.895 3.512 15.33 16.346 34.375 16.346 34.375.574.942 1.1 0 1.1 0s12.858-19.045 16.362-34.379c2.975-12.9-7-13.925-13.38-13.925-1.21 0-2.293.033-3.132.033"/></g></svg>