<svg xmlns="http://www.w3.org/2000/svg" height="200" width="1102.815"><g fill-rule="evenodd" fill="#fafafa"><path d="M400.147 72.418c0-1.816 1.235-2.786 2.787-2.786 2.624 0 6.587 2.786 8.822 8.36-.801 0-2.007.242-2.816.242-4.779 0-8.793-2.272-8.793-5.816zm-289.13 0c0-1.816 1.184-2.786 2.801-2.786 2.559 0 6.36 2.786 8.566 8.36-7.382 0-11.367-1.596-11.367-5.574zm55.766-28.798c0-29.813 5.808-34.393 7.61-34.393 3.205 0 3.587 2 3.587 13.432 0 11.749-5.006 27.122-11.197 35.562zm203 29.394c-3.441 4.794-6.227 11.602-6.227 20.373 0 16.8 9.58 32.834 28.195 32.834 17.998 0 30.607-14.219 30.607-34.047 0-5.757-.22-6.551-.596-8.94 4.184-1.824 7.794-4.61 10.602-6.838 2.39-1.801 4.176-2.809 5.602-2.809 1.794 0 2.581 1.405 2.581 4v39.231c0 6.389 2.022 9.403 7 9.403 4.587 0 7.815-3.22 9.601-7.014 6.617-13.8 16.197-32.195 20.38-39.18 1.007-1.602 1.824-2.83 2.397-2.83.801 0 1.213.61 1.213 3.199v31.231c0 8.786 4.014 14.594 12.778 14.594 9.22 0 13.793-8.83 21.85-22.424.383-.816.552-1.397.552-1.977 0-1.802-1.559-2.824-3.169-2.824-1.816 0-2.816 1.816-8.8 8.397-1.213 1.25-2.39 2.984-4.61 2.984-.794 0-1.404-.963-1.404-2.183v-35.01c0-9.404-4.206-13.198-9.602-13.198-4.39 0-8.007 1.801-11.8 7.404-6.801 10.02-13.8 24.232-17.587 31.393-.426.838-1 2.03-1.39 2.03-.418 0-.595-.618-.595-2.03v-25.6c0-7.381-2-13.197-9.815-13.197-8.205 0-12.395 5.61-18.395 9.8-3.8 2.831-7.19 4.809-9.778 6.007-4.022-10.197-11.41-15.366-17.608-15.211-6.22.213-10.617 4.036-10.617 10.44 0 6.565 4.022 11.138 9.396 13.175 2.985 1.198 5.794 1.426 9.815 1.426 1.206 0 2.397 0 3.169-.228.426 1.992.235 4.83.235 7.021 0 9.815-5.8 19.586-16.586 19.586-11.227 0-17.8-10.8-17.8-23.188 0-9.411 2.787-17.197 7.352-22.579 1.846-2.014 3.22-3.235 3.22-5.08 0-.934-1.374-1.169-2.587-1.169-7.617 0-15.991 3.411-21.777 6.396-7.64 4.007-16.616 10.632-24.027 17.226-3.595-8.02-7.992-15.02-10.205-20.438-.794-2.199-1.375-4.75-2.977-4.75-1.42 0-2.037 1.397-3.015 4.154-3.588 10.61-22.799 41.635-26.997 45.833-.397.574-.978 1.206-1.169 1.206-.434 0-.661-.199-.661-1.419v-35.01c0-9.404-3.794-13.198-8.955-13.198-4.419 0-8.205 1.801-11.8 7.404-6.588 10.02-14.624 24.622-18.41 31.805-.61 1.235-1.213 1.617-1.42 1.617-.198 0-.36-.794-.36-2.029v-25.6c0-9.403-3.815-13.197-9.02-13.197-4.412 0-8.588 1.64-12.007 7.404-8.381 14.219-22.372 36.018-24.975 39.59-.404.618-.809 1.023-1.206 1.214-.397 0-.624-.39-.624-1.382V73.183c0-9.403-3.794-13.197-8.963-13.197-7.212 0-11.19 6.632-13.814 10.808-3.618 5.8-8.396 13.616-12.183 20.828-2.61 4.823-4.823 9.19-5.632 9.19-.382 0-.382-1.816-.382-5.205V68.816c12.58-14.028 20.388-31.21 20.388-50.01 0-10.822-4.78-16.792-12.16-16.792-13.83 0-24.403 21.608-24.403 47.186V70c-6.41 4.007-12.417 5.962-19.828 7.41-3.787-11.175-11.8-16.983-18.175-16.828-6.183.213-10.601 4.036-10.601 10.44 0 10.587 10.403 14.983 19.578 14.983h2.603c.39 2.015.39 4.22.39 6.411 0 9.815-5.794 19.586-16.565 19.586-11.19 0-17.807-10.8-17.807-23.188 0-9.411 2.772-17.197 7.375-22.579 1.816-2.014 3.227-3.815 3.227-5.08 0-.934-1.411-1.169-2.625-1.169-7.594 0-24.372 10.242-44.384 30.24-1.772-16.006-3.787-31.622-3.787-46.826 0-16.991 3.36-31.423 4.162-35.585.404-2.58.654-4.205.654-5.381C54.825.824 53.972 0 51.818 0 35.599 0 0 25.813 0 64.412c0 27.372 10.021 40.584 27.387 57.582-10.543 17.005-18.998 37.194-18.998 55.2C8.389 190.17 11.418 200 20.99 200c20.006 0 34.99-41.576 34.99-72.396 0-9.19-.368-18.403-1.155-27.586 7.374-7.844 18.777-18.41 21.556-19.41-1.19 4.206-1.992 8.617-1.992 12.779 0 16.8 9.616 32.834 28.195 32.834 17.425 0 30.6-14.219 30.6-34.047 0-2.559-.206-4.787-.382-7.176 6.366-1.198 12.226-2.838 17.806-6.183v40.194c0 5.176 3.574 7.212 6.978 7.212 4.624 0 7.02-3.22 10.388-10.58 2.83-6.028 10.403-19.813 14.998-28.04 3.625-6.419 5.625-10.587 7.235-10.587.375 0 .801.977.801 3.382v34.209c0 9.205 4.801 11.616 8.955 11.616 4 0 6.617-2.198 9.22-5.808 10.41-14.814 21.424-32.393 25.791-40.017.809-1.368 1.801-2.405 2.61-2.405.78 0 1.184.434 1.184 3v35.827c0 6.389 2 9.403 7.021 9.403 4.573 0 7.565-3.22 9.352-7.014 6.646-13.8 16.417-32.01 20.637-39.18.978-1.602 1.985-3.013 2.581-3.013.83 0 1.015.977 1.015 3.595v33.996c0 9.205 4.8 11.616 9.028 11.616 5.55 0 9.19-4.021 12.785-8.602 6.558-8.638 16.168-23.975 21.976-33.82 2.014 3.213 4.19 7.022 6.021 11.213-4.808 5.8-9.616 12.38-9.616 19.372 0 7.411 5.198 11.837 10.601 11.837 9.183 0 17.572-8.83 17.572-21.005 0-4.786-1.375-9.8-3.161-14.586 8.153-8.021 17.968-15.822 25.203-17.616zM40.378 116.612c1.617 10.587 3.022 21.012 3.022 29.195 0 19.167-6.382 41.577-17.388 41.393-4.25 0-7.823-4.25-8-11.61-.404-23.974 10.992-44.384 22.366-58.978zm291.975-13.63c1.213 3.44 1.823 6.22 1.823 9.02 0 3.206-1.205 6.411-3.418 6.411-1.574 0-3.176-1.8-3.176-4.61 0-3.006 2.588-7.807 4.771-10.822zM47.598 7.601c0 1.22-2.801 6.8-6.39 16.814-3.8 10.382-7.425 25.167-7.425 42.974 0 10.601 2.625 24.622 4.838 38.811l-6.404 8.632C22.005 102.4 15.616 88.424 15.616 64.412c0-33.989 20.593-57.567 31.173-57.567.632 0 .809.176.809.757zM986.659 72.418c0-1.816 1.169-2.786 2.786-2.786 2.581 0 6.588 2.786 8.779 8.36-.78 0-1.978.242-2.816.242-4.757 0-8.75-2.272-8.75-5.816zm-289.189 0c0-1.816 1.22-2.786 2.801-2.786 2.603 0 6.44 2.786 8.595 8.36-7.396 0-11.396-1.596-11.396-5.574zm55.803-28.798c0-29.813 5.771-34.393 7.595-34.393 3.19 0 3.595 2 3.595 13.432 0 11.749-5.014 27.122-11.19 35.562zm-126.369 72.992c1.552 10.587 3.007 21.012 3.007 29.195 0 19.167-6.389 41.577-17.417 41.393-4.19 0-7.793-4.25-7.992-11.61-.411-23.974 11.007-44.384 22.402-58.978zm291.968-13.63c1.213 3.44 1.787 6.22 1.787 9.02 0 3.206-1.199 6.411-3.397 6.411-1.58 0-3.227-1.8-3.227-4.61 0-3.006 2.624-7.807 4.837-10.822zM634.065 7.601c0 1.22-2.771 6.8-6.396 16.814-3.772 10.382-7.396 25.167-7.396 42.974 0 10.601 2.669 24.622 4.852 38.811l-6.418 8.632C608.524 102.4 602.09 88.424 602.09 64.412c0-33.989 20.637-57.567 31.217-57.567.58 0 .757.176.757.757zm-33.341 99.996c3.573 4.801 7.984 9.396 13.182 14.396-10.61 17.005-18.998 37.194-18.998 55.2 0 12.976 3.022 22.806 12.624 22.806 19.975 0 34.959-41.576 34.959-72.396 0-9.19-.39-18.403-1.191-27.586 7.41-7.844 18.77-18.41 21.608-19.41-1.206 4.206-2.037 8.617-2.037 12.779 0 16.8 9.61 32.834 28.225 32.834 17.38 0 30.578-14.219 30.578-34.047 0-2.559-.184-4.787-.405-7.176 6.411-1.198 12.249-2.838 17.814-6.183v40.194c0 5.176 3.58 7.212 6.956 7.212 4.66 0 7.058-3.22 10.44-10.58 2.786-6.028 10.403-19.813 15.013-28.04 3.587-6.419 5.587-10.587 7.227-10.587.375 0 .75.977.75 3.382v34.209c0 9.205 4.786 11.616 8.991 11.616 4.015 0 6.588-2.198 9.242-5.808 10.366-14.814 21.38-32.393 25.77-40.017.8-1.368 1.815-2.405 2.587-2.405.78 0 1.22.434 1.22 3v35.827c0 6.389 1.978 9.403 6.97 9.403 4.603 0 7.603-3.22 9.419-7.014 6.602-13.8 16.395-32.01 20.578-39.18 1.022-1.602 2.015-3.013 2.64-3.013.779 0 1 .977 1 3.595v33.996c0 9.205 4.756 11.616 8.947 11.616 5.64 0 9.242-4.021 12.815-8.602 6.595-8.638 16.219-23.975 22.012-33.82 1.978 3.213 4.205 7.022 6.021 11.213-4.852 5.8-9.601 12.38-9.601 19.372 0 7.411 5.139 11.837 10.58 11.837 9.182 0 17.57-8.83 17.57-21.005 0-4.786-1.389-9.8-3.19-14.586 8.19-8.021 17.998-15.822 25.196-17.616-3.397 4.794-6.198 11.602-6.198 20.373 0 16.8 9.61 32.834 28.21 32.834 17.998 0 30.563-14.219 30.563-34.047 0-5.757-.184-6.551-.559-8.94 4.154-1.824 7.779-4.61 10.61-6.838 2.345-1.801 4.183-2.809 5.557-2.809 1.809 0 2.655 1.405 2.655 4v39.231c0 6.389 1.97 9.403 6.97 9.403 4.58 0 7.8-3.22 9.609-7.014 6.558-13.8 16.174-32.195 20.358-39.18 1-1.602 1.816-2.83 2.418-2.83.816 0 1.206.61 1.206 3.199v31.231c0 8.786 3.963 14.594 12.786 14.594 9.227 0 13.814-8.83 21.828-22.424.375-.816.566-1.397.566-1.977 0-1.802-1.603-2.824-3.19-2.824-1.787 0-2.81 1.816-8.794 8.397-1.183 1.25-2.404 2.984-4.595 2.984-.823 0-1.39-.963-1.39-2.183v-35.01c0-9.404-4.249-13.198-9.645-13.198-4.375 0-7.955 1.801-11.771 7.404-6.816 10.02-13.793 24.232-17.564 31.393-.434.838-1.015 2.03-1.441 2.03-.427 0-.581-.618-.581-2.03v-25.6c0-7.381-2-13.197-9.8-13.197-8.22 0-12.396 5.61-18.388 9.8-3.838 2.831-7.213 4.809-9.837 6.007-3.963-10.197-11.389-15.366-17.557-15.211-6.235.213-10.595 4.036-10.595 10.44 0 6.565 4 11.138 9.352 13.175 3.007 1.198 5.808 1.426 9.86 1.426 1.168 0 2.33 0 3.183-.228.39 1.992.184 4.83.184 7.021 0 9.815-5.816 19.586-16.623 19.586-11.19 0-17.763-10.8-17.763-23.188 0-9.411 2.78-17.197 7.36-22.579 1.823-2.014 3.235-3.235 3.235-5.08 0-.934-1.412-1.169-2.61-1.169-7.566 0-15.991 3.411-21.792 6.396-7.61 4.007-16.609 10.632-23.983 17.226-3.61-8.02-7.985-15.02-10.212-20.439-.824-2.198-1.368-4.749-3.03-4.749-1.382 0-1.992 1.397-2.977 4.154-3.61 10.61-22.792 41.635-26.99 45.833-.404.574-1 1.206-1.213 1.206-.375 0-.595-.199-.595-1.42v-35.01c0-9.403-3.772-13.197-9.021-13.197-4.404 0-8.147 1.801-11.786 7.404-6.61 10.02-14.586 24.622-18.388 31.805-.588 1.235-1.176 1.617-1.367 1.617-.228 0-.434-.794-.434-2.029v-25.6c0-9.403-3.771-13.197-8.977-13.197-4.411 0-8.639 1.64-12.006 7.404-8.425 14.219-22.402 36.018-25.02 39.59-.352.618-.778 1.023-1.205 1.214-.353 0-.588-.39-.588-1.382V73.183c0-9.403-3.786-13.197-9.006-13.197-7.22 0-11.19 6.632-13.808 10.808-3.595 5.8-8.366 13.616-12.182 20.828-2.58 4.823-4.786 9.19-5.588 9.19-.404 0-.404-1.816-.404-5.205V68.816c12.616-14.028 20.387-31.21 20.387-50.01 0-10.822-4.786-16.792-12.212-16.792-13.778 0-24.365 21.608-24.365 47.186V70c-6.418 4.007-12.417 5.962-19.828 7.41-3.772-11.175-11.778-16.983-18.138-16.828-6.242.213-10.624 4.036-10.624 10.44 0 10.587 10.367 14.983 19.586 14.983h2.618c.367 2.015.367 4.22.367 6.411 0 9.815-5.779 19.586-16.586 19.586-11.205 0-17.77-10.8-17.77-23.188 0-9.411 2.793-17.197 7.36-22.579 1.793-2.014 3.205-3.815 3.205-5.08 0-.934-1.412-1.169-2.596-1.169-7.61 0-24.394 10.242-44.414 30.24-1.757-16.006-3.779-31.622-3.779-46.826 0-16.991 3.397-31.423 4.198-35.585.397-2.58.618-4.205.618-5.381 0-1.61-.816-2.434-2.978-2.434-16.204 0-51.803 25.813-51.803 64.412 0 15.778 3.397 27.004 9.396 36.79-2.235-.39-3.992-.39-5.632-.39-6.374 0-12.395 1.588-16.13 2.405v-4.022c0-8.565-2.03-20.38-5.64-24.387-.426-.412-1.021-.588-1.58-.588-1.647 0-3.617.772-5.808 1.985-2.426 1.206-4.823 2.419-4.823 3.198 0 .382 0 .787.603 1.78 1.411 2.05 5.22 6.013 6.595 15.439-6.816-6.808-14.58-9.83-24.74-9.83-12.021 0-15.638 5.382-15.638 10.815 0 10.396 13.8 15.594 31.224 15.594 3.191 0 6.779-.603 10.36-1.42 0 3.206.404 6.044.404 8.426 0 3.404.58 6.014 2.808 6.014 3.39 0 5.404-6.83 5.786-16.608 6.198-1.61 12.61-2.992 18.028-2.992 2.588 0 5.823.36 8.992.977zm-39.393-2c-3.367.398-5.419.398-8.985.398-7.822 0-13.586-3.015-13.586-7.375 0-2.793 1.382-4.418 5.382-4.418 6.41 0 11.58 4.418 17.189 11.396z"/></g></svg>
