<svg xmlns="http://www.w3.org/2000/svg" version="1" width="406.376" height="200"><defs><clipPath id="a"><path d="M173.79 64.47h35.95v17.693h-35.95V64.47z"/></clipPath><clipPath id="b"><path d="M173.79 64.47h35.95v17.693h-35.95V64.47z"/></clipPath></defs><g fill="#fafafa"><path d="M375.63 138.676c-5.087-2.656-5.878-10.162-5.765-28.418l.113-27.977-9.722-.011 2.261-5.178h7.46V63.844l17.86-6.624v19.432l8.253.01-2.148 5.743-6.104-.011v48.415c.339 3.9 1.695 6.194 3.504 7.867H375.63M111.118 183.055c-.566-1.57-1.696-2.577-3.392-2.577-2.373 0-3.278 1.22-3.278 2.905 0 4.013 9.043 3.278 9.043 10.083 0 3.798-3.278 6.534-7.912 6.534-1.583 0-3.391-.384-4.748-1.277.34-1.255.678-2.499.904-3.776h.566c.339 2.046 2.034 3.267 4.069 3.267 1.809 0 3.504-1.04 3.504-3.086 0-4.759-8.93-3.03-8.93-10.196 0-3.414 2.374-6.24 6.895-6.24 2.148 0 4.07.803 4.635 1.424-.339.95-.565 1.933-.904 2.94h-.452M199.627 19.047c1.357 3.741 4.522 7.607 2.261 11.948-1.017 4.409-5.2 7.98-9.608 8.693-4.635.418-8.93-.362-12.434-3.154-2.374-12.728 2.826-24.507 12.886-31.527l6.895 14.04"/><g transform="matrix(11.30393 0 0 -11.30393 -1964.51 928.765)" clip-path="url(#a)" stroke-width=".051"><path d="M193.02 77.047c-.2-.681-2.21-.234-2.84.884.83-.092 1.76.642 1.78 1.479l1.06-2.363"/></g><g transform="matrix(11.30393 0 0 -11.30393 -1964.51 928.765)" clip-path="url(#b)" stroke-width=".051"><path d="M193.85 77.135c.09.041.27.133.32.33l-2.16 4.698c-.15.018-.25.031-.44-.1l2.28-4.928"/></g><path d="M237.722 45.306c10.4-15.77 1.695-41.644-20.8-45.272l20.8 45.272M0 164.766h392.698v-3.007H0v3.007zM127.056 189.024c0-1.153-1.017-2.08-2.148-2.08-1.13 0-2.034.927-2.034 2.08s.904 2.08 2.034 2.08 2.148-.927 2.148-2.08M235.46 79.251c3.279-2.758 9.044-2.814 12.774-1.05 1.583.79 3.052 1.842 4.07 3.22l-7.235 11.214c-.904-.723-1.582-1.051-2.713-1.639-3.617-1.548-7.347-.644-9.495 1.311v32.725c-.113 5.664.904 10.83 3.843 13.509h-16.39c-3.505-2.623-4.296-6.817-4.635-10.49l-.113-43.52c.113-3.527-.791-5.076-2.148-7.054l16.956.068c1.357.983 1.47 2.69 2.148 4.001l2.939-2.295M256.147 90.013c-.113-4.137.791-9.089-1.922-12.66h15.713c1.13.79 1.695 2.102 2.035 3.345.904 1.108.79 2.69 1.13 4.002l.226 46.369c.565 2.758 1.696 5.539 3.73 7.709l-16.843.034c-5.538-5.336-3.73-14.107-4.182-23.162l.113-25.637M281.129 90.465c1.695-4.714 7.008-7.076 10.851-9.642 5.879-2.16 12.435-7.54 18.991-3.143 5.539 3.606 10.4 7.676 13.904 13.248.791 2.16 1.243 4.59 1.809 6.884 0 3.086.678 5.381.565 8.467a68.627 68.627 0 0 1 0 9.642c-.226 5.573-2.826 10.558-7.235 14.424-6.556 5.844-14.808 12.468-23.738 7.936-8.026-3.742-17.408-11.146-16.843-21.32-.339-7.212-.678-13.44.34-20.46.338-2.034.225-4.261 1.356-6.036zm16.39 32.793c.792 2.893 2.261 6.432 5.765 6.827 2.035.068 3.505-1.639 4.748-3.086 3.617-7.212 3.052-15.08 3.052-23.286-1.13-6.093.34-14.424-6.217-18.165-2.374-.848-4.07.723-5.539 2.17-2.6 3.866-2.826 8.297-3.052 13.214-.791 7.868.113 14.39 1.243 22.326"/><path d="M338.892 138.676c-5.087-2.656-5.878-10.162-5.765-28.418l.113-27.977-9.608-.011 2.147-5.178h7.46V63.844l17.974-6.624v19.432l8.139.01-2.148 5.743-5.991-.011v48.415c.34 3.9 1.696 6.194 3.504 7.867h-15.825M175.21 84.53c-.112-3.526-.79-5.075-2.147-7.053l16.956.068c1.356.983 1.47 2.69 2.148 4.001l2.939-2.295c3.278-2.758 9.043-2.814 12.773-1.05 1.583.79 3.052 1.842 4.07 3.22l-7.235 11.214c-.904-.723-1.582-1.051-2.713-1.639-3.617-1.548-7.347-.644-9.495 1.311v32.725c-.113 5.664.904 10.83 3.843 13.509h-16.39c-3.392-2.623-4.409-6.523-4.635-10.49l-.113-43.52M46.685 101.746l-6.104 12.706c-4.295 7.494-10.173 16.684-19.217 18.968-3.504 1.22-6.669.113-10.06-.125L.339 151.212c.904.882 2.035 1.617 3.165 2.046 19.217 7.348 27.017-.554 45.894-43.407l17.973 38.174h23.852l-11.304-25.762 6.443-13.316 17.634 38.49 22.834.147-40.016-87.81L68.39 68.92l14.469 32.77-6.33 12.875-26.452-57.062-19.33 9.88 15.94 34.363M120.048 117.233c.452-6.364 3.956-12.333 9.834-15.543 5.878-3.618 12.66-5.053 18.765-8.207 1.017-.848 2.26-1.899 2.374-3.278.113-1.707-.792-3.018-2.261-3.606-9.27-1.967-16.843 3.798-23.512 9.507.79-4.194 1.469-8.784 3.504-12.717.904-1.052 1.582-2.498 2.826-3.278 6.556-3.222 14.695-4.138 21.93-3.618 5.99.396 11.53 4.658 13.564 10.106 1.017 2.555.904 5.449 1.13 8.071l.114 35.55c0 3.075 1.469 5.97 3.278 8.456h-16.956c-2.035-1.831-3.052-4.137-3.617-7.02-4.748 4.206-14.696 10.434-20.574 6.297-6.104-2.747-11.756-12.005-10.4-20.72zm30.068-12.367c-.113-2.464-1.808-2.724-3.052-2.724-4.07.588-7.574 3.99-9.608 7.483-1.696 3.109-2.148 5.731-2.261 8.455 0 2.94-.226 5.121 1.017 7.348.679 1.447 2.035 2.103 3.505 2.487 2.6.531 4.973-.192 7.008-1.571 4.86-2.69 3.956-8.071 4.07-12.853l-.679-8.625M281.694 189.024c0-1.153-1.017-2.08-2.148-2.08-1.13 0-2.035.927-2.035 2.08s.905 2.08 2.035 2.08c1.13 0 2.148-.927 2.148-2.08M139.377 179.223h6.33c1.357 0 3.618-.056 4.861.6 1.696.892 2.487 2.226 2.487 4.25 0 2.916-1.808 4.759-4.634 5.347 1.695 2.848 3.504 5.584 5.312 8.353l1.13 1.843c-.903-.068-1.808-.147-2.712-.147-.904 0-1.696.079-2.6.147l-3.617-6.24c-.452-.803-1.244-2.17-1.922-3.3h-.226v9.54c-.678-.068-1.47-.147-2.148-.147-.791 0-1.47.079-2.26.147v-20.393zm4.409 9.575c3.165.294 4.748-1.187 4.748-4.25 0-.419-.113-.86-.226-1.493-.453-2.464-2.713-2.226-4.522-2.226v7.969M170.69 179.223c-.114.419-.227.87-.227 1.278 0 .418.113.87.226 1.277-1.921-.237-3.843-.475-6.895-.407v6.387h3.052c1.356 0 2.6-.124 3.73-.271-.113.418-.226.859-.226 1.277 0 .418.113.87.226 1.277a28.697 28.697 0 0 0-3.73-.26h-3.052v7.54c3.052-.023 4.974-.17 6.895-.407-.113.407-.226.86-.226 1.277 0 .407.113.86.226 1.278h-11.417v-20.246h11.417M185.158 183.055c-.678-1.57-1.808-2.577-3.504-2.577-2.26 0-3.278 1.22-3.278 2.905 0 4.013 9.043 3.278 9.043 10.083 0 3.798-3.165 6.534-7.8 6.534-1.695 0-3.39-.384-4.747-1.277.339-1.255.678-2.499.791-3.776h.565c.452 2.046 2.035 3.267 4.07 3.267 1.921 0 3.504-1.04 3.504-3.086 0-4.759-8.817-3.03-8.817-10.196 0-3.414 2.26-6.24 6.895-6.24 2.035 0 3.957.803 4.635 1.424-.34.95-.678 1.933-.904 2.94h-.453M202.114 200c-6.556 0-10.965-3.866-10.965-10.614 0-5.912 4.296-10.694 11.757-10.694 8.477 0 10.964 5.969 10.964 10.58 0 5.8-4.408 10.728-11.756 10.728zm-5.99-9.744c0 3.855 1.695 7.958 6.216 7.958 4.522 0 6.557-4.578 6.557-9.507 0-3.832-1.809-8.229-6.218-8.229-4.069 0-6.556 3.12-6.556 9.778M218.844 179.223h6.33c1.357 0 3.504-.056 4.748.6 1.696.892 2.6 2.226 2.6 4.25 0 2.916-1.922 4.759-4.635 5.347 1.696 2.848 3.504 5.584 5.313 8.353l1.13 1.843c-.904-.068-1.808-.147-2.712-.147-.905 0-1.81.079-2.713.147l-3.505-6.24c-.452-.803-1.243-2.17-1.921-3.3h-.226v9.54c-.792-.068-1.47-.147-2.261-.147-.678 0-1.47.079-2.148.147v-20.393zm4.409 9.575c3.165.294 4.634-1.187 4.634-4.25 0-.419 0-.86-.113-1.493-.452-2.464-2.713-2.226-4.521-2.226v7.969M246.99 199.616c-.677-.068-1.469-.147-2.26-.147-.678 0-1.47.079-2.148.147v-18.279c-2.147 0-3.956.204-5.539.418 0-.418.113-.836.113-1.277 0-.418-.113-.836-.113-1.255h15.26c0 .419-.112.837-.112 1.255 0 .441.113.86.113 1.277-1.696-.214-3.505-.418-5.313-.418v18.279M266.208 183.055c-.566-1.57-1.696-2.577-3.392-2.577-2.373 0-3.278 1.22-3.278 2.905 0 4.013 9.043 3.278 9.043 10.083 0 3.798-3.278 6.534-7.912 6.534-1.583 0-3.392-.384-4.748-1.277.34-1.255.678-2.499.904-3.776h.565c.34 2.046 2.035 3.267 4.07 3.267 1.808 0 3.391-1.04 3.391-3.086 0-4.759-8.817-3.03-8.817-10.196 0-3.414 2.374-6.24 6.895-6.24 2.148 0 4.07.803 4.635 1.424-.34.95-.565 1.933-.904 2.94h-.452M302.72 183.055c-.679-1.57-1.81-2.577-3.505-2.577-2.26 0-3.278 1.22-3.278 2.905 0 4.013 9.043 3.278 9.043 10.083 0 3.798-3.165 6.534-7.8 6.534-1.695 0-3.39-.384-4.747-1.277.339-1.255.565-2.499.79-3.776h.566c.452 2.046 2.035 3.267 4.07 3.267 1.921 0 3.504-1.04 3.504-3.086 0-4.759-8.817-3.03-8.817-10.196 0-3.414 2.373-6.24 6.782-6.24 2.148 0 4.07.803 4.748 1.424-.34.95-.679 1.933-.905 2.94h-.452M310.293 179.223c.791.068 1.47.159 2.26.159.792 0 1.47-.09 2.261-.159v8.444c0 1.64-.113 4.07.226 5.618.227 1.459.453 2.374 1.47 3.414 1.017.893 2.148 1.278 3.504 1.278 2.713 0 4.183-1.006 5.2-3.595.565-1.311.565-4.691.565-6.15v-9.009c.34.068.791.09 1.13.09.453 0 .905-.022 1.244-.09v10.58c-.113 3.392 0 6.478-3.165 8.626-1.583 1.153-3.617 1.571-5.652 1.571-3.504 0-7.46-1.13-8.478-4.996-.34-1.153-.565-2.465-.565-3.652v-12.129M335.161 179.223c.792.068 1.583.159 2.261.159.792 0 1.47-.09 2.261-.159v20.393c-.791-.068-1.47-.147-2.26-.147-.679 0-1.47.079-2.262.147v-20.393M354.717 199.616c-.791-.068-1.582-.147-2.26-.147-.792 0-1.47.079-2.261.147v-18.279c-2.035 0-3.957.204-5.54.418.114-.418.227-.836.227-1.277 0-.418-.113-.836-.226-1.255h15.373c-.113.419-.226.837-.226 1.255 0 .441.113.86.226 1.277-1.808-.214-3.504-.418-5.313-.418v18.279M375.969 179.223c-.113.419-.113.87-.113 1.278 0 .418 0 .87.113 1.277-1.809-.237-3.844-.475-6.896-.407v6.387h3.052c1.357 0 2.6-.124 3.73-.271-.112.418-.112.859-.112 1.277 0 .418 0 .87.113 1.277a28.696 28.696 0 0 0-3.73-.26h-3.053v7.54c3.052-.023 5.087-.17 6.896-.407-.113.407-.113.86-.113 1.277 0 .407 0 .86.113 1.278h-11.304v-20.246h11.304M390.438 183.055c-.565-1.57-1.696-2.577-3.391-2.577-2.374 0-3.279 1.22-3.279 2.905 0 4.013 9.044 3.278 9.044 10.083 0 3.798-3.279 6.534-7.913 6.534-1.583 0-3.391-.384-4.748-1.277.34-1.255.678-2.499.791-3.776h.566c.452 2.046 2.034 3.267 4.182 3.267 1.809 0 3.391-1.04 3.391-3.086 0-4.759-8.817-3.03-8.817-10.196 0-3.414 2.374-6.24 6.896-6.24 2.147 0 4.069.803 4.634 1.424-.339.95-.565 1.933-.904 2.94h-.452M.565 179.223c.791.068 1.47.159 2.261.159.678 0 1.47-.09 2.26-.159v8.06c1.47.057 3.053.147 4.522.147 1.47 0 3.052-.09 4.522-.147v-8.06c.791.068 1.47.159 2.26.159.679 0 1.47-.09 2.261-.159v20.393c-.79-.068-1.582-.147-2.26-.147-.792 0-1.47.079-2.261.147v-9.96c-1.47-.056-3.052-.146-4.522-.146-1.47 0-3.052.09-4.521.147v9.959c-.791-.068-1.583-.147-2.261-.147-.791 0-1.47.079-2.26.147v-20.393M34.93 200c-6.557 0-11.079-3.866-11.079-10.614 0-5.912 4.409-10.694 11.756-10.694 8.478 0 10.965 5.969 10.965 10.58 0 5.8-4.408 10.728-11.643 10.728zm-6.105-9.744c0 3.855 1.809 7.958 6.217 7.958 4.522 0 6.67-4.578 6.67-9.507 0-3.832-1.81-8.229-6.33-8.229-4.07 0-6.557 3.12-6.557 9.778M57.65 199.616c-.678-.068-1.47-.147-2.148-.147-.791 0-1.47.079-2.26.147v-18.279c-2.148 0-3.957.204-5.54.418.114-.418.114-.836.114-1.277 0-.418 0-.836-.113-1.255h15.26c0 .419-.113.837-.113 1.255 0 .441.113.86.113 1.277-1.696-.214-3.504-.418-5.313-.418v18.279M78.788 179.223c0 .419-.113.87-.113 1.278 0 .418.113.87.113 1.277-1.808-.237-3.843-.475-6.895-.407v6.387h3.165c1.357 0 2.487-.124 3.617-.271-.113.418-.113.859-.113 1.277 0 .418 0 .87.113 1.277-1.13-.147-2.26-.26-3.617-.26h-3.165v7.54c3.052-.023 5.087-.17 6.895-.407 0 .407-.113.86-.113 1.277 0 .407.113.86.113 1.278H67.484v-20.246h11.304M88.962 197.321c2.6 0 4.748-.204 6.782-.407-.113.407-.226.86-.226 1.277 0 .407.113.86.226 1.278H84.44v-20.246c.792.068 1.47.159 2.261.159.791 0 1.47-.09 2.26-.159v18.098M393.49 133.352c0-3.64 2.939-6.319 6.443-6.319 3.504 0 6.443 2.68 6.443 6.319 0 3.662-2.939 6.342-6.443 6.342-3.504 0-6.443-2.68-6.443-6.342zm6.443 5.29c2.939 0 5.2-2.238 5.2-5.29 0-2.995-2.261-5.268-5.2-5.268-2.826 0-5.2 2.273-5.2 5.268 0 3.052 2.374 5.29 5.2 5.29zm-1.356-1.628h-1.018v-7.302h2.713c1.696 0 2.6.645 2.6 2.08 0 1.311-.791 1.877-1.922 2.012l2.148 3.21h-1.243l-1.922-3.165h-1.356v3.165zm1.356-4.103c.904 0 1.809-.068 1.809-1.187 0-.904-.792-1.074-1.583-1.074h-1.582v2.261h1.356"/></g></svg>
