<svg xmlns="http://www.w3.org/2000/svg" width="936.279" height="200"><g fill="#fafafa"><path d="M330.543 115.194l-5.582 15.814h-.465c-.93-3.566-2.636-8.992-5.426-15.504L289.147 40.31h-29.302v119.845h19.38V86.202c0-4.652 0-9.923-.155-16.435-.155-3.255-.465-5.736-.62-7.596h.465c.93 4.65 2.015 8.062 2.79 10.232l35.97 87.442h13.643l35.659-88.217c.775-2.016 1.55-6.047 2.325-9.457h.465c-.465 8.837-.775 16.744-.93 21.55v75.969h20.62V40H361.24l-30.697 75.194zm78.45-41.396h20.154v85.892h-20.155zm10.232-36.279c-3.411 0-6.202 1.24-8.527 3.411-2.326 2.17-3.566 4.961-3.566 8.372 0 3.256 1.24 6.047 3.566 8.217 2.325 2.17 5.116 3.256 8.527 3.256 3.41 0 6.356-1.24 8.527-3.256 2.326-2.17 3.566-4.96 3.566-8.217 0-3.255-1.24-6.046-3.566-8.372-2.016-2.17-4.961-3.41-8.527-3.41m81.395 35.503c-3.72-.775-7.597-1.24-11.318-1.24-9.147 0-17.52 2.015-24.496 6.046-6.977 4.031-12.558 9.613-16.124 16.59-3.72 7.131-5.581 15.348-5.581 24.806 0 8.217 1.86 15.504 5.426 22.17 3.566 6.512 8.527 11.783 15.194 15.35 6.357 3.565 13.798 5.426 22.17 5.426 9.613 0 17.83-2.016 24.342-5.737l.155-.155v-18.605l-.776.62c-2.945 2.171-6.356 4.032-9.767 5.117-3.566 1.24-6.822 1.86-9.612 1.86-8.062 0-14.419-2.325-18.915-7.442-4.651-4.96-6.977-11.782-6.977-20.31 0-8.837 2.326-15.814 7.132-20.93 4.806-5.116 11.163-7.752 18.915-7.752 6.511 0 13.178 2.17 19.224 6.512l.776.62v-19.69l-.155-.155c-2.636-1.085-5.582-2.326-9.613-3.1m66.512-.62c-4.961 0-9.613 1.55-13.644 4.805-3.41 2.791-5.736 6.822-7.752 11.628h-.155V73.798h-20.155v85.892h20.155v-43.876c0-7.442 1.55-13.643 4.962-18.14 3.41-4.65 7.752-6.976 13.023-6.976 1.86 0 3.72.465 6.046.775 2.17.62 3.721 1.24 4.807 2.015l.775.62V73.954l-.465-.155c-1.396-.93-4.186-1.395-7.597-1.395m54.884-.465c-14.109 0-25.427 4.186-33.334 12.403-8.062 8.217-11.938 19.535-11.938 33.799 0 13.333 4.031 24.186 11.783 32.093 7.752 7.751 18.295 11.783 31.473 11.783 13.798 0 24.806-4.187 32.713-12.559 8.062-8.372 11.938-19.535 11.938-33.333 0-13.643-3.72-24.496-11.318-32.403-7.286-7.907-17.984-11.783-31.317-11.783m16.124 66.046c-3.721 4.807-9.613 7.132-16.9 7.132-7.287 0-13.178-2.325-17.364-7.442-4.186-4.806-6.202-11.783-6.202-20.62 0-9.147 2.171-16.124 6.202-21.085 4.186-4.961 9.922-7.442 17.21-7.442 7.131 0 12.712 2.326 16.743 7.132 4.031 4.806 6.202 11.783 6.202 20.93-.31 9.302-2.015 16.59-5.891 21.395m71.472-28.527c-6.356-2.635-10.387-4.65-12.248-6.356-1.55-1.55-2.325-3.721-2.325-6.512 0-2.325.93-4.651 3.256-6.201 2.325-1.55 4.96-2.326 8.837-2.326 3.41 0 6.977.62 10.387 1.55 3.411.93 6.512 2.326 8.993 4.186l.775.62V75.505l-.465-.155c-2.326-.93-5.427-1.86-9.148-2.636-3.72-.62-7.131-.93-9.922-.93-9.612 0-17.52 2.326-23.721 7.442-6.202 4.806-9.147 11.318-9.147 18.915 0 4.03.62 7.596 2.015 10.542 1.396 2.946 3.411 5.737 6.202 8.062 2.79 2.17 6.821 4.651 12.403 6.977 4.651 2.015 8.217 3.566 10.387 4.806 2.171 1.24 3.566 2.636 4.652 3.721.775 1.24 1.24 2.79 1.24 4.806 0 5.737-4.341 8.527-13.178 8.527-3.411 0-6.977-.62-11.163-2.015s-8.062-3.411-11.318-5.737l-.775-.62v19.69l.465.155c2.946 1.396 6.512 2.326 10.853 3.411 4.34.775 8.217 1.395 11.628 1.395 10.387 0 18.914-2.325 24.96-7.441 6.202-4.962 9.458-11.318 9.458-19.535 0-5.737-1.55-10.853-4.961-14.729-4.496-3.72-10.078-7.597-18.14-10.698m76.28-37.519c-14.11 0-25.427 4.186-33.334 12.403-7.907 8.217-11.938 19.535-11.938 33.799 0 13.333 4.031 24.186 11.783 32.093 7.752 7.751 18.295 11.783 31.473 11.783 13.798 0 24.806-4.187 32.713-12.559 8.062-8.372 11.938-19.535 11.938-33.333 0-13.643-3.72-24.496-11.318-32.403-7.287-7.907-17.984-11.783-31.318-11.783m15.97 66.046c-3.721 4.807-9.613 7.132-16.9 7.132-7.442 0-13.178-2.325-17.364-7.442-4.186-4.806-6.202-11.783-6.202-20.62 0-9.147 2.17-16.124 6.202-21.085 4.186-4.961 9.922-7.442 17.21-7.442 6.976 0 12.712 2.326 16.743 7.132 4.031 4.806 6.202 11.783 6.202 20.93 0 9.302-2.016 16.59-5.892 21.395M936.28 90.388v-16.59h-20.311V48.372l-.62.155-19.225 5.737-.465.155v19.38H865.27V62.945c0-4.962 1.24-8.837 3.411-11.318 2.17-2.48 5.427-3.721 9.458-3.721 2.79 0 5.736.62 8.992 2.015l.775.466v-17.52l-.465-.155c-2.79-.93-6.512-1.55-11.318-1.55-6.046 0-11.318 1.395-16.124 3.72-4.806 2.636-8.372 6.202-11.008 11.008-2.635 4.652-4.03 9.923-4.03 15.97v11.937h-14.11v16.435h14.11v69.457h20.31V90.388h30.387v44.186c0 18.14 8.527 27.286 25.581 27.286 2.791 0 5.737-.465 8.527-.93 2.946-.62 5.117-1.395 6.357-2.015l.155-.155v-16.59l-.775.62c-1.24.776-2.326 1.396-4.186 1.861-1.55.465-2.946.62-4.031.62-4.031 0-6.822-.93-8.837-3.255-1.86-2.171-2.791-5.737-2.791-11.008v-40.62h20.62zM0 0h95.039v95.039H0zM104.961 0H200v95.039h-95.039zM0 104.961h95.039V200H0zM104.961 104.961H200V200h-95.039z"/></g></svg>
