<svg xmlns="http://www.w3.org/2000/svg" width="554.943" height="200"><g fill="#fafafa"><path d="M552.977 56.917c1.177-1.375 1.966-2.943 1.966-4.909 0-2.164-.787-3.935-1.966-5.31-1.381-1.38-3.142-2.167-5.114-2.167-1.961 0-3.533.79-5.111 2.167-1.37 1.377-1.966 3.146-1.966 5.31 0 1.966.596 3.534 1.966 4.91 1.578 1.376 3.15 1.965 5.111 1.965 1.972 0 3.733-.589 5.114-1.966zM553.377 129.267V65.765h-10.623l.2 63.502h10.423zM528.794 68.913l-1.765-.789c-4.72-2.754-10.423-4.128-17.301-4.128-7.473 0-13.567 1.767-18.088 5.307-2.36 1.77-3.933 3.538-5.112 5.9-1.177 2.161-1.773 4.324-1.773 6.878 0 4.326 1.97 7.864 5.511 11.008 3.34 2.952 8.252 5.31 14.742 7.274 5.503 1.77 9.237 3.542 11.598 5.31 1.968 1.966 3.15 4.127 3.15 6.88 0 2.949-1.574 5.308-4.33 7.276-2.755 1.572-6.688 2.555-11.599 2.555-5.31 0-10.615-1.379-16.12-3.937l-1.376-.978-4.523 8.256 1.576.785c6.091 2.952 12.78 4.325 20.051 4.325 7.865 0 14.352-1.572 19.464-5.11 2.558-1.574 4.325-3.734 5.702-5.894 1.37-2.558 1.965-5.313 1.965-8.064v-.2c0-4.717-1.965-8.847-5.7-12.186-3.142-2.748-8.258-5.111-14.941-7.075-5.114-1.777-8.849-3.544-11.013-4.919-2.357-1.773-3.339-3.734-3.339-5.897 0-2.558.982-4.52 3.148-6.288 2.355-1.576 5.498-2.56 9.63-2.56 5.7 0 10.418.984 14.156 3.343l1.377.984 4.91-8.056zM464.708 73.63c-7.277-6.29-16.318-9.632-26.742-9.632-10.221 0-18.674 3.143-25.553 9.238-7.67 6.885-11.599 16.317-11.599 28.703v49.345h10.218v-31.847c3.148 3.538 7.083 6.29 11.8 8.26 4.718 2.16 9.828 3.14 15.337 3.14 10.418 0 19.262-3.14 26.539-9.83 7.47-6.487 11.2-14.35 11.2-23.591 0-9.437-3.73-17.297-11.2-23.786zm-26.742-.79c7.67 0 14.354 2.364 19.464 7.078 5.31 4.718 8.063 10.613 8.063 17.699 0 6.68-2.363 12.185-7.078 16.903-5.112 4.915-11.992 7.473-20.248 7.473-8.262 0-14.95-2.558-20.254-7.473-4.911-4.913-7.269-10.416-7.269-16.903 0-6.493 2.358-12.192 7.269-16.914 5.115-5.108 11.8-7.862 20.053-7.862zM384.493 76.778c-6.875-8.654-16.708-12.782-29.881-12.782-9.83 0-18.287 2.753-25.56 8.648-7.862 6.096-11.791 14.355-11.791 24.577 0 5.7 1.57 11.402 4.911 16.709 2.953 5.11 7.473 9.241 13.569 12.384 6.093 2.951 12.58 4.324 19.658 4.324 6.684 0 12.972-1.373 19.071-4.324 6.09-3.143 10.614-7.274 13.563-12.384l1.966-3.343h-11.4c-2.362 3.343-5.709 6.097-10.027 8.258-4.325 2.16-9.043 3.146-13.567 3.146-6.29 0-11.599-1.576-16.317-4.72-4.718-3.343-7.862-7.471-9.83-12.976 6.485-2.556 12.976-3.932 20.055-3.932l10.616 1.179 16.512 1.574c5.11 0 9.44-.787 13.37-1.964 1.573-.592 2.555-1.379 2.95-2.363.587-.785.587-2.156.197-3.736-1.184-7.074-3.74-13.165-8.065-18.275zm-2.748 16.124l.194.39-5.702.785-12.386-1.177-17.3-1.381h-2.948c-5.507.394-10.617 1.381-15.532 3.146.785-7.276 4.325-12.98 10.225-17.104 4.912-3.15 10.419-4.917 16.316-4.917 9.237 0 16.317 2.95 21.625 8.848 2.755 3.542 4.719 7.274 5.508 11.41zM271.45 63.996c-10.027 0-18.676 3.143-25.557 9.238-7.668 6.885-11.404 16.317-11.404 28.703l-.195 49.345h10.617l-.199-31.847c3.147 3.538 7.078 6.29 11.601 8.26 4.913 2.16 10.027 3.14 15.53 3.14 10.423 0 19.267-3.14 26.541-9.83 7.469-6.487 11.009-14.35 11.009-23.591 0-9.437-3.54-17.297-10.812-23.786-7.471-6.29-16.315-9.632-27.131-9.632zm-20.052 16.71c5.309-5.11 11.798-7.865 20.052-7.865 7.866 0 14.351 2.363 19.658 7.077 5.312 4.718 7.864 10.613 7.864 17.699 0 6.68-2.357 12.185-6.882 16.903-5.108 4.915-11.794 7.473-20.443 7.473-8.062 0-14.94-2.558-20.25-7.473-4.719-4.913-7.078-10.416-7.078-16.903.002-6.491 2.359-12.19 7.08-16.912z"/><g><path d="M159.994 20.406a25.793 25.793 0 0 1-2.564-2.22C141.174 6.732 121.346 0 99.954 0 44.751 0 0 44.77 0 99.999c0 22.385 7.36 43.05 19.779 59.72 33.448-9.876 62.63-27.058 87.64-51.895 24.979-24.717 42.53-53.971 52.575-87.418z"/><path d="M99.954 200c55.2 0 99.95-44.779 99.95-100.001 0-19.549-5.61-37.777-15.3-53.177a5.414 5.414 0 0 1-.682-.832 71.122 71.122 0 0 1 3.057 20.7c0 11.348-2.622 22.088-7.773 32.144-5.153 9.604-12.138 17.724-20.96 24.275-6.985 5.155-15.37 9.522-25.24 13.101-7.857 2.875-18.077 5.848-30.737 8.725L65.76 153.15c-15.52 3.557-29.655 7.365-42.248 11.263C41.847 186.176 69.283 200 99.954 200z"/></g></g></svg>
