<svg xmlns="http://www.w3.org/2000/svg" viewBox="0 0 793.636 844.815" height="1126.42" width="1058.181"><path d="M166.39.008c.01 38.4.01 76.8.01 115.2-8.54 0-17.06-.001-25.6-.011-9.33.01-18.48 3.59-25.42 9.81-8.27 7.27-13.28 18.38-12.99 29.4.02 8.27.01 16.53.01 24.8-13.21.02-26.43-.039-39.63.021-13.85.42-26.78 8.84-32.99 21.18a38.226 38.226 0 0 0-4.19 17c.02 48.78.01 97.55.01 146.33-8.5 3.51-15.98 8.77-20.96 16.63-3.19 5.09-4.67 11.03-4.64 17.01.01 93.69 0 187.379 0 281.069-.05 15.7 10.3 30.37 24.96 35.85 4.44 1.64 9.09 2.65 13.84 2.52 42.53-.02 85.07 0 127.6-.01-.01 42.67.01 85.33-.01 128 153.61.01 307.21.01 460.82 0-.02-42.67 0-85.33-.01-128 42.53.01 85.07-.01 127.6.01 6.69.14 13.45-1.82 19.26-5.08 11.78-6.7 19.57-19.67 19.54-33.27.01-93.02-.02-186.05.02-279.06.14-5.75-.67-11.39-3.28-16.56-4.59-9.08-13.09-15.32-22.34-19.11.01-47.77-.02-95.55.02-143.33.14-5.9-.54-11.7-2.9-17.15-5.6-13.83-19.34-23.569-34.3-24.029-13.2-.06-26.41 0-39.62-.02-.01-8.6.01-17.19 0-25.79-.02-13.97-8.32-27.421-20.76-33.771-5.71-3.11-12.17-4.55-18.65-4.46-8.2.03-16.39.01-24.59.02 0-38.4 0-76.8.01-115.2-153.61-.01-307.21-.01-460.82 0zm27.42 25.589c135.93.02 271.86.01 407.79.01-.01 81.07.01 162.14-.01 243.21-136.53-.01-273.05-.01-409.58 0-.02-78.47 0-156.94-.01-235.41.01-2.57-.1-5.159.07-7.729l1.74-.081zm458.04 115.19c2.73-.05 5.37.42 7.72 1.88 4.13 2.3 6.17 7.07 6.05 11.67-.03 8.29-.02 16.58-.02 24.87h-38.4c.02-12.79-.05-25.58.03-38.36 8.21-.1 16.42.01 24.62-.06zm-505.267.013c6.605-.017 13.217.038 19.817.008-.01 12.8 0 25.6 0 38.4H128c.05-8.91-.1-17.84.06-26.74.49-6.38 5.5-11.341 11.92-11.621 2.2-.028 4.4-.041 6.603-.047zm581.086 63.983c2.805-.027 5.444.054 8.122 1.554 4.14 2.07 6.539 6.53 6.609 11.07 0 55.53-.01 111.06 0 166.59 4.84.09 9.69-.15 14.52.09 6.18.78 10.89 5.881 11.06 12.141.06 92.3-.01 184.86.03 277.18-.02 4.27.4 8.279-2.04 12.039-2.33 3.83-6.71 5.8-11.1 5.77-42.56-.02-85.11-.01-127.67-.01 0-17.04-.01-34.07.01-51.11 9.31-.24 17.63-5.07 22.28-13.14 3.49-6.1 4.24-13.63 2.09-20.32-2.67-8.52-10.17-15.37-18.9-17.23-3.77-.85-8.01-.56-11.88-.6h-447c-3.7.05-7.5-.19-11.18.29-6.76.96-12.82 4.79-16.88 10.24-6.85 9.1-6.52 22.481.84 31.191 4.93 6.06 12.04 9.329 19.81 9.569.02 17.04.01 34.07.01 51.11-42.56 0-85.11-.01-127.67.01-4.04.06-8.32-1.73-10.66-5.12-1.86-2.51-2.51-5.52-2.48-8.61.03-91.35 0-182.72.01-274.08.08-3.72-.47-8.05.92-11.52 1.7-4.5 6.35-7.749 11.14-7.859 4.51-.1 9.03.019 13.54-.031 0-53.53.01-107.06 0-160.59.09-4.2-.61-8.18 1.53-11.99 2.08-4.11 6.52-6.59 11.07-6.61h102.6c0 12.76-.01 25.52 0 38.28-3.42.39-6.66.731-9.87 2.091-6.42 2.71-11.72 8.18-14.13 14.74-2.49 6.64-2.04 14.32 1.26 20.6 3.44 6.73 9.96 11.73 17.35 13.32 4.09.82 8.61.53 12.79.57h446c5.4-.07 10.41.459 15.59-1.361 9.34-3.11 16.33-11.79 17.26-21.6.91-8.37-2.47-16.68-8.88-22.11-4.69-4.18-10.42-5.799-16.58-6.259.02-12.75.01-25.51.01-38.27 32.53-.01 65.06.019 97.6-.011.98.015 1.934-.005 2.869-.014zM192 614.408h409.6v204.8H192v-204.8z" fill="#343a40"/><path d="M85.39 359.118c6.2-2.22 13.21.85 15.86 6.85 3.1 6.48-.25 14.46-6.85 17.09-7.07 3.02-15.42-1.36-17.23-8.74-1.63-6.38 2.07-13.02 8.22-15.2zM136.43 359.158c6.2-2.27 13.11.7 15.93 6.59 3.08 6.22.18 14.22-6.14 17.03-6.44 3.2-14.69-.08-17.24-6.75-2.89-6.67.8-14.36 7.45-16.87zM187.49 359.207c6.12-2.33 13.16.55 15.99 6.41 3.27 6.37.25 14.41-6.26 17.25-6.47 3.08-14.48-.28-17.09-6.88-2.78-6.56.79-14.28 7.36-16.78zM239.33 358.998c6.28-2.02 13.32 1.28 15.71 7.43 2.71 6.28-.52 13.84-6.74 16.49-6.35 2.92-13.98-.2-16.76-6.51-3.31-6.74.7-15.26 7.79-17.41zM290.35 359.067c6.14-2.12 13.2.97 15.72 6.96 3.4 6.99-.97 15.55-8.31 17.53-6.67 1.94-13.96-2.32-15.69-9-1.91-6.36 2.01-13.47 8.28-15.49zM341.39 359.118c6.2-2.22 13.21.85 15.86 6.85 3.1 6.48-.25 14.46-6.84 17.09-7.08 3.02-15.43-1.36-17.24-8.74-1.63-6.38 2.07-13.02 8.22-15.2zM392.42 359.158c6.21-2.28 13.14.71 15.96 6.62 3.05 6.21.14 14.19-6.16 17-6.36 3.16-14.53 0-17.16-6.56-3.03-6.68.63-14.51 7.36-17.06zM443.49 359.207c6.12-2.33 13.16.55 15.99 6.41 3.26 6.35.26 14.4-6.24 17.24-6.47 3.1-14.5-.26-17.11-6.87-2.78-6.56.79-14.28 7.36-16.78zM495.33 358.998c6.28-2.02 13.32 1.28 15.71 7.43 2.71 6.28-.52 13.84-6.74 16.49-6.34 2.92-13.99-.2-16.76-6.51-3.31-6.74.7-15.26 7.79-17.41zM546.36 359.067c6.14-2.11 13.19.97 15.71 6.96 3.4 6.99-.97 15.55-8.31 17.53-6.67 1.94-13.96-2.32-15.69-9-1.91-6.36 2.01-13.48 8.29-15.49zM597.39 359.118c6.2-2.22 13.21.85 15.86 6.85 3.1 6.48-.25 14.46-6.84 17.09-7.08 3.02-15.43-1.36-17.24-8.74-1.63-6.38 2.07-13.02 8.22-15.2zM648.42 359.158c6.21-2.28 13.15.71 15.96 6.62 3.05 6.21.14 14.19-6.16 17-6.44 3.2-14.69-.08-17.24-6.76-2.89-6.65.8-14.35 7.44-16.86zM699.49 359.207c6.12-2.33 13.16.55 15.99 6.41 3.26 6.35.26 14.4-6.24 17.24-6.47 3.1-14.5-.26-17.11-6.87-2.78-6.56.79-14.28 7.36-16.78zM688.72 435.327c14.27-1.51 27.43 9.77 28.02 24.11.92 13.83-10.19 26.22-24.02 26.91-13.78.99-26.21-10-27.07-23.76-1.04-13.64 9.46-26.01 23.07-27.26z" fill="#343a40"/><g fill="#343a40"><path d="M395.319 746.382c-2.188 1.844-26.999 33.705-39.549 49.23a88.986 88.986 0 0 0 41.252 10.147c14 0 27.18-3.312 38.998-9.06-12.214-15.051-38.198-48.426-40.444-50.317z"/><path d="M307.502 716.242c0 20.413 6.95 39.201 18.511 54.277 10.933-7.15 38.212-26.604 48.982-49.34 0 0-15.448-12.969-16.198-32.517-.721-19.575 16.562-44.783 35.313-44.548.397 0 .809.056 1.209.081h.254c.403-.022.8-.08 1.212-.08 18.743-.236 36.031 24.972 35.31 44.547-.747 19.548-16.2 32.518-16.2 32.518 11.564 24.405 42.183 45.059 51.132 50.716 12.178-15.294 19.515-34.611 19.515-55.654 0-49.365-40.147-89.537-89.52-89.537-49.361 0-89.52 40.172-89.52 89.537"/><path d="M395.716 661.249h-.51c-3.594 0-13.6-.988-11.2 9.408 2.378 10.379 11.067 23.272 11.067 23.272.388.638.744 0 .744 0s8.705-12.893 11.078-23.275c2.014-8.734-4.74-9.428-9.059-9.428-.82 0-1.552.023-2.12.023"/></g></svg>