<svg xmlns="http://www.w3.org/2000/svg" width="352.74" height="200"><g fill="#fafafa"><path d="M13.775 113.825c-8.882 0-13.607-5.69-13.66-16.455L0 72.568c0-.276.206-.498.475-.536l7.741-.743a.491.491 0 0 1 .406.146.48.48 0 0 1 .176.382l.115 24.496c.023 5.383 2.068 8.124 6.095 8.124.314 0 .636-.015.98-.061 4.718-.46 7.099-3.66 7.076-9.541l-.115-24.496c0-.283.207-.498.483-.528l7.764-.758a.55.55 0 0 1 .422.13c.107.1.168.253.168.398l.115 24.787c.03 6.654-1.983 18.002-15.858 19.35a26.21 26.21 0 0 1-2.268.107M40.208 110.288a.525.525 0 0 1-.36-.153.507.507 0 0 1-.16-.383l-.2-40.897c0-.291.215-.521.49-.536l8.255-.567a.506.506 0 0 1 .452.2l17.489 23.085-.107-24.035a.512.512 0 0 1 .49-.529l6.677-.475c.146 0 .291.046.398.154.116.1.169.23.169.383l.191 40.897a.519.519 0 0 1-.49.536l-6.853.474c-.176 0-.36-.06-.46-.191L47.3 83.22l.123 26.073a.516.516 0 0 1-.49.52l-6.685.475h-.04zM83.786 107.47a.524.524 0 0 1-.36-.146.527.527 0 0 1-.176-.375l-.23-40.783c0-.283.214-.528.498-.535l8.882-.437a.536.536 0 0 1 .398.146.48.48 0 0 1 .168.375l.2 40.783a.55.55 0 0 1-.513.536l-8.837.436h-.03zM116.528 106.092a.54.54 0 0 1-.49-.322L98.648 65.5a.562.562 0 0 1 .054-.505.498.498 0 0 1 .428-.238l10.154-.306c.253.008.421.13.505.322L121.1 91.06l11.693-26.992a.53.53 0 0 1 .46-.322l8.017-.23c.207 0 .352.077.452.23.114.16.122.337.046.505l-17.82 41.312a.521.521 0 0 1-.474.313l-6.938.215h-.007zM147.984 105.318a.53.53 0 0 1-.536-.52l-.237-40.783c0-.138.053-.276.153-.383a.547.547 0 0 1 .375-.153l32.689-.023c.291 0 .528.23.528.52l.038 7.94a.52.52 0 0 1-.536.53l-22.764.022.03 7.06 15.3-.023a.54.54 0 0 1 .527.536l.04 7.994a.543.543 0 0 1-.154.39c-.1.1-.238.146-.375.146l-15.292.023.023 7.65 23.048-.031c.291 0 .529.253.529.544l.038 7.986a.482.482 0 0 1-.154.375.508.508 0 0 1-.375.161l-32.888.039h-.007zM200.865 81.42l7.251.222c.33.008.643.008.943.008 2.672 0 4.234-.376 5.076-1.233.681-.682.98-1.747.98-3.461-.022-1.938-.382-3.699-4.801-3.821l-9.48-.291.031 8.576zm25.866 25.139h-.023l-10.567-.322a.491.491 0 0 1-.436-.268l-8.951-15.391-5.79-.176.07 14.832a.494.494 0 0 1-.169.383c-.084.099-.23.145-.383.16l-8.913-.275a.53.53 0 0 1-.52-.536l-.192-40.897a.52.52 0 0 1 .168-.383.5.5 0 0 1 .383-.153l22.444.673c7.442.23 11.73 4.97 11.769 13.025.038 7.757-4.12 10.989-7.88 12.336l9.442 16.195c.1.169.1.376 0 .537a.498.498 0 0 1-.452.26M249.956 108.94c-.559 0-1.126-.016-1.715-.054-6.325-.328-12.926-4.288-14.787-5.498a.483.483 0 0 1-.252-.436l-.046-9.434a.532.532 0 0 1 .827-.436c5.72 3.82 11.187 6.286 14.273 6.462 2.925.154 4.862-.283 5.835-1.255.475-.475.697-1.08.697-1.861 0-.92-.942-1.815-2.964-2.818-1.194-.613-2.61-1.195-4.12-1.815-6.37-2.619-15.107-6.195-15.146-15.85-.015-3.216.996-5.888 3.017-7.926 2.604-2.61 6.785-3.943 11.47-3.69 5.514.306 12.084 3.124 15.162 4.954a.53.53 0 0 1 .253.46l.054 9.134c0 .2-.108.383-.284.468a.514.514 0 0 1-.543-.016c-1.899-1.247-8.538-5.313-14.648-5.643-2.168-.115-3.247.46-3.714.934-.46.452-.521.92-.521 1.164 0 .988.98 1.991 2.986 3.07 1.203.644 2.742 1.295 4.373 1.976 6.279 2.65 14.877 6.264 14.916 14.947.023 3.875-1.095 6.96-3.339 9.205-2.603 2.626-6.57 3.958-11.784 3.958M282.668 92.469l7.397.536-3.638-10.008-3.76 9.472zm23.078 19.06c-.007 0-.015 0-.038-.008l-8.798-.644a.52.52 0 0 1-.46-.352l-2.963-8.232-14.312-1.056-3.032 7.741a.52.52 0 0 1-.528.338l-7.374-.544a.592.592 0 0 1-.421-.238.567.567 0 0 1-.038-.482l15.804-40.078a.55.55 0 0 1 .536-.345l6.164.46c.2.007.39.145.46.352l15.49 42.375a.46.46 0 0 1-.06.49.524.524 0 0 1-.43.222M337.325 114.445h-.053l-25.361-2.335a.532.532 0 0 1-.475-.536l-.245-41.38c0-.16.053-.298.169-.406a.577.577 0 0 1 .413-.137l7.665.712a.526.526 0 0 1 .483.528l.152 32.782 17.26 1.592a.54.54 0 0 1 .482.536l.031 8.11a.508.508 0 0 1-.52.534M62.177 194.747l.957 1.999H61.18l.996-2zm-.567-2.511l-3.775 7.557h1.823l.758-1.508h3.445l.713 1.508h2.159l-3.614-7.557h-1.51zM84.705 200c-2.114 0-4.25-1.233-4.25-3.982 0-2.764 2.136-3.997 4.25-3.997 1.37 0 2.61.544 2.84.659l.192.092v1.753l-.49-.26c-.215-.107-1.325-.666-2.542-.666-1.746 0-2.206 1.523-2.206 2.42 0 .895.46 2.396 2.206 2.396 1.34 0 1.93-.314 2.404-.552l.682-.352v1.822l-.338.131c-.628.245-1.416.536-2.748.536M97.592 193.598c-1.754 0-2.22 1.524-2.22 2.42 0 .896.466 2.397 2.22 2.397 1.76 0 2.22-1.501 2.22-2.397 0-.896-.46-2.42-2.22-2.42m0 6.402c-2.114 0-4.258-1.233-4.258-3.982 0-2.764 2.144-3.997 4.258-3.997 2.113 0 4.257 1.233 4.257 3.997 0 2.749-2.144 3.982-4.257 3.982M109.889 192.236h-1.891v7.557h1.6v-3.79l1.892 3.79h1.095l1.799-3.775v3.775h1.953v-7.557h-1.83l-2.244 4.71zM126.735 200c-2.121 0-4.25-1.233-4.25-3.982 0-2.764 2.13-3.997 4.25-3.997 1.379 0 2.603.544 2.833.659l.192.092v1.753l-.483-.26c-.207-.107-1.332-.666-2.542-.666-1.753 0-2.213 1.523-2.213 2.42 0 .895.46 2.396 2.213 2.396 1.34 0 1.93-.314 2.397-.552l.681-.352v1.822l-.337.131c-.628.245-1.409.536-2.74.536M139.002 194.747l.965 1.999h-1.953l.988-2zm-.552-2.511l-3.782 7.557h1.838l.743-1.508h3.445l.72 1.508h2.152l-3.622-7.557h-1.494zM151.881 200c-1.033 0-2.243-.376-2.986-.766l-.183-.091v-1.815l.482.275c.758.391 1.968.812 2.688.812.98 0 1.47-.245 1.47-.697 0-.367-.896-.643-1.853-.942l-.114-.038c-1.44-.436-2.78-1.064-2.78-2.565 0-1.309 1.195-2.152 3.055-2.152 1.118 0 2.481.398 3.055.667l.184.091v1.754l-.482-.252c-.406-.208-1.662-.682-2.757-.682-.598 0-.988.199-.988.49 0 .413.612.628 1.631.942.253.069.513.153.773.253.774.26 2.366.804 2.366 2.229 0 .933-.474 2.487-3.56 2.487M167.816 192.236h-7.128v1.523h2.58v6.034h1.96v-6.034h2.588zM185.796 200c-2.106 0-4.242-1.233-4.242-3.982 0-2.764 2.136-3.997 4.242-3.997 1.378 0 2.619.544 2.848.659l.176.092v1.753l-.482-.26c-.207-.107-1.324-.666-2.542-.666-1.739 0-2.213 1.523-2.213 2.42 0 .895.474 2.396 2.213 2.396 1.34 0 1.937-.314 2.412-.552l.666-.352v1.822l-.33.131c-.627.245-1.409.536-2.748.536M198.675 193.598c-1.746 0-2.205 1.524-2.205 2.42 0 .896.46 2.397 2.205 2.397 1.77 0 2.229-1.501 2.229-2.397 0-.896-.46-2.42-2.229-2.42m0 6.402c-2.106 0-4.242-1.233-4.242-3.982 0-2.764 2.136-3.997 4.242-3.997 2.13 0 4.265 1.233 4.265 3.997 0 2.749-2.136 3.982-4.265 3.982M210.934 192.236h-1.899v7.557h1.6v-3.79l1.892 3.79h1.103l1.799-3.775v3.775h1.969v-7.557h-1.854l-2.236 4.71zM225.797 196.141h1.44c1.302 0 1.6-.245 1.6-1.333 0-.444-.123-1.04-1.21-1.04h-1.83v2.373zm0 3.644h-1.953v-7.557h4.105c2.014 0 2.994.842 2.994 2.58 0 2.543-1.776 2.872-3.339 2.872h-1.807v2.105zM240.124 194.747l.957 1.999h-1.953l.996-2zm-.567-2.511l-3.775 7.557h1.83l.743-1.508h3.46l.714 1.508h2.152l-3.623-7.557h-1.5zM251.756 199.793v-4.992l4.395 4.992h1.623v-7.557h-1.6v4.617l-4.074-4.617h-1.946v7.557zM268.548 199.793v-2.749l3.537-4.808h-1.944l-2.328 3.1-2.244-3.1h-2.412l3.415 4.785v2.772zM187.182 5.666c-4.304-1.049-9.029-.252-8.898-.069-.46-.153-1.34-.467-1.838-.36a.486.486 0 0 0-.16.047c.091.046.198.091.298.13-.299.115-.429-.039-.682-.093.16.222.13.184-.008.414a.38.38 0 0 0 .047.1c.689.16 1.362.429 2.335.321v-.053c-.207-.207-.682-.245-.927-.437h-.092V5.62c.636.115 1.172.398 1.608.69a.888.888 0 0 1 .2-.13c-.169.26-.345.329-.253.597-1.041-.161-1.807-.537-2.214.612.116.1.23.192.345.291-.084.03-.168.054-.252.085-.016.092-.039.183-.054.283.414.383.65.582 1.172.78.022.192.053.407.084.614.122.107.122.084.299.053.221.215.068.376.183.513.283.368 1.363.904 1.6 1.233.084.1.016.314.2.429.382.26.834.414 1.171.712.123.069.03.008 0 .13.766.36 1.945.33 2.588.72.13.13.061.046.054.23.666.183 1.332.367 2.006.551a.862.862 0 0 0 .137-.038c.046-.176.032-.184-.038-.345.398-.222.498-.658.789-.965-.138-.253-.192-.275-.146-.628.552-.077.72-.375 1.18-.483-.054-.268-.023-.33-.246-.436.13-.1.1-.054.3.007.053-.046.09-.1.144-.145-.145-.122-.298-.26-.444-.39h-.092v-.054c.261.077.536.123.828.077.038-.016.076-.023.107-.054-.069-.069-.13-.153-.199-.237.023-.023.038-.03.038-.046.383.206.613.222 1.18.23.038-.13.076-.245.099-.376.084-.007.161-.022.252-.03-.091.115-.168.237-.252.36.016.038.038.068.046.1 1.148.26 1.937-.185 3.032-.368v-.284c1.309-.375 3.178.422 4.457.322.376-.023-4.678-3.262-9.984-4.564M129.224 113.511c.582.965 1.118 2.29 1.869 3.07 1.584 1.624 4.18 2.505 5.176 4.587.482.475.949.942 1.424 1.401-.023.23-.054.444-.084.659.084.65.382 1.57.275 2.274-.038.314-.153.712-.13 1.064.053.207.107.429.153.651-.115.659-.39 1.348-.405 2.16-.2.084-.077.037-.345 0-.008.236-.023.474-.039.704h.238c-.054.437-.115.88-.169 1.31.054.436.108.88.153 1.308-.06.176-.337.245-.382.506.038.16.076.344.107.49-.085.896-.253 1.669-.505 2.174-.268.551.007 1.08-.475 1.401.092.69.314 1.057.268 1.807-.192.062-.108.047-.345.047-.107 1.646.712 2.542.2 3.752.076.038.267.512.19.704-.39 1.08-.888 2.114-.98 3.385-.046-.03-.092-.069-.145-.1 0 .215.007.437.007.651-.145-.053-.29-.107-.436-.153-.015.008-.03.031-.046.046.092.903.528 1.876.896 2.634-.038 1.042-.65 1.363.13 2.527v.207c-.084-.053-.168-.1-.245-.16-.161.482.1.988-.038 1.538.168.207.36.253.643.352.038-.022.091-.037.137-.053.115-.52.054-1.14-.207-1.538.031-.031.07-.054.1-.093.107.054.23.093.337.146h.046c-.023-.215.092-.176-.092-.192.03-.061.061-.13.092-.207.077.108.169.2.253.307-.054.061-.1.13-.16.199.244.16.367.712.068.834.084.077.16.138.245.2-.138.842.015 1.424.015 2.32h-.092c-.069-.268-.268-1.011-.153-1.08-.191-.253-.375-.421-.697-.552-.145.222-.237.56-.276.896.13.123.253.26.391.398l-.046.69h-.337v.045c.054.084.1.192.146.291-.13.1-.26.207-.383.3v.198c.107.069.23.13.337.192.068-.062.13-.123.2-.2.221.2.665.268.872.499-.061-.024-.123-.032-.191-.046.068.152.053.084.145.191-.046.168-.092.321-.138.49-.176-.1-.199-.169-.49-.199v.061c.046.046.092.1.153.138-.092.053-.168.108-.245.153.26.475.322 1.202.643 1.624.23.107.452.229.682.352a1.883 1.883 0 0 0-.39-.108v.047c.053.191.092.398.145.589.084.031.168.07.245.1.069-.146.13-.291.199-.444.046.122.092.229.146.344h-.2a.333.333 0 0 0-.045.054c.19.283.23.42.252.827.192-.062.383-.123.582-.192.123.115.092.13.291.192l-.1.2c-.16-.055-.321-.101-.482-.146-.023.03-.03.06-.045.091.168.314.428.506.734.69-.03-.062-.061-.139-.1-.2.284.23.544.46.828.689v.046c-.26-.107-.514-.222-.781-.337.337.414.605.552.98.636-.015.122.015.015-.046.138.375.382 1.953 1.423 2.39 1.317-.016.199.014.053-.047.206.46.437 1.953.996 2.68 1.172v-.046c-.115-.122-.238-.23-.345-.337.53.168.866.023 1.218.337v-.199c.222.03.452.069.682.092h.046c.015-.023.03-.061.045-.092v-.137c-1.332-.169-1.76-1.325-2.833-1.624.054-.061.107-.13.153-.192-.306-.329-.704-.306-.972-.635a.365.365 0 0 0-.1-.046c.046-.038.1-.061.146-.092.245.092.49.191.72.276v-.039c-.383-.497-1.011-.842-1.08-1.669.023-.03.038-.061.06-.1.223-.053.453-.083.675-.152.184-.138.122-.422.084-.781.314-.207.973-.345 1.218-.629.076-.115.076-.428.038-.743-.796-.527-1.968-.688-1.708-1.868a1.34 1.34 0 0 1 1.356-.191h.206c-.068-.192 0-.116-.152-.207.091-.207.137-.176.336-.238.039-.306-.06-.574-.145-.842.199-.299.375-.43.873-.452-.122-.23-.413-.276-.59-.437-.03-.015-.068-.038-.1-.053.115-.046.223-.107.337-.153.253.176.338.283.491.543.123.023.26.039.398.047.038-.047.092-.085.138-.146 0-.299-.023-.437-.146-.59-.038-.038-.069-.092-.1-.145-.183.015-.36.03-.535.053.084.062.16.13.237.192v.046c-.107-.023-.222-.062-.337-.092-.146-.123-.153-.253-.483-.345-.168-.299-.176-.865-.306-1.248.368-.444 1.203.475 1.715.605.383-.023.766-.038 1.157-.046.084-.192.16-.368.245-.559-.062.038-.13.069-.192.1-.069-.062-.138-.123-.199-.192.23-.337.566-.712.375-1.187.07.03.138.061.2.107h.046a2.772 2.772 0 0 0-.1-.299c.704.284 3.82.729 4.678.238.192-.1.935-1.01 1.21-1.225v-.697c-.413-.145-.612-.168-.643-.697.13-.107.253-.229.383-.352-.2-.865-1.088-.957-1.479-1.638.07-.077.139-.161.2-.246.046-.022.091-.038.145-.06.13.214.269.275.345.558.306.062.613.123.927.207.275.183.612.765.98.835.29.06.513-.13.835 0 .23.114.39.397.78.344.988-.107 1.164-.574 1.746-.98.345-.146.682-.298 1.026-.444.245-.33.505-.658.766-.988a469.61 469.61 0 0 1 1.945-.843c.773-.513 1.179-1.431 1.89-1.983.897-.697 2.03-.819 2.383-2.083a.984.984 0 0 1-.207-.045c.138-.491.168-1.126.436-1.8.207-.529 3.645-2.266 4.533-2.006.192.145.383.307.582.444.03-.107.077-.223.1-.33-.07-.022-.13-.038-.2-.068v-.046c.437-.107.881-.766 1.318-.62.153-.153.16-.093 0-.253v-.146c.926-.007 2.664.36 3.53.774.084-.13.076-.13.245-.192-.046-.773.88-.475 1.455-.743.375-.283.405-1.194.973-1.47.918-.46.873-.75 1.515-1.179.283-.176.552-.161.728-.437.658-1.056.214-1.53 1.562-2.021.222-.728.398-1.302.82-1.83.213-.238.428-.483.635-.728.23-.65.084-1.194.337-1.776.268-.643.827-1.057.88-1.876.598-.314 1.126-.207 1.708-.62.835-.72 1.662-1.456 2.497-2.183.29-.06.589-.115.88-.176.375-.29.75-.582 1.126-.88 1.347-.873 2.45-1.639 2.978-3.34.008-.328.031-.658.046-.995.146-.62.873-4.648.865-4.648-37.772-.081-65.782.378-65.782.378m33.569-105.47c.612.083 1.424.176 2.098.474.682.306.85.743 1.585.858-.16.115-.253.045-.49-.008.176.299.36.46.781.513-.069.038-.13.069-.198.1.19.176.313.313.582.428h.198c-.06-.199-.022-.145-.183-.245v-.038c1.41.46 2.703 1.455 4.326 1.707.077-.214-.03-.1.199-.137v-.046c-.475-.635-1.6-1.317-2.373-1.638-.023-.054-.031-.123-.047-.184.306.16.613.321.92.49v-.192c.88.513 1.89 1.14 2.771 1.646a3.22 3.22 0 0 1 .245-.038h.092c0-.007.007-.03.007-.046-.313-.206-.474-.175-.681-.49.138.061.26.107.398.153.016.008.031.008.054.008.008-.176-.03-.207-.153-.375a.91.91 0 0 1 .054-.092c.115.077.084.046.145.176.299-.023.207-.054.345-.222.077.192.084.192.237.291h.054c-.03-.069-.069-.13-.1-.184h.345c0-.038 0-.06.008-.1-.292-.175-.536-.375-.927-.49-.023-.03-.03-.06-.053-.091.1-.008.199-.023.298-.03v-.054c-.268-.23-1.133-.92-1.753-.827.015-.284-.138-.659-.475-.75h.39c.023-.04.031-.062.054-.1a4.753 4.753 0 0 0-.2-.184c.644.053 1.203.558 1.762.59-.2.635 1.057.819 1.493 1.163.33-.046.306-.153.544-.184-.046-.03-.092-.069-.138-.1.07-.145.023-.084.146-.175.252.1.49.191.727.061v.184c.123.007.23.007.345.007-.046-.06-.1-.13-.145-.191.153-.077.014-.03.19.008.062-.016.108-.03.154-.039-.062-.1-.122-.2-.2-.29.445.107.621.091.981.015-.122-.406-.666-.574-1.156-.544-.069-.123.03-.061.138-.123-.16-.007-.322-.023-.482-.023-.17-.076-.3-.375-.827-.39.099-.1.015-.054.199-.092-.169-.16-.628-.406-.927-.39l-.091-.093c.06-.03.13-.06.191-.084-.513-.107-.643-.253-.98-.077-.3-.23-.268-.375-.773-.429.038-.045.068-.091.099-.137-.39-.1-.773-.2-1.164-.291v-.054c.092-.023.192-.038.3-.046.006-.176.022-.123-.054-.268.367.092.72.192 1.079.276a.923.923 0 0 0 .092-.084 1.19 1.19 0 0 0-.873-.337c.015-.039.038-.085.046-.138.184.054.367.1.536.138.023-.008.038-.023.054-.03V6.01c-.43-.322-.529-.33-1.21-.299.153-.199.207-.145.49-.176 0-.015 0-.023.008-.046-.506-.368-1.241-.191-1.754-.482-.008 0-.452-.521-.528-.56-.368-.206-1.609-.467-1.846-.474.039-.046.069-.092.107-.138-.475-.215-.942-.368-1.455-.605h.398v-.045c-.237-.36-2.442.558-2.863 1.11-.145-.085.911.82.62.765-.03.046-.069.092-.1.13h-.099c.138.238 1.164.184 1.409.192.015.039.03.061.053.1-.191.092-.245-.061-.497-.008h-.092c.137.345.444.268.773.146.046.122.092.245.153.375-.222-.092-.345-.092-.635-.1.1.33.689.39 1.102.43.015-.07.039-.139.054-.192-.16-.031-.33-.07-.482-.092.022-.1.038-.192.053-.283.291.1.43.268.82.337.084.237.16.49.23.728-.766.091-1.532.184-2.306.26l-.046.092c.154.16.322.313.475.475v.046c-.536-.161-1.118-.031-1.616-.107-1.064-.184-1.868-.744-2.932-.108.023.046.046.077.054.138.304.55 1.23.336 1.843.42m-32.084 34.404c.352.291 1.394-.306 1.9-.306.221.299.688 1.47.964 1.524.398.918-.72 1.386-.605 2.09.03.023.061.03.092.046.199-.169.168-.16.115-.383.03-.03.061-.038.092-.053.092.26-.023.206.245.23-.184.137-.368.275-.544.413-.084.199.046.674.092 1.102.077.046.16.077.245.108.03-.061.061-.146.092-.207.015.038.03.061.054.1-.192.237-.207.344-.353.59.123.022.077 0 .207-.054.107.176.16.275.092.536.023.75.797.75.437 1.54.268.405 1.14.145 1.355.168 0-.605.773-1.233 1.033-1.83.338-.751.016-1.792.016-2.727.092-.03.199-.068.299-.107-.108-.682-.23-1.386-.33-2.083.245-2.65 2.366-3.3 4.488-3.936.995-.298.62-1.156 2.458-.789.459-.865 1.998-.704 2.902-.918.022-.039.038-.077.053-.1-.191-.13-.145-.061-.245-.29v-.054c.245-.16.988-.283 1.279-.276.1-.145.176-.268.253-.383-.154-.252-.506-.375-.889-.39v-.061c.322.06.628.107.942.153v.39c.031-.023.138-1.026.169-1.539-.108-.03-.207-.069-.299-.092-.145-.107-.03-.038-.046-.245-.015-.2.345-.697.505-.911-.145-.115-.015-.904.008-1.148.238-.2.467-.406.697-.613-.56.789-.276.789-.46 1.715.146.046.292.092.437.153-.284.237-.575.352-.743.72a.188.188 0 0 0-.046.084c.092.077.054.07.245.1.276-.59 1.424-.988 1.938-1.815-.314-.322-.184-.513-.284-.95.222.207.314.383.682.475-.062.084-.138.16-.2.245v.038c.759.107 1.785-.88 2.137-1.409-.061-.19 0-.091-.146-.199-.014-.038-.03-.06-.045-.1.88-.106 2.144.154 3.109.047-.084-.1-.169-.192-.245-.299-.743.107-1.402-.191-2.13-.023.874-.689 3.53.276 4.702-.168.13.314.406.29.98.314.062-.1.13-.192.2-.291-.046-.07-.092-.161-.146-.238-.115.26-.015.276-.298.276-.13-.007-.268-.038-.398-.053-.07-.3.038-.69-.49-.781v-.092c.244-.062.474-.115.711-.169-.069-.107-.137-.191-.199-.29.337-.414 1.026-.629 1.34-.935.773.153 1.271.138 2.03-.283.122.138.099.1.099.283.95-.069 1.86.008 2.864-.26-.046-.1-.092-.192-.138-.291.115-.008.62.176.78.214.751.153 2.206 0 2.834-.206.023.022.054.06.084.099-.23.061-.459.115-.689.168-.015.023-.03.062-.046.092.26.054.529.123.782.176-.942.146-1.876.299-2.818.437l-.046.092c.107-.03.222-.054.345-.085-.07.031-.139.054-.2.085-.237.298-.306.306-.306.811.092 0 .199 0 .291.008.199.268.077.436.444.444.682.03 1.325-.413 2.09-.46.093-.206 0-.237.238-.321.046.046.069.092.107.138.062-.054.13-.123.192-.184.069.314.214.314.497.398.414-.429 3.04.115 3.813-.1.03.008.062.008.1.008-.153-.16-.283-.207-.597-.214.13-.084.16-.046.245-.192.613.215 1.263.085 2.075.092v-.153c.046-.283-.398-.528-.727-.551v-.054l.398-.467c-.115-.168-.1-.077-.1-.283-.092-.03-.2-.046-.298-.07-.49.253-1.601.506-1.64 1.195-.344.046-.52.03-.543-.367-1.125.122-1.577-.452-2.511-.56l-.2-.245c.07 0 .131 0 .2.008.022-.038.03-.076.053-.1a31.88 31.88 0 0 1-.888-.36c-.153-.099-.314-.558-.437-.788l.246-.176c-.13-.123-.268-.153-.537-.16v-.093c.521-.076.758-.352 1.24-.536.031-.069.07-.123.1-.184v-.053c-.512.153-.941.061-1.676.053-.1-.352-.353-.482-.743-.55-.015-.031-.03-.062-.053-.1.673.069.91.352 1.485.42a122.65 122.65 0 0 0 1.54-.19v-.138c.153-.107.014-.115-.054-.291.077.022.138.046.199.053v-.045c-1.202-1.616-5.422-1.042-7.252-.72-.72.137-1.232.819-2.228.819.429-.406 3.017-1.379 3.829-1.631 0 0 1.623.123 1.723.1.145-.161.298-.322.444-.475.674-.352 1.653-.215 2.527.015 1.14.322 2.205.436 3.33.827.705.238 2.826 1.103 3.554.98.558-.076 1.071-.26 1.585-.475 1.194-.482 3.576.75 4.395-.153.061-.168.038-.015-.053-.237.03.015.06.038.099.054.146-.238-.008-1.027.161-1.287-.283-.107-.567-.222-.835-.322.008-.137 0-.03.047-.191-.506-.038-.544-.16-.881-.146-.1-.558-.62-.773-1.226-.85v-.053c.429.054.85.1 1.28.145-.23-.329-.774-.367-.835-.696-.406-.092-.759-.023-1.088-.238-.176-.115-.13-.13-.137-.29-.207-.146-.743-.1-.934-.269-.223-.191-.26-.367-.59-.505-.061-.207-.122-.077.053-.23-.038-.1-.903-.727-1.27-.796.137-.138.076-.084.245-.1.038-.107.022-.382.053-.75-.107-.046-.222-.107-.345-.153-.03-.015.108-.26.108-.574-.437-.176-.927-.345-.874-.873h-.245c-.29-.452-1.416-1.884-1.393-2.344-1.203.322-2.742 2.244-4.38.935-.276.023-.468-.398-.973-.498-.03-.138-.039-.268-.053-.413-.108-.024-.223-.038-.338-.054.146-.406.3-.459.26-.988a3.7 3.7 0 0 0 .544-.222c-.046-.069-.084-.153-.138-.222-.153.054-.306.115-.444.168-.322-.36-1.034-.505-1.616-.666-.007-.038-.03-.069-.038-.092v-.054c.1-.084.07-.068.245-.091v-.046c-.375-.338-1.164-.927-1.639-1.08l-1.225.023c-1.026-.345-1.975-.743-3.016-.705l-.299.276a1.344 1.344 0 0 0-.054.184c.085.122.07.122.238.184-.207.275-.475.382-.896.459.39.452.115.497.33.789-.154.16-1.325.62-1.785.635-.053.084-.1.176-.153.268.628.207 1.157.666 1.187 1.447-.52 1.126-1.707 1.317-3.116 1.554-.514.023-1.011.031-1.524.046h-.092c.039.215-.023.498.275.598-.267.505-.803 1.102-.444 1.677-.252.199-.613.46-.941.46 0 .137 0 .282-.008.42a.658.658 0 0 0-.192.054c-.015-.184-.107-.161-.191-.39-.398.053-.62.221-.88.39-.177-.092-.33-.161-.491-.238-.16-.773-.659-1.233-.988-1.945.253-.237.467-.413.659-.704-.008-.123-.03-.245-.046-.368.283-.29.59-.413.804-.796-1.004-.077-3.92-.973-4.503-1.54-.207-.183-.252-.628-.559-.857a73.828 73.828 0 0 1-1.348-.628c-.505.008-1.01.023-1.515.03h-.1c.36-.367.582-.903.873-1.332-.253-.13-.605-.145-1.018-.13 0-.069 0-.138.007-.222.957-1.11 4.035-2.244 5.345-2.167-.061-.061-.138-.138-.192-.214.476.038.996.099 1.51.03.175-.245.152-.245-.032-.459h-.1v-.03c.759.23 3.332.192 4.504-.405.16-.108.053-.046 0-.176.513-.115 1.025-.222 1.531-.338h.092c0-.007.007-.022.007-.046-.099-.076-.153-.099-.344-.122-.008-.023-.03-.062-.039-.092.338.03.682.053 1.019.084 0 .253.72.712 1.049.812.107-.108.023-.015.06-.13a.133.133 0 0 1 .047-.046c-.13.008-.061-.008-.207.046-.077-.192-.107-.207-.322-.36v-.046c.161.069.322.145.483.222a7.676 7.676 0 0 1-.038-.406c.191.13.382.268.574.398v-.13c.835-.206 1.615-.184 2.25-.36-.114-.145-.252-.275-.374-.413.038-.03-4.556-2.557-9.909-2.481-3.446.069-15.866 4.318-25.667 9.265-7.489 3.798-13.255 8.523-13.6 8.86-2.993 2.603-5.865 5.788-7.373 9.686-.184.191-.345.39-.52.597-.13.253-.988 2.496-.996 2.596.145.008.283.023.42.038-.091.659.307.666.138 1.494-.268 1.163-1.095 2.588-1.47 3.874-.069.268-.344.919-.268 1.264.085.436.253 1.025.085 1.593-.192.313-.368.635-.552.956-.23 0-.314.062-.559-.015-.015 0-.03.015-.046.015-.068.66.177 1.05.139 1.624.137-.008.091 0 .222-.077.398 1.01.207 2.137-.552 2.864.222.957.728 1.494.544 2.972v.046a.675.675 0 0 0 .1.03c.873-.911.65-.796.735-1.96-.023-.107-.061-.222-.092-.322-.085.085-.153.176-.223.268-.022.015-.038.023-.053.023-.123-.766.643-2.642.796-3.438.1-.513-.184-1.417-.046-2.03.33-1.447.49-4.578 1.693-5.49.053.107.122.214.183.314.062-.03.116-.069.184-.123.253.858-.796 2.122-.666 3.247-.268.199-.39.33-.551.62.038.03.085.077.138.123.084-.092.184-.2.275-.283-.007.283-.153 1.202.123 1.485.084.115 0 .054.153.023.03.03.061.054.085.092-.154.322-.284.498-.276 1.003.092.085.053.085.23.107-.046.207-.093.406-.138.605.076-.015.153-.023.23-.03 0 .65-.253.85-.56 1.293.085.59.345.743.598 1.18-.184.199-.176.321-.23.62.467.628 1.064 4.931.176 5.567-.214.306-.222.245-.099.536-.153.214-.245.199-.46.268-.681 1.654.79 2.09.828 3.438.1.053.206.145.321.222 0 0 5.437-.192 8.668-.26.123-.008-.237-.123-.398-.253-.138-.123-.773-3.423-.658-3.882.122-.176.23-.345.337-.529-.483-1.026.245-2.098.665-3.032.33-.804.675-1.616.996-2.427.314-.39.911-.283 1.103-.973.115-.467-.092-.888.145-1.478.215-.535.797-.697.758-1.378.314.038.858-.207.912-.475.054-.077.1-.16.153-.252.008.199.015.13-.053.298.237-.115.145-.145.283-.123.069-.084.13-.175.199-.26-.054-.068-.1-.145-.146-.214.843.077 1.463-.253 2.19-.674.445.115.284-.214.245-.459.108-.13.223-.176.391-.276a.12.12 0 0 0 .038.062c-.06.068-.13.137-.183.198.053.03.122.054.183.093.207.16.98-.253 1.44-.207.452.046 1.424.421 1.769.605.046-.008.092-.008.145-.008v-.191a5.25 5.25 0 0 0-.337-.031 1.606 1.606 0 0 0-.053-.146c.137-.038.26-.076.398-.122.038.176.314.46.467.643-.03.015-.061.038-.091.053-.031.054-.07.108-.093.161.154.107.307.238.468.353.23-.093.452-.192.68-.277.024.108.055.223.086.33.336-.092.367-.276.582-.467.199.207.352.505.62.635.046.023.1.062.145.092h.061c.062-.084.123-.176.184-.26a8.89 8.89 0 0 1-.467-.452c-.038-.023-.069-.061-.107-.092.138-.176.253-.222.536-.275.084-.168.061-.168.053-.437-.13.077-.268.146-.39.222h-.046c-.03-.053-.06-.084-.1-.145.75-.475 1.639-.36 2.42-.207.046-.13.092-.237.145-.352.054-.03.1-.061.154-.107-.016.207-.016.429-.016.628 1.095.13 1.9-.299 2.71.559.198.214.19.574.282.666"/><path d="M163.934 5.514c-.222.076-.43.152-.643.222-.023.084-.038.16-.054.237v.046c.345.176 1.386.398 1.853.146.1-.092.2-.176.291-.276v-.145c-.459-.108-.811-.23-1.447-.23M166.515 5.666c.084.1 0 .039.138.1-.046-.038-.092-.061-.138-.1M158.497 7.596a1.614 1.614 0 0 0-.865-.168c.054-.123.1-.253.153-.368-.382-.245-1.148-.467-1.393-.827-.176-.168.015-.399-.276-.536-.038.046-.068.092-.1.137-.895-.091-1.914.36-2.182.958-.46-.008-.88-.008-1.118.184.253.19.927.13 1.263.138l-.206.137c-.046.092-.1.184-.146.276.712.13 1.861-.077 2.351-.375.275.076.544.153.82.23-.077.023-.161.053-.246.092.46.39 1.264.398 2.145.367-.062-.084-.123-.153-.2-.245"/><path d="M156.063 6.11a2.473 2.473 0 0 1-.154-.145c-.03.1-.06.192-.099.268.115-.038.23-.076.345-.122h-.092zM169.065 7.726c.176-.107.13.016.1-.176-.613-.022-.506-.283-.973-.383-.107.07-.23.123-.345.177.084.206.084.23-.007.406.635-.023.834.022 1.416.13-.061-.047-.13-.093-.191-.154M173.222 7.336c-.015.023-.03.053-.046.077h.092c-.015-.024-.023-.054-.046-.077M169.363 7.696c.077.091 0 .022.146.091-.054-.03-.1-.068-.146-.091M155.274 7.887c-.268.084-.536.153-.789.222.008.108.015.215.03.322.744-.077 1.425-.03 2.068-.223a.424.424 0 0 0 .046-.1 71.372 71.372 0 0 0-1.355-.22M160.795 7.933v.138c.1.007.221.007.344.007v-.045c-.122-.039-.23-.062-.344-.1M167.916 8.699c-.122-.284-.483-.445-.812-.528.008.107.024.221.03.321h-.435c.007.03.038.061.053.092.483.06.88.122 1.256.252l-.092-.137M159.952 8.208c-.015.039-.038.062-.053.092.114.092.221.184.337.276.153.015.298.023.444.046.015-.023.03-.03.046-.046 0-.039 0-.092.008-.146-.26-.068-.521-.152-.782-.222M161.515 8.354c-.161-.038-.33-.061-.483-.092.085.207.214.245.383.368h.191c.016-.023.039-.054.046-.092-.046-.069-.084-.13-.137-.184M157.985 8.76c-.161.054-.33.107-.49.169-.039.076-.07.13-.108.19.053.07.092.154.138.238.367.054.559-.153.888-.23.053-.06.107-.122.153-.198-.168-.093-.275-.161-.581-.169M165.412 9.028c-.008.038-.008.061-.008.1.054-.016.108-.039.161-.046v-.046c-.046 0-.107 0-.153-.008M163.153 9.388c.1.138.222.16.39.222h.192c-.122-.115-.36-.184-.582-.222M187.334 10.483c.077.1 0 .023.154.1-.092-.1 0-.039-.154-.1M158.191 10.138c.039.03.062.054.092.092h.291c0-.023.008-.038.008-.054-.13-.007-.253-.03-.39-.038M206.095 13.821c-.383.107-.551-.138-.88-.337-.085.008-.169.023-.253.03.06.047.107.1.16.154-.543.115-1.202-.245-1.76-.383-.024.015-.03.039-.047.046.023.061.054.146.092.207-.237-.184-.428-.36-.78-.429v.053c.107.093.191.192.29.3v.045c-.26-.084-.214-.122-.39.039-.56-.468-1.011-1.065-1.953-1.172.092.084.161.168.253.26-.138-.053-.26-.123-.406-.16-.122.091-.253.199-.383.321a.326.326 0 0 0-.053.084c.643.153 1.279.322 1.914.475-.313.23-.65.138-1.18.038-.014.015-.03.046-.045.061l.046.092c.888.215 1.248.46 1.86.766.016.038.031.077.047.107-.154-.053-.322-.084-.483-.122-.023.015-.038.03-.062.045.039.062.077.146.1.2 1.333.352 4.58 1.975 5.705.689v-.046c-.575-.375-1.424-.934-1.792-1.363M166.928 11.563v.107c.039-.046.061-.077.107-.107h-.107zM171.492 11.83c.092.13.054.108.237.153v-.045c-.092-.077-.061-.07-.237-.108M172.617 12.053c-.137-.046-.267-.07-.39-.107-.069.168-.008.145-.337.13 0 .015-.008.03-.008.045.138.169.376.322.628.399.085-.062.168-.13.245-.192a68.025 68.025 0 0 0-.138-.275M168.78 12.343c-.083-.03-.16-.038-.236-.053a.467.467 0 0 0-.153.1.962.962 0 0 0-.1.13c.168.13.437.091.69.053.014-.023.03-.061.046-.084-.077-.046-.161-.1-.246-.146M244.833 54.45c-.245-.49-.483-.995-.713-1.508.046.077.085.146.138.215.031.015.054.03.092.053v-.1c.061-.237-.23-.55-.382-.757.03-.016.076-.023.099-.031.1.107.222.222.344.352.008 0 .032.016.039.016-.084-.207-.161-.406-.245-.613.192.176.353.352.536.528-.238-.536-.88-1.63-1.44-1.868.077-.2 0-.115.192-.069-.168-.628-1.11-1.187-1.202-2.121.015 0 .038.007.046.007.084.513.459.376.674.598h.061a27.79 27.79 0 0 1-.582-.827c.092-.07.184-.146.283-.223.238-.153.406.36.72.36.03.215.053.23.084.452.053-.59-.015-1.347-.1-1.554-.252-.291-.429-.72-.65-1.095-.743-1.233-1.271-2.243-1.823-3.652-.138-.353-4.602-7.313-10.284-12.642-5.873-5.49-12.979-9.342-12.88-9.366-.152.169-.26.314-.52.39.03.307-.03.307.099.499-.152.061-.253.13-.428.214.176.268.42.437.59.65.037.177.076.338.107.506.452.674 1.378 1.01 1.738 1.83.245.054.222-.007.383-.114.077.183.145.39.214.597.245.306 1.523 1.041 2.006.743.222-.123.245-.475.138-.758.092-.054.191-.093.283-.138-.038-.07-.061-.146-.092-.222v-.054c1.363.65 2.044 2.35 3.492 2.933.06.176.137.345.198.513-.214.076-.26.23-.375.39.26.36.582.636 1.026.835-.13.191-.092.092-.344.023 0 .023 0 .038.008.046.107.176.207.245.39.345.1.007.192.015.276.015v-.368c-.13-.138-.291-.429-.528-.536 0-.16-.03-.046.092-.168-.1-.115-.207-.238-.291-.337.26.145.413.345.543.62.184.008.375.031.582.031.016.008.023.008.047.008v-.146c-.146-.153-.268-.321-.399-.475.07-.13.062-.061.046-.222.168.015.36.046.529.07-.062-.123-.13-.246-.2-.376.1.085 2.06 1.838 1.961 1.9-.268.137-.207.267-.138.55a2.866 2.866 0 0 0-.237.077c-.33.39-.43.022-.82-.008-.168-.168-.091-.069-.053-.237-.153-.123-.299-.268-.444-.383 0 .084.008.191.008.268-.1-.015-.193-.038-.291-.061.06.283-.07.176-.147.536-.068-.015-.16-.038-.229-.054-.1-.107-.153-.36-.161-.467-.099-.115-.061-.1-.245-.153.039.054.062.13.108.192-.399.007-.705-.322-.973-.551-.115-.03 0-.023.038-.093-.13-.122-.2-.168-.444-.206-.007-.039-.03-.061-.038-.092a.85.85 0 0 1 .038-.092c.322.192.658.398.98.59-.192-.429-.658-1.072-1.171-.92-.123-.137-.169-.497-.307-.703.07.045.123.068.2.107.015-.069.022-.154.037-.222-.452-.52-1.087-.797-1.34-1.524-.1.046-.183.092-.275.137.03.123.069.269.099.399-.069 0-.13 0-.199-.008-.068.046-.16.085-.23.123.162.865 1.93 2.198 1.83 2.588.115.023.23.046.337.077.2.337.414.528.644.896-.184.076-.123-.023-.092.275-.3-.1-.353-.138-.728-.13v.23c-.222.023-.452.054-.666.061-.039.077-.077.154-.1.222.07.123.13.223.192.33.199.092.153.092.344.022.123.268.23.322.208.56-.139.168-.04.091-.246.038-.015-.008-.038-.008-.053-.008.046.345.038.406.198.613a5.728 5.728 0 0 0-.382-.062c-.161-.49-.337-.972-.498-1.454a.313.313 0 0 0-.115-.046h-.03c.152.643.696 1.677.306 2.044-.253.238-.75.284-.965.567.145.306.268.605.398.903-.153.153-.253.214-.528.268-.123.16-.245.314 0 .467-.039.046-.092.1-.138.146-.598.122-1.27-.399-1.715-.56a.128.128 0 0 1-.046.047c.276.405.643.643.788 1.156.062.038.108.1.154.137v.046c-.39-.053-.613-.115-.881.1-.184-.153-.39-.291-.59-.444-.321.176-.85.107-1.125.39h-.092c.084.414.382.368.643.575-.108.015-.207.038-.3.053.522.475 1.295.353 2.015.62.03 0 2.32 2.145 2.35 2.252a4.755 4.755 0 0 1-.252-.2.068.068 0 0 1-.046.047c.582.796 1.218 1.96 1.218 3.469-.85.314-2.826-.238-3.936-.383-.298-.03-1.034.299-1.478.153-.214-.084-.306-.26-.643-.184-.26-.061-.405.237-.291.475-.237.069-.536.1-.628.276a.985.985 0 0 0-.2.122c.016.498.315.46.383.835.138-.03.1-.03.246-.107.107.835.597 1.424.88 2.213.253.696.108 2.764-.038 3.453.222.184.33.33.528.559.092-.061.192-.115.291-.176.253.65.428 1.324.398 2.358.452-.168 1.019.1 1.263.015.177-.053.26-.267.56-.336.827-.375 1.232 1.623 2.143 1.784.184-.192.889-.866.95-1.034.658-.015 1.11-.1 1.646.069.038-.07.069-.138.107-.207.26.023.284.054.429.168.153-.329.283-.942.406-1.225.168-.077.23-.092.536-.092.015-.283-.191-.712-.023-1.217.085-.284.307-.299.39-.659-1.477-1.003-.145-2.266-.558-3.062.283-.368.52-.246.873-.506.215-.153.444-.612.636-.811-.085-.537-.912-1.31-.72-1.884.068-.161.299-.268.39-.468.743.246 1.21.567 1.86.812.315-.29.238-.865.828-.957.038-.214.092-.444.138-.666 0-.038-.008-.069-.008-.092 1.317.214 2.083 2.014 2.749 2.925 0 0 1.83 1.753 1.9 1.8.045.03.244-.078.436.045.107.184.222.383.33.574 1.408 1.302 1.822 1.7 2.426 3.722-.145.076-.436.115-.566.36-.483-.023-.483-.077-.78-.314-.07.092-.055.061-.086.237-.068-.061-.13-.107-.199-.16-.007 0-.03-.008-.046-.008-.023.222-.068.452.046.65.092.154 1.854 1.563 2.06 1.655h.054c-.108-.735-.483-1.118-.483-2.03.108.085.192.146.291.223h.038c.108-.39.016-.866-.122-1.195.03-.26.008-.191.183-.275-.153-.62-.467-.69-.758-1.103-.092-.368-.191-.75-.298-1.118.038-.03.077-.054.107-.084.2.306.751.88 1.057 1.08-.26-1.057-1.302-1.96-2.213-2.412-.107-.192-.137-.322-.13-.651-.298-.154-.528-.03-.827-.276-.697-.574-1.011-1.478-1.57-2.205-.482-.613-1.386-.858-1.63-1.708.015-.107.046-.222.06-.33-.114-.267-.397-.32-.49-.673.268-.046.253-.122.376-.306.069.015.13.023.207.023.176.23.528.903.658 1.225.038.015.077.023.1.054.007-.108.038-.23.045-.33.092.169.168.33.245.506.054.038.084.076.146.107-.069-.16-.13-.314-.183-.444.444.16.62.95.85 1.225.344.437.872.674 1.187.995-.054-.015-.116-.045-.177-.068.123.23.215.29.329.482.085 0 .16.016.237.023a2.041 2.041 0 0 0-.237-.222c.038-.015.062-.03.093-.038.099.069.207.145.298.222.015.038.03.061.038.1-.1.03-.192.046-.283.069.207.214.168.015.421.145.536.26 1.409 1.172 1.738 1.677.246.712.528 1.416.805 2.129.321.613 1.064 1.233 1.332 1.884.145-.008.015.015.145-.031.016.054-.115.268 0 .482.138.207.43.498.766.552-.069.267-.092.199-.092.582.337.475.666.942.858 1.577a.52.52 0 0 1 .145.107h.047c-.04-.107-.054-.245-.085-.352.016 0 .031 0 .046.015.1.238.215.49.337.743.023.015.054.03.085.054-.031-.13-.062-.253-.085-.398.085.122.177.252.283.36h.047zM151.139 16.034c-.253-.145-.597-.199-.98-.23-.077.03-.161.062-.253.1.145.275.88.505 1.225.597h.038c.062-.214.023-.29-.03-.467M175.298 17.466c.092.161-.031.054.153.146h.046c.023-.031.03-.061.053-.092-.084-.016-.176-.038-.252-.054M177.886 19.794c.038.046.069.092.1.138.014 0 .03 0 .053.008v-.054c-.054-.03-.1-.061-.153-.092M176.254 20.636c-.114.03-.23.054-.352.084-.038.33-.046.093-.137.284.673-.03 1.324-.13 1.906-.169a78.798 78.798 0 0 0-1.417-.199M179.448 21.624c0 .138-.047.061.046.192a.635.635 0 0 1 .153-.092v-.054a.918.918 0 0 0-.2-.046M169.218 23.225c-.016.03-.03.053-.046.091 1.11.69 1.876 1.28 3.338 1.724.039-.016.07-.03.1-.039v-.137c-.773-.683-2.09-1.563-3.392-1.64M181.554 24.006c-.016.053-.039.1-.054.145.176-.084.069.03.153-.137-.03 0-.069-.008-.1-.008"/><path d="M222.972 33.217c-.23-.015-.46-.046-.682-.06.1-.208.353-.53.268-.843-.108-.475-.98-1.432-1.509-.827-.045-.008-.098-.031-.16-.054-.292-.605-.773-1.348-1.524-1.83-.306-.13-.597-.253-.896-.368-.797-.758-1.171-1.355-2.381-1.37.13-.1.26-.184.398-.276a2.61 2.61 0 0 0-.253-.192c.192-.39-.038-.696.038-1.064-.436-.444-1.255-.321-1.83-.207 0-.275.093-.168-.145-.275.061-.222.153-.36.33-.467-.031-.107-.07-.222-.1-.33-.506-.107-.996.108-1.478-.045-.108.13-.092.16 0 .329-.077.199-.046.222.115.421-.039.015-.077.03-.108.046-.168-.023-.084-.046-.192.092.093.16.192.322.3.483v.045a41.818 41.818 0 0 1-.644-.467c-.107.192-.054.077-.207.299.26.245.797.429 1.049.444.039.069.077.123.108.199-.092.046-.168.1-.253.145.108.246.192.246.153.521.161-.015.329-.046.49-.061.023-.077.038-.16.053-.23v-.1c.024 0 .031-.007.047-.007.083.536.367.904.513 1.47h.199c.015-.03.03-.069.045-.1-.03-.084-.068-.16-.099-.237l.299.184h.046c-.054-.153-.1-.322-.153-.467.137.092.268.184.398.275.114.215.107.43.015.713.146.122.298.245.437.375h.069a6.364 6.364 0 0 1-.123-.192v-.045c.16.06.307.115.46.183v-.191c.32.123.443.046.688-.146.33.406.192 1.057.996.935.008.398.107.536.245.789-.383.314-.766.091-1.172.015.054.314.161.26.352.429-.076.069-.137.153-.207.237l.062.085c.13-.054.253-.1.383-.146.138.176.283.344.406.513-.053.306-.314.437-.635.482-.046.047-.1.1-.146.154.16.137.337.267.505.413.513-.268.988.07 1.562.268.13-.061.268-.138.399-.192-.077.161-.062.146-.046.338h-.988c.007.436-.284.926-.666 1.294v.099c.252.015.282-.023.55.13.123-.191.054-.345.422-.436.26-.077.536.076.788.138.016-.169-.045-.483.1-.575 0 0 1.554.122 1.616.16h.145a7.076 7.076 0 0 0-.107-.244c.75.03 1.118.015 1.707-.283.008-.023.031-.061.046-.092-.038-.108-.06-.192-.098-.284M184.478 29.748c-.237-.06-.275.154-.688.215a1.526 1.526 0 0 0-.039-.199c.138-.192.291-.33.536-.413a.266.266 0 0 0 .054-.092.182.182 0 0 0-.054-.054c-.612.031-.735.169-1.087.437-.03-.07-.061-.138-.1-.207-.122-.03-.03.046-.137-.053.337-.3 1.041-.483 1.179-.62.03-.024.069-.062.107-.085-.214-.2-.735-.16-1.088-.2.116-.313.008-.084-.053-.482.283-.054.39-.1.551-.268-.32-.29-.85-.59-1.286-.505-.2-.192-.03-.314-.337-.444-.145.061 0 .091-.16.046-.031.13-.047.076.06.191-.1-.007-.198-.007-.298-.015-.283.015-.183.03-.153-.238-.245.023-.146-.03-.191.123-.184-.1-.291-.16-.49-.153.03-.053.06-.107.091-.153-.183-.092-.061-.054-.237-.008-.03-.038-.077-.06-.107-.1v-.19c.198-.016.398-.023.589-.032v-.045c-.291-.215-.628-.215-.934-.475-.298.115-.59.237-.881.352.138-.483.996-.926 1.478-1.034.07-.084.138-.168.207-.237-.145-.115-.145-.138-.39-.169v-.092c.252.069.428.146.689.123a.518.518 0 0 1 .1-.084.436.436 0 0 1 .046-.146c-.269-.084-.537-.153-.789-.23-.298.008-.598.008-.888.016-.192.038-.712.344-.996.49-.528.252-.743.934-1.432 1.087-.092.184-.084.138-.007.337v.046c-.192-.038-.146 0-.246-.1-.305.07-.474.284-.642.49.091.093.19.184.298.253-.413-.069-.919.177-1.393.245.038.146.068.322.1.467.81.215 4.12.881 4.387 1.164-.061-.008-.13-.008-.192-.015.33.137.659.268.988.39.077-.092.061-.061.092-.237.215.084.43.176.643.268a3.45 3.45 0 0 1-1.531.23c-.023.053-.038.122-.053.183 1.04.39 1.875-.091 2.764-.352.077.077.138.168.207.253-.015.398-.253.544-.498.697.069.199.038.153.192.252.229-.061.467-.145.689-.207-.093.176-.13.253-.146.575.268.068.475.1.735.184.368-.184.475-.56.804-.797-.024-.122-.04-.26-.063-.383M212.213 25.192l-.26-.046c-.123.115-.253.23-.383.337.138.177.23.23.245.39.054.024.1.055.145.093.116-.1.238-.2.353-.291a5.4 5.4 0 0 1-.1-.483"/><path d="M181.048 25.047v.092c.038-.03.07-.054.1-.092h-.1zM211.96 26.058c-.053-.023-.122-.062-.191-.092-.061.038-.138.069-.192.1.168.176.276.321.414.574.03.007.084.023.137.038a21.053 21.053 0 0 0-.168-.62M181.002 25.238c.046.054.092.1.146.154.03-.03.069-.039.107-.054v-.046c-.092-.015-.169-.038-.253-.054M224.289 26.831c.03.053.06.1.1.146h.045c-.091-.161.023-.047-.145-.146M212.864 26.663c.061.068.108.13.153.184.016-.023.03-.054.053-.085a1.775 1.775 0 0 1-.206-.1M211.983 26.731v.1c.039-.03.093-.038.146-.054v-.046h-.146zM212.98 27.1c-.017.007-.04.03-.055.045v.046c.016.015.038.03.054.046h.046a.414.414 0 0 1 .046-.138h-.092zM212.772 27.237v.146h.107c-.069-.146 0-.054-.107-.146M176.156 26.38c-.1 0-.193-.008-.284-.008a.29.29 0 0 0-.115.046c-.015.045-.03.084-.046.138.23.03.46.053.69.076-.077-.084-.162-.169-.245-.253M182.625 26.9c-.015.069-.038.122-.06.2.137 0 .275.007.405.014-.092-.222-.07-.176-.345-.214M213.974 27.65c-.122.192-.153.26-.398.337.085.269.146.2.353.322.137-.123.199-.467.045-.659M213.622 27.704c-.023.008-.038.03-.046.046v.046a.492.492 0 0 1 .1.046c.015-.023.022-.038.046-.046-.039-.038-.061-.061-.1-.092M169.034 27.23c-.184-.108-.1-.009-.153-.253-.23-.215-.123-.13-.046-.437a.497.497 0 0 1-.138-.054c-.184.092-.368.153-.552.23a.926.926 0 0 1-.045.085c.52.475.988.75 1.715 1.018.16.1.061 0 .1.153.122.138.19.168.398.26.451-.092.382-.33 1.04-.306.009-.015.032-.023.047-.046v-.061c-.33-.13-2.366-.59-2.366-.59M214.664 28.018h-.108v.2c.077-.032.145-.047.207-.062-.038-.046-.062-.092-.1-.138M214.985 30.246a.392.392 0 0 1-.046-.1c.307-.099.283-.237.483-.344v-.23c-.345-.337-.652-.337-.957-.796-.36-.176-.644-.107-.935.13.031-.115.016-.061.1-.207a8.706 8.706 0 0 1-.452-.176c-.13.16-.406.23-.735.268-.053.322-.038.322-.199.543.183.146.375.123.605.07-.092.245-.184.176-.2.398-.443 0-.888.007-1.347.015.038.283.092.107.207.283l-.145.061c.183.184.367.169.65.153-.176.184-.199.215-.352.368.398.513.72.207 1.301.36-.329.222-.237.23-.245.559-.221.214-.199.13 0 .29-.13.223-.084.085-.046.353-.137-.015-.267-.023-.39-.03-.046.091-.069.168-.108.252.192-.03.36-.061.544-.084-.115.076-.23.153-.337.214.59 1.424 2.657-.406 3.56-.375-.037-.635-.313-1.653-.956-1.975M183.261 28.049l-.046.137c.046-.023.092-.03.138-.038-.023-.038-.061-.069-.092-.1M227.811 29.205c.038.069.061.153.092.23.13.046.23.084.345.123-.123-.208-.185-.261-.437-.353M164.126 28.125c-.046.07-.092.13-.146.184.03.023.061.038.092.054.138-.108.123-.031.207-.238h-.153zM167.778 28.332c-.015.06-.03.13-.054.191.054.039.108.07.161.108.291-.039.59-.092.889-.13a45.24 45.24 0 0 1-.996-.17M216.217 29.603c-.046.1-.068.192-.099.299.016.03.03.076.046.13.093-.015.161-.031.253-.054.015-.046.03-.1.045-.137-.084-.085-.168-.154-.245-.238M161.01 28.194c-.031.153-.04.107.053.238.03-.03.07-.069.1-.092a2.707 2.707 0 0 0-.154-.146M173.07 28.707h-.1c-.008.038-.03.061-.046.092.145-.015.245.061.145-.092M161.307 28.393v.1a.595.595 0 0 1 .093-.1h-.093zM172.924 28.853c-.077-.008-.169-.008-.246-.023a3.11 3.11 0 0 1-.298.191c.2.008.39.016.59.031V29c-.015-.047-.03-.108-.046-.146M179.257 29.113c.022.061.06.123.091.207.039-.047.07-.07.1-.108-.061-.03-.123-.06-.191-.099M182.418 29.312c-.076.038-.137.092-.198.13-.023.046-.031.092-.054.146h.146c.092-.046.168-.077.253-.123v-.153h-.147zM164.715 28.822c.085.038.015.038.092 0h-.092zM179.249 29.35c-.016.039-.03.062-.046.1.046.023.1.03.145.061a.559.559 0 0 0 .1-.054 5.481 5.481 0 0 1-.2-.107M179.448 29.511v.092c.038-.03.069-.053.092-.084-.023 0-.054-.008-.092-.008M228.7 30.82c.106.054.198.108.282.153v-.045c-.106-.1-.1-.054-.283-.108M225.223 31.18a.294.294 0 0 0-.046.084c.146-.045.053 0 .146-.084h-.1zM224.702 31.425c-.015.039-.038.062-.053.1a.137.137 0 0 1 .053.046l.092-.092v-.046c-.039 0-.061 0-.092-.008M224.595 31.755c0 .038 0 .076.015.122.03 0 .054.016.092.016-.061-.138 0-.062-.107-.138M158.276 30.239v.092c.03-.03.06-.054.1-.092h-.1zM156.437 30.445c-.014.046-.03.092-.045.13.069-.091.084-.022.045-.13M157.326 30.844c-.076.022-.16.053-.253.091v.085c.177.023.33.038.498.061v-.046c-.1-.145-.046-.13-.245-.191M154.608 30.89c-.031.015-.061.038-.1.045v.039c.085-.023.168-.046.253-.077-.054 0-.1 0-.153-.007M155.894 30.905c.084.046.008.046.1 0h-.1zM155.297 30.943l.099.1h.054c-.092-.1 0-.039-.153-.1M157.962 31.188c-.016.038-.031.061-.046.1.076.022.168.06.245.099h.053a.381.381 0 0 0 .039-.1c-.093-.076-.085-.076-.291-.1M103.304 34.572c-.169.544-.376.904-.475 1.417.023 0 .038-.008.046-.008.23-.39.774-.811.429-1.409M102.507 36.372c.146-.107.07-.061.092-.16-.03.053-.053.106-.092.16M147.241 37.153c-.015.038-.03.061-.046.092h.138c-.03-.03-.061-.054-.092-.092M101.657 40.27c-.045.23-.107.467-.145.704.008.03.03.06.038.092.031-.008.046-.008.062-.008.06-.237.115-.482.176-.712-.038-.023-.085-.038-.13-.076M235.353 41.617c.054.061.108.138.154.207v-.153c-.046-.016-.1-.038-.154-.054M120.219 40.744c-.038.077-.061.138-.092.2.092-.108.13-.07.092-.2M124.783 40.652c-.169.146-.307.161-.39.406.321.03.52-.015.81 0v-.046c-.137-.122-.275-.253-.42-.36M118.871 41.334c-.03.054-.061.1-.092.145.061-.038.123-.076.184-.107-.03-.023-.061-.023-.092-.038M237.711 44.742v.16h.093c-.069-.153 0-.053-.093-.16M233.883 44.542c.046.107.092.23.146.353-.1.053-.2.107-.291.176.007.62.444 1.416.85 1.654.03.038.061.06.1.1h.045c-.015-.705-.367-2.007-.85-2.283M234.603 44.802a.228.228 0 0 0-.1.039v.137c.085.016.154.023.238.023-.07-.152-.031-.106-.138-.199M99.284 47.69c-.007.03-.03.06-.046.1.046.06.092.114.138.167h.038c-.015-.237.015-.198-.13-.268M236.203 50.201c-.168-1.126-.65-2.32-1.233-3.101-.038-.015-.091-.046-.145-.07-.023.154-.061.3-.1.453-.19.107-.13.115-.383.015.039.567.613 1.095.805 1.562.175.36.045.804.153 1.08.198.115.237.283.62.345-.023-.13-.03-.276-.046-.407.114.016.13.031.276.123h.053zM242.727 48.195v.207c.046.03.1.061.146.107-.046-.215-.031-.184-.146-.314M243.156 48.585c.031.062.061.123.092.2h.061c-.084-.184 0-.1-.153-.2M242.82 49.09c.022.077.06.162.099.253-.077-.06-.13-.115-.192-.16.062.1.115.199.192.298.046-.046.092-.084.145-.122-.092-.1-.168-.192-.245-.268M243.348 49.328v.138c.061.061.122.123.199.168v-.199c-.077-.038-.138-.068-.2-.107M241.663 49.818c.069.092.138.169.2.253a.527.527 0 0 0-.2-.253M243.822 50.829v.145c.07.031.13.085.2.115-.07-.1-.13-.168-.2-.26M220 50.07c.008.093.031.17.047.269.015-.1.038-.176.053-.276-.038.008-.069.008-.1.008M242.62 51.518v.383c.061.061.1.115.153.168.046.023.092.039.138.054a.386.386 0 0 0 .038-.084 18.731 18.731 0 0 0-.329-.52M243.539 51.786c-.069-.015-.123-.046-.2-.061.146.145.3.268.437.421.024-.03.062-.054.1-.092-.115-.092-.222-.184-.337-.268M242.957 52.33c.015.061.038.123.054.199.053.061.122.107.191.16v-.206c-.084-.046-.153-.1-.245-.153M110.854 52.391v.39c.061-.007.13-.007.184-.015v-.054c-.054-.153-.062-.23-.184-.321M244.787 54.604c.046.1.1.199.13.299.023-.039.046-.07.069-.1-.084-.061-.137-.138-.2-.2M174.333 137.478c-.016.062-.03.13-.046.2a3.26 3.26 0 0 1 .245-.2h-.2zM172.77 137.562c-.046.039-.1.07-.153.1.03.038.07.061.107.1h.238v-.046a3.23 3.23 0 0 0-.191-.154M173.161 137.617v.1c.03-.04.061-.062.1-.1h-.1zM165.366 142.325c-.015.054-.03.1-.038.161.091-.1.03 0 .084-.16h-.046zM165.267 142.586c-.008.038-.031.092-.039.145.031-.038.062-.076.093-.107-.016-.008-.032-.03-.054-.038M161.729 145.297c-.23.038-.46.06-.682.092-.26.597-.865.903-1.363 1.24v.053c.092.04.168.07.245.108a2.343 2.343 0 0 0 1.072-.452c0-.084 0-.168-.008-.245.322-.046.52-.2.735-.352v-.444zM134.882 147.211c.1.046.015.053.107 0h-.107zM134.714 148.658c-.015.038-.038.062-.054.1.039.015.07.038.1.053.023-.015.03-.038.046-.053-.023-.039-.061-.062-.092-.1M147.157 152.127c.054.245.038.306.245.39v-.038c-.084-.191-.007-.253-.245-.352M136.406 153.367c.085.146.008.016.154.1.015-.016.03-.039.046-.046v-.054h-.2zM135.541 154.508c-.1-.084-.092-.084-.299-.1.046.054.07.1.107.146h.2c0-.023-.008-.03-.008-.046M135.602 155.442v.154h.138c-.046-.046-.092-.1-.138-.154M136.092 156.14c-.015.03-.03.06-.045.099h.099c-.023-.039-.031-.07-.054-.1M140.518 163.552c-.015.015-.03.037-.045.053.03.038.077.069.107.107.038-.023.091-.038.138-.053-.062-.039-.13-.07-.2-.107M141.399 164.003a1.904 1.904 0 0 1-.146-.053c-.091.061-.199.122-.29.199.306.038.428.122.535-.146h-.099zM142.578 164.003a2.577 2.577 0 0 1-.253-.053.947.947 0 0 1-.153.053c.038.008.076.031.107.047.046.046.1.099.138.145.07-.03.13-.077.207-.1-.016-.038-.03-.061-.046-.092M143.014 164.777v-.046c-.39-.031-.566-.023-.834-.192-.047-.33 0-.444-.338-.536.077.36.184.758.146.98.061.007.1.023.153.046.039-.115.092-.237.138-.344a.24.24 0 0 0 .1.046c.092.237.222.428.436.536-.077-.115-.16-.223-.245-.338v-.053c.153-.038.291-.061.444-.1M142.24 165.512c.016.03.032.06.055.107a.35.35 0 0 1 .038-.107h-.092zM145.304 166.538c-.015.183-.054.077.153.145-.053-.046-.107-.092-.153-.145M146.72 166.591c.115.161.36.146.583.192a.375.375 0 0 0 .045-.1l-.627-.092M144.913 166.683c.108.245.253.33.544.383a1.197 1.197 0 0 0-.544-.383"/><path d="M166.14 0c-36.824 0-68.426 22.336-81.987 54.221 12.505-22.275 38.96-49.006 81.925-48.968 38.823.038 67.836 23.385 82.063 49.022C234.595 22.367 202.986 0 166.14 0M251.074 116.084c-11.54 35.3-43.991 62.767-85.126 62.767-43.63 0-72.943-27.1-84.727-62.017 12.259 32.528 45.591 55.852 84.781 55.852 39.504 0 73.05-23.69 85.072-56.602M350.174 111.643c-.314 1.417-1.386 2.297-2.734 2.297-1.975 0-3.246-1.44-3.246-3.354 0-1.953 1.21-3.33 3.216-3.33 1.378 0 2.519.765 2.734 2.22h-.912c-.168-.82-.85-1.417-1.822-1.417-1.432 0-2.22 1.095-2.22 2.496 0 1.371.872 2.58 2.25 2.58.973 0 1.654-.635 1.792-1.492h.942zm-2.902 3.606c2.527 0 4.472-2.021 4.472-4.694 0-2.611-1.945-4.632-4.472-4.632-2.558 0-4.518 2.021-4.518 4.632 0 2.673 1.96 4.694 4.518 4.694m0-10.122c2.979 0 5.468 2.343 5.468 5.428 0 3.155-2.49 5.498-5.468 5.498-3.01 0-5.513-2.343-5.513-5.498 0-3.085 2.503-5.428 5.513-5.428"/></g></svg>
