<?xml version="1.0" standalone="no"?>
<!DOCTYPE svg PUBLIC "-//W3C//DTD SVG 20010904//EN"
 "http://www.w3.org/TR/2001/REC-SVG-20010904/DTD/svg10.dtd">
<svg version="1.0" xmlns="http://www.w3.org/2000/svg"
 width="300.000000pt" height="300.000000pt" viewBox="0 0 300.000000 300.000000"
 preserveAspectRatio="xMidYMid meet">
<metadata>
Created by potrace 1.11, written by Peter Selinger 2001-2013
</metadata>
<g transform="translate(0.000000,300.000000) scale(0.100000,-0.100000)"
fill="#000000" stroke="none">
<path d="M1280 2983 c-418 -62 -792 -300 -1030 -656 -104 -156 -198 -390 -225
-558 -3 -19 -9 -59 -14 -89 -16 -98 -6 -354 18 -466 41 -199 128 -407 230
-552 l52 -72 61 42 c33 24 70 50 82 58 47 32 210 164 258 208 180 164 325 338
392 470 l25 50 -21 18 c-31 28 -110 133 -144 189 -63 104 -100 230 -103 345
-8 294 222 642 476 720 86 26 224 22 303 -10 145 -58 287 -204 365 -375 15
-33 32 -68 37 -78 21 -42 46 -190 43 -259 -6 -182 -98 -384 -234 -517 -17 -17
-31 -34 -31 -39 0 -15 81 -144 139 -222 75 -100 261 -285 396 -393 100 -80
306 -227 319 -227 12 0 140 205 180 290 102 218 139 384 140 630 1 269 -41
453 -152 675 -217 435 -606 724 -1097 816 -94 17 -356 19 -465 2z"/>
<path d="M1355 2413 c-69 -15 -90 -74 -63 -178 19 -74 123 -291 162 -340 l23
-29 36 60 c86 142 157 315 157 380 0 88 -40 112 -189 112 -58 0 -115 -2 -126
-5z"/>
<path d="M1455 977 c-28 -32 -113 -137 -140 -171 -16 -21 -59 -75 -95 -120
-36 -44 -124 -155 -196 -246 -72 -91 -150 -189 -174 -218 l-42 -52 74 -34 c71
-32 210 -82 253 -90 11 -2 56 -12 100 -21 106 -23 360 -28 481 -9 182 29 445
119 428 146 -8 12 -174 221 -460 577 -98 123 -184 229 -190 237 -14 17 -26 17
-39 1z"/>
</g>
</svg>
