<svg xmlns="http://www.w3.org/2000/svg" viewBox="0 0 800.123 848.724" height="1131.632" width="1066.83"><path d="M640.986 0c-1.31-.002-2.618.012-3.922.042-158.33-.01-316.67.001-475-.009-14.7-.3-29.46 1.58-43.22 6.95-13.85 5.46-26.6 13.44-36.98 24.18-19.46 19.49-30.3 46.69-29.98 74.2.05 52.97.01 106.03.02 159.01-.02 6.66 2.61 13.15 7.56 17.66 3.71 3.91 9.12 5.68 14.31 6.5 7.39.13 14.75-2.04 19.87-7.6 4.88-5.06 6.53-11.68 6.54-18.55 0-51.64.01-103.39-.01-155.02-.07-6.74.25-13.35 2.41-19.78 5.45-17.99 20.35-32.41 38.52-37.24 8.05-2.35 15.71-1.73 23.96-1.8h473c5.84.04 11.3-.28 17.03.89 13.67 2.64 25.99 10.49 34.19 21.73 5.15 6.99 8.52 15.17 10 23.7.78 5.03.66 10.41.66 15.5-.02 84.98.03 169.96-.02 254.95-99.02 64.04-198.03 128.09-297.05 192.12-98.49-62.78-196.92-125.71-295.39-188.52-21.21-13.42-42.16-27.21-63.35-40.66-5.4-3.4-10.33-7.17-16.96-7.56-10.16-1.2-21.58 4.61-25.35 14.39-2.5 5.07-1.66 9.84-1.76 15.28v392c-.98 26.48 9.37 53.26 27.39 72.6 10.4 11.17 22.84 20.18 37.05 25.84 12.27 5.11 25.32 7.43 38.56 7.89 195.67-.011 391.33-.011 587 0 15.13.32 30.11-1.75 44.22-7.35 30.59-11.84 54.55-38.94 62.62-70.74 2.15-8.6 3.5-17.35 3.17-26.24-.03-131 0-262-.01-393-.14-6.63.93-12.41-2.55-18.44-4.97-10.02-17.991-15.26-28.541-11.67-3.42.93-6.32 2.73-9.12 4.85-3.68 2.81-7.73 5.15-11.61 7.69-.05-75.81-.02-151.62-.01-227.43.39-17.52-3.87-34.88-11.79-50.47-8.7-16.2-21.39-30.13-37.01-39.89-9.78-5.78-19.951-10.55-31.111-12.96C659.442.854 650.156.014 640.985 0zm111.019 388.183c.16 118.38-.01 236.8.08 355.18.16 9.79-2.21 19.51-6.9 28.11-7 12.89-19.21 22.57-33.28 26.65-7.21 2.24-14.28 2.14-21.84 2.41-191 0-382-.01-573 0-6.36.09-12.701-.09-19.041-.55-20.55-1.86-39.02-16.01-46.23-35.33a56.046 56.046 0 0 1-3.74-20.29c.04-118.66-.04-237.34.04-356.01 73.14 46.54 146.35 92.96 219.5 139.49 30.44 19.36 60.97 38.6 91.33 58.09-57.57 37.14-115.1 74.43-172.63 111.64-7.88 4.69-12.56 13.65-11.52 22.82 1.27 12.35 12.75 22.53 25.29 21.47 7.17-.31 11.75-4.36 17.5-7.98 178.12-115.27 356.33-230.41 534.44-345.7z" fill="#343a40"/><path d="M399.028 330.34c-4.399 3.705-54.29 67.77-79.52 98.985 24.85 12.956 53.045 20.404 82.94 20.404 28.146 0 54.65-6.659 78.408-18.22-24.556-30.265-76.803-97.37-81.316-101.169z" fill="#e89d18"/><path d="M222.452 269.734c0 41.047 13.974 78.826 37.219 109.138 21.982-14.381 76.831-53.49 98.49-99.211 0 0-31.063-26.076-32.573-65.384-1.444-39.357 33.305-90.046 71.008-89.571.8 0 1.624.11 2.432.157h.511c.81-.044 1.606-.157 2.432-.157 37.694-.474 72.452 50.214 70.999 89.57-1.5 39.309-32.574 65.385-32.574 65.385 23.255 49.074 84.82 90.605 102.813 101.976 24.49-30.749 39.242-69.593 39.242-111.903 0-99.26-80.726-180.034-180.005-180.034-99.24 0-179.995 80.774-179.995 180.034" fill="#e89d18"/><path d="M399.826 159.16H398.8c-7.23 0-27.35-1.985-22.524 18.914 4.789 20.87 22.258 46.794 22.258 46.794.782 1.283 1.491 0 1.491 0s17.507-25.924 22.276-46.794c4.047-17.564-9.528-18.96-18.21-18.96-1.653 0-3.125.042-4.265.042" fill="#e89d18"/></svg>