<svg xmlns="http://www.w3.org/2000/svg" viewBox="0 0 800.123 848.724" height="1131.632" width="1066.83"><path d="M640.986 0c-1.31-.002-2.618.012-3.922.042-158.33-.01-316.67.001-475-.009-14.7-.3-29.46 1.58-43.22 6.95-13.85 5.46-26.6 13.44-36.98 24.18-19.46 19.49-30.3 46.69-29.98 74.2.05 52.97.01 106.03.02 159.01-.02 6.66 2.61 13.15 7.56 17.66 3.71 3.91 9.12 5.68 14.31 6.5 7.39.13 14.75-2.04 19.87-7.6 4.88-5.06 6.53-11.68 6.54-18.55 0-51.64.01-103.39-.01-155.02-.07-6.74.25-13.35 2.41-19.78 5.45-17.99 20.35-32.41 38.52-37.24 8.05-2.35 15.71-1.73 23.96-1.8h473c5.84.04 11.3-.28 17.03.89 13.67 2.64 25.99 10.49 34.19 21.73 5.15 6.99 8.52 15.17 10 23.7.78 5.03.66 10.41.66 15.5-.02 84.98.03 169.96-.02 254.95-99.02 64.04-198.03 128.09-297.05 192.12-98.49-62.78-196.92-125.71-295.39-188.52-21.21-13.42-42.16-27.21-63.35-40.66-5.4-3.4-10.33-7.17-16.96-7.56-10.16-1.2-21.58 4.61-25.35 14.39-2.5 5.07-1.66 9.84-1.76 15.28v392c-.98 26.48 9.37 53.26 27.39 72.6 10.4 11.17 22.84 20.18 37.05 25.84 12.27 5.11 25.32 7.43 38.56 7.89 195.67-.011 391.33-.011 587 0 15.13.32 30.11-1.75 44.22-7.35 30.59-11.84 54.55-38.94 62.62-70.74 2.15-8.6 3.5-17.35 3.17-26.24-.03-131 0-262-.01-393-.14-6.63.93-12.41-2.55-18.44-4.97-10.02-17.991-15.26-28.541-11.67-3.42.93-6.32 2.73-9.12 4.85-3.68 2.81-7.73 5.15-11.61 7.69-.05-75.81-.02-151.62-.01-227.43.39-17.52-3.87-34.88-11.79-50.47-8.7-16.2-21.39-30.13-37.01-39.89-9.78-5.78-19.951-10.55-31.111-12.96C659.44.854 650.155.014 640.984 0zm111.018 388.183c.16 118.38-.01 236.8.08 355.18.16 9.79-2.21 19.51-6.9 28.11-7 12.89-19.21 22.57-33.28 26.65-7.21 2.24-14.28 2.14-21.84 2.41-191 0-382-.01-573 0-6.36.09-12.7-.09-19.04-.55-20.55-1.86-39.02-16.01-46.23-35.33a56.046 56.046 0 0 1-3.74-20.29c.04-118.66-.04-237.34.04-356.01 73.14 46.54 146.35 92.96 219.5 139.49 30.44 19.36 60.97 38.6 91.33 58.09-57.57 37.14-115.1 74.43-172.63 111.64-7.88 4.69-12.56 13.65-11.52 22.82 1.27 12.35 12.75 22.53 25.29 21.47 7.17-.31 11.75-4.36 17.5-7.98 178.12-115.27 356.33-230.41 534.44-345.7z" fill="#fafafa"/><g fill="#e89d18"><path d="M398.024 322.728c-4.332 3.65-53.46 66.737-78.308 97.48a176.197 176.197 0 0 0 81.681 20.09c27.718 0 53.82-6.558 77.217-17.941-24.184-29.801-75.633-95.884-80.08-99.629z"/><path d="M224.142 263.049c0 40.42 13.76 77.62 36.653 107.472 21.648-14.159 75.66-52.678 96.986-97.695 0 0-30.587-25.68-32.072-64.388-1.429-38.758 32.793-88.672 69.922-88.207.786 0 1.6.111 2.393.16h.504c.798-.043 1.584-.16 2.398-.16 37.113-.465 71.345 49.449 69.916 88.207-1.479 38.708-32.077 64.388-32.077 64.388 22.899 48.324 83.526 89.22 101.245 100.42 24.113-30.283 38.642-68.531 38.642-110.197 0-97.745-79.493-177.288-177.255-177.288-97.74 0-177.255 79.543-177.255 177.288"/><path d="M398.81 154.159h-1.008c-7.118 0-26.931-1.955-22.179 18.628 4.709 20.55 21.913 46.081 21.913 46.081.77 1.263 1.474 0 1.474 0s17.238-25.53 21.935-46.086c3.988-17.294-9.383-18.667-17.936-18.667-1.623 0-3.074.044-4.199.044"/></g></svg>