<svg xmlns="http://www.w3.org/2000/svg" viewBox="0 0 928.139 720.72" height="960.96" width="1237.519"><path d="M108.547 0c-10.53.025-20.922.885-31.169 3.658-22.72 6.1-43.219 19.78-57.039 38.87C6.63 60.729-.67 83.579.05 106.359c.04 125.33 0 250.67.02 376 .02 5.69-.24 11.61.45 17.23 1.92 18.53 8.95 36.37 20.25 51.19 14.54 19.8 36.63 33.911 60.56 39.221 15.57 3.69 30.87 2.469 46.73 2.669.04 9.57-.04 19.14.02 28.7.81 20.41 7.95 40.461 20.22 56.781 17.68 24.46 46.68 40.279 76.77 42.119 6.89.68 14.06.34 21 .4 189.67.01 379.33 0 569 .01 12.32.24 24.53-.51 36.45-3.81 22.39-6.25 42.65-19.839 56.31-38.719 13.69-18.19 20.99-41.03 20.26-63.79-.04-128.66-.011-257.34-.011-386-.82-33.4-19.13-64.87-46.9-83.16-10.65-6.66-22.48-12.061-34.83-14.581-15.43-3.57-30.55-2.369-46.28-2.569-.02-9.23.03-18.46.01-27.69-.82-33.4-19.139-64.88-46.909-83.17-10.29-6.41-21.67-11.71-33.57-14.28-10.5-2.59-21.76-3.04-32.53-2.87-191.33.01-382.67.01-574 0A220.51 220.51 0 0 0 108.547 0zm-5.51 48.576c.676.01 1.354.034 2.032.073 194.98.07 390.01.01 585 .03 5.27.07 10.89-.4 16.08.57 14.53 2.56 28.09 11.4 36.29 23.68 6.36 9.21 9.61 20.27 9.66 31.43-.04 124.67 0 249.33-.02 374-.04 6.53.35 12.639-.75 19.109-1.86 12.01-7.9 23.11-16.63 31.51-8.4 7.63-18.84 13.19-30.17 14.71-7.79.94-15.62 1.13-23.46.99-184.67.01-369.33 0-554 .01-9.39-.08-18.7.32-28.06-.64-8.51-.61-16.61-3.3-23.88-7.76-13.92-8.25-23.83-22.82-26.32-38.82-1.11-6.47-.71-12.57-.75-19.11-.02-124.66.02-249.34-.02-374 .07-8.2 1.75-16.35 5.29-23.77 8.718-18.949 28.736-32.322 49.707-32.012zm724.032 128.062c7.26-.07 14.62 1.96 21.1 5.19 15.45 7.27 27.1 21.86 30.6 38.59 1.65 7.03 1.27 13.79 1.3 20.94-.01 125.01 0 250.021-.01 375.041-.04 11.82-3.74 23.61-10.87 33.08-7.33 10.2-18.12 17.36-30.12 20.87-8.27 2.13-16.5 2.44-25 2.26-190.67-.011-381.33-.011-572 0-11.39.21-23.29-.341-33.66-5.571-11.83-5.31-21.14-14.899-26.92-26.439-3.56-7.53-5.51-15.9-5.45-24.24.04-7.9.03-15.791.03-23.691 169 .01 338 0 507 .01 8.19.22 16.33-.36 24.49-.95 18.11-2.03 35.57-8.79 50.21-19.67 22.63-16.42 38.109-42.909 41.429-70.659 1.28-8.74.79-17.25.87-26.04V176.667c9 .01 18 .02 27-.03z" fill="#343a40"/><path d="M158.069 336.668c17 .02 34 .01 51 .01 5.99.11 11.23-.82 16.83 1.85 9.43 3.87 15.31 14.75 14.03 24.74-1.09 7.03-5.1 14.02-11.42 17.57-5.92 3.57-12.72 3.78-19.44 3.85-16.67-.02-33.33-.02-50 0-6.38-.06-13.13-.28-18.83-3.5-5.38-2.84-9.04-7.83-10.96-13.52-4.02-11.03 2.12-24.68 12.96-29.14 5.26-2.53 10.2-1.81 15.83-1.86zM302.069 336.668c17 .02 34 .01 51 .01 5.99.11 11.23-.82 16.83 1.85 6.22 2.63 10.66 7.85 12.84 14.18 4.16 10.82-1.64 24.43-12.16 29.16-5.28 2.57-11.75 2.77-17.51 2.82-16.67-.02-33.33-.02-50 0-6.7-.07-13.54-.29-19.44-3.85-5.23-2.96-8.7-7.99-10.5-13.63-3.72-10.93 2.44-24.29 13.11-28.68 5.26-2.53 10.2-1.81 15.83-1.86zM446.069 336.668c17 .02 34 .01 51 .01 5.99.11 11.23-.82 16.83 1.85 6.22 2.63 10.66 7.85 12.84 14.18 4.16 10.82-1.63 24.43-12.16 29.16-5.28 2.57-11.75 2.77-17.51 2.82-16.67-.02-33.33-.02-50 .01-6.06-.07-12.71-.27-18.18-3.16-5.84-2.86-9.84-8.2-11.76-14.33-3.72-10.93 2.43-24.29 13.11-28.68 5.26-2.53 10.2-1.81 15.83-1.86zM590.069 336.668c17 .02 34 .01 51 .01 5.99.11 11.23-.82 16.83 1.85 6.22 2.63 10.66 7.85 12.84 14.18 4.16 10.82-1.63 24.43-12.16 29.16-5.28 2.57-11.75 2.77-17.51 2.82-16.67-.02-33.33-.02-50 .01-6.06-.07-12.71-.27-18.18-3.16-5.84-2.86-9.84-8.21-11.76-14.33-3.72-10.93 2.43-24.29 13.11-28.68 5.26-2.53 10.21-1.81 15.83-1.86zM159.069 432.678h162c5.99.11 11.23-.82 16.83 1.85 6.22 2.64 10.67 7.85 12.84 14.19 4.16 10.81-1.64 24.42-12.16 29.15-5.28 2.57-11.75 2.77-17.51 2.82-53-.01-106-.03-159 .01-6.91-.03-14.91.15-21.18-3.16-5.84-2.86-9.84-8.21-11.76-14.33-3.72-10.93 2.44-24.29 13.11-28.68 5.6-2.67 10.84-1.74 16.83-1.85z" fill="#343a40"/><g style="line-height:125%" font-weight="700" font-size="98" font-family="Montserrat" letter-spacing="0" word-spacing="0" fill="#343a40"><path d="M130.674 165.703q-5.488-3.234-11.76-5.292-6.174-2.058-10.388-2.058-3.332 0-5.292 1.274-1.862 1.176-1.862 3.528 0 2.254 1.666 3.822 1.666 1.47 4.116 2.45 2.45.882 7.252 2.352 7.154 2.058 11.76 4.116 4.704 2.058 8.036 6.37 3.332 4.214 3.332 11.074 0 6.86-3.626 11.76-3.626 4.802-9.996 7.252-6.272 2.45-14.014 2.45-8.526 0-17.052-2.94-8.428-3.038-14.602-8.232l6.958-14.014q5.194 4.606 12.25 7.546 7.154 2.94 12.642 2.94 4.018 0 6.272-1.47 2.352-1.47 2.352-4.312 0-2.352-1.764-3.92-1.666-1.568-4.312-2.45-2.548-.98-7.252-2.254-7.056-1.96-11.662-3.92-4.606-2.058-7.938-6.076-3.234-4.116-3.234-10.878 0-6.37 3.332-11.172 3.43-4.802 9.604-7.35 6.272-2.646 14.504-2.646 7.448 0 14.7 2.156 7.252 2.058 12.74 5.586l-6.762 14.308zM199.615 145.025v14.798h-20.58v53.9h-17.934v-53.9h-20.384v-14.798h58.898zM236.083 143.947q10.486 0 18.914 4.606 8.526 4.606 13.328 12.642 4.9 8.036 4.9 18.032 0 10.094-4.9 18.228-4.802 8.134-13.328 12.838-8.428 4.704-18.914 4.704t-19.012-4.606q-8.428-4.704-13.328-12.838-4.802-8.232-4.802-18.326 0-9.996 4.802-18.032 4.9-8.036 13.328-12.642 8.526-4.606 19.012-4.606zm.196 15.19q-5.096 0-9.506 2.646-4.312 2.646-6.86 7.35-2.548 4.606-2.548 10.192 0 5.684 2.548 10.388 2.646 4.606 6.958 7.35 4.312 2.646 9.408 2.646 5.096 0 9.31-2.646 4.312-2.744 6.762-7.35 2.45-4.704 2.45-10.388 0-5.586-2.45-10.192-2.45-4.704-6.762-7.35-4.214-2.646-9.31-2.646zM323.469 213.723l-9.996-19.012h-13.328v19.012H282.21v-68.698h30.87q13.622 0 21.07 6.37 7.546 6.272 7.546 17.738 0 7.742-3.136 13.426-3.136 5.586-9.114 8.722l14.308 22.442h-20.286zm-23.324-33.32h13.034q5.488 0 8.428-2.744 3.038-2.744 3.038-7.938 0-4.998-3.038-7.644-2.94-2.744-8.428-2.744h-13.034v21.07zM407.416 145.025v14.308h-36.26v12.838h32.732v14.21l-32.732.098v12.936h37.24v14.308h-55.174v-68.698h54.194zM490.955 168.349q-3.332-4.214-7.938-6.664-4.606-2.548-9.114-2.548-5.194 0-9.506 2.646-4.214 2.548-6.664 7.154-2.45 4.508-2.45 10.094 0 5.586 2.45 10.192 2.45 4.508 6.664 7.154 4.312 2.548 9.506 2.548 4.214 0 8.82-2.156t8.232-5.88l10.486 11.27q-5.586 5.88-13.328 9.408-7.644 3.43-15.19 3.43-10.192 0-18.424-4.704t-12.936-12.838q-4.704-8.134-4.704-18.228 0-9.996 4.802-18.032t13.132-12.642q8.428-4.606 18.816-4.606 7.644 0 15.092 3.234 7.448 3.136 12.642 8.624l-10.388 12.544zM554.028 201.571h-29.694l-4.802 12.152h-18.424l29.498-68.698h18.424l28.812 68.698h-19.11l-4.704-12.152zm-5.292-13.72l-9.408-24.5-9.604 24.5h19.011zM625.316 213.723l-9.996-19.012h-13.328v19.012h-17.934v-68.698h30.87q13.622 0 21.07 6.37 7.546 6.272 7.546 17.738 0 7.742-3.136 13.426-3.136 5.586-9.114 8.722l14.308 22.442h-20.286zm-23.324-33.32h13.034q5.488 0 8.428-2.744 3.038-2.744 3.038-7.938 0-4.998-3.038-7.644-2.94-2.744-8.428-2.744h-13.034v21.07zM684.666 145.025q10.78 0 19.012 4.312 8.33 4.312 12.936 12.152 4.606 7.742 4.606 17.836 0 10.094-4.704 17.934-4.606 7.84-13.132 12.152-8.428 4.312-19.404 4.312h-28.91v-68.698h29.596zm.49 54.194q5.194 0 9.212-2.45t6.272-6.958q2.254-4.508 2.254-10.29 0-5.88-2.45-10.388-2.352-4.508-6.566-6.958-4.214-2.548-9.604-2.548h-11.27v39.592h12.152z" style="-inkscape-font-specification:'Montserrat Bold'"/></g></svg>