<svg xmlns="http://www.w3.org/2000/svg" viewBox="0 0 880.001 865.486" height="1153.981" width="1173.335"><path d="M499.336 0c-4.006.001-8.014.024-12.024.069-24.74 1.33-49.22 6.35-72.37 15.22-37.13 14.05-70.56 37.5-96.55 67.49-32.57 37.22-53.13 84.6-57.84 133.86-.97 6.33-.47 12.69-1.22 19.04-.52 5.4.3 10.651.49 16.021-.03 6.99.99 14.039 1.87 20.969 6.57 48.56 28.72 94.74 62.26 130.45 41.66 45.21 100.93 73.49 162.44 76.42 11.6 1.19 22.64.37 34.18-.46 36.88-3.18 73.06-15.11 104.54-34.6 22.99-14.22 43.72-32.219 60.69-53.279 31.71-38.73 50.68-87.501 53.41-137.481-.1-6.09 1.11-11.9.52-17.99-.67-6.01-.32-12.04-1.14-18.05-5.02-56.12-30.89-109.74-71.23-148.99-26.61-26.35-59.72-46.2-95.35-57.68-19.67-6.19-40.06-9.92-60.66-10.95-4.006-.04-8.01-.06-12.016-.059zm1.96 47.944c5.029.042 10.058.279 15.076.706 30.46 2.57 60.16 12.68 85.94 29.09 23.25 14.76 43.31 34.599 58.27 57.729 16.46 25.17 26.76 54.28 29.85 84.19 1.21 9.85.78 20 .79 30.06-1.59 33.45-12.31 66.251-30.61 94.281-17.25 26.58-41.11 48.87-68.88 64.13-25.2 13.97-53.65 22.06-82.42 23.47-9.72.89-19.26.14-28.95-.7-35.29-3.45-69.39-17.1-97.45-38.76-27.14-20.85-48.62-48.88-61.42-80.63-12.08-29.57-16.34-62.091-12.65-93.791 3.78-33.2 16.61-65.2 36.59-91.95 22.87-30.95 55.29-54.81 91.67-67.36 20.62-7.198 42.399-10.648 64.193-10.465z" fill="#343a40"/><path d="M505.592 130.51c4.58 1.49 8.57 4.76 11.16 8.79 1.31 2.01 1.98 4.47 3.41 6.37 4.03 1.69 8.12 2.96 11.8 5.4 11.14 6.93 20.93 18.28 23.66 31.37 1.83 7.28-.22 15.62-5.96 20.63-5.09 4.15-11.88 5.98-18.33 4.42-6.14-1.29-11.88-5.43-14.27-11.35-1.49-3.6-2.76-7.54-6.35-9.62-7.85-3.95-18.06-3.89-25.46 1.08-2.42 1.4-4.74 4.18-4.73 7.08-.09 3.53-.12 7.11.32 10.61.36 3.21 2.99 5.75 5.75 7.12 6.04 2.84 12.35 4.52 18.74 6.34 8.11 2.63 16.53 5.04 24.22 8.76 9.69 5.17 18.4 12.64 23.52 22.5 6.79 12.23 7.5 26.87 5.42 40.44-2.04 9.68-6.24 19.19-12.55 26.86-7.26 8.04-16.6 14.06-27.05 17.03-1.08 3.06-2.37 5.9-4.8 8.14-7.72 7.89-22.1 8.47-29.84.31-3.11-2.99-4.54-6.78-5.63-10.85-7.52-2.73-14.51-6.6-20.18-12.31-6.25-6.37-11.71-13.79-14.81-22.22-.93-2.49-1.18-5.09-1.08-7.73.18-7.73 6.12-14.76 13.24-17.32 8.04-2.82 17.81.15 23.03 6.86 2.77 3.74 4.24 8.95 8.09 11.87 4.78 3.57 11.73 3.79 17.46 3.44 3.34-.36 7.77-.99 10.03-3.74 3.18-3.35 4.3-7.9 5.02-12.33.46-4.03 0-8.78-3-11.8-4.39-4.55-10.23-6.35-16.16-7.91-9.34-2.54-18.36-4.73-27.2-8.76-11.41-4.36-21.12-13.34-27.13-23.88-5.69-9.65-6.84-21.45-6.15-32.42 1.35-12.95 7.05-25.13 15.81-34.73 6.17-6.77 15.2-11.17 23.88-13.74.36-1.08.74-2.15 1.14-3.21 3.44-9.57 15.5-14.95 24.98-11.5zM28.351 493.5c-8.71.04-17.309 3.56-23.009 10.24-3.8 4.49-5.09 10.2-5.34 15.95-.06 6.91 1.71 13.71 6.39 18.96 4.78 5.26 11.49 7.69 18.51 7.88.555-.056 1.11-.12 1.66-.19.552-.07 1.102-.148 1.647-.237 1.091-.177 2.17-.395 3.23-.672a25.851 25.851 0 0 0 3.125-1.023 21.653 21.653 0 0 0 2.998-1.478c3.46-2.21 6.88-1.321 10.78-1.461 31 .03 62 0 93 .02 2.485.035 4.917-.077 7.34-.055 2.424.023 4.84.18 7.29.755.07 1.42.13 2.841.169 4.261.039 1.42.057 2.84.042 4.26-.05 35.814-.025 71.642-.013 107.468.006 17.913.01 35.825-.002 53.736-.01 17.911-.036 35.82-.086 53.725-2.464.445-4.907.557-7.354.567-1.224.008-2.45-.015-3.68-.032a132.92 132.92 0 0 0-3.706-.015c-6.175 0-12.348.008-18.52.008-6.173 0-12.346-.008-18.52-.025a31.284 31.284 0 0 0-3.788.19 28.89 28.89 0 0 0-3.694.654 27.278 27.278 0 0 0-3.567 1.14 26.66 26.66 0 0 0-3.411 1.646c-10.66 6.29-14.25 21.19-8.45 31.92 3.37 6.4 9.66 10.94 16.74 12.32 2.69.33 5.49.27 8.2.28 15.67-.02 31.34.03 47-.02 18.72.35 36.16-10.87 45.16-27.03 63.4 19.81 126.95 39.282 190.38 59.012 10.02 2.93 19.9 6.37 29.97 9.13 26.09 6.41 53.58 10.78 80.5 10.02 13.43.21 26.96-1.281 40.11-4.041 15.42-3.34 28.92-9.95 43.23-16.36 35.21-16.29 69.7-34.18 104.4-51.51a14730.205 14730.205 0 0 0 161.17-83.89c10.239-6.14 18.85-14.89 24.63-25.35 4.35-7.87 6.509-16.56 7.12-25.49-.14-16.88-8.36-33.57-21.14-44.5-8.29-6.974-19-11.174-29.72-12.374-9.85-.77-19.72-.32-29.31 2.17-5.36 1.53-10.81 2.15-16.02 4.17-42.21 14.36-84.53 28.81-126.79 42.96-.84-4.48-2.81-8.339-4.67-12.439-6.92-19.01-23.14-34.21-42.1-40.95-9.19-3.33-19.15-4.76-28.91-4.46-35.34.03-70.69-.011-106.03.029-2.65.38-4.1-2.3-5.83-3.83-16.87-18.28-38.91-30.839-61.65-40.339-36.95-14.85-76.87-21.65-116.5-23.69-30.13-.05-60.28.119-90.41-.091-7.47-18.36-25.69-31.379-45.59-31.919-42.31.02-84.67.02-126.98 0zm209.37 79.013c2.53.004 5.066.037 7.621.017 17.69.07 35.32-.331 52.99.739 30.43 2.23 61.59 8.001 90.01 19.331 19.67 8.02 40.1 19.89 52.74 37.4 3.33 4.51 7.45 8.24 12.81 10.13 4.8 1.75 9.44 1.26 14.45 1.32 39.33-.01 78.69-.02 118.02 0 8.76.17 17.72 4.53 21.62 12.66 1.54 4.83 2.77 9.449 1.11 14.459-2.66 9.11-11.29 15.28-20.71 15.34-60.33.05-120.75-.06-181.07.05-8.72-.16-17.21 4.791-21.09 12.641-4.94 9.58-2.95 22.72 5.58 29.65 4.6 4 10.48 5.759 16.53 5.719 57.33-.02 114.67 0 172.01-.01 5.35-.02 10.45.17 15.77-.45 14.67-1.63 29.1-7.98 39.84-18.16 2.25-2.04 3.77-4.27 6.79-5.2 51.27-17.42 102.55-34.82 153.82-52.24 8.96-3.36 19.25-6.16 28.88-5.52 5.26-.15 9.49 8.31 5.73 12.17-3.49 5.04-9.81 7.04-15 10-70.65 36.9-141.26 73.93-212.61 109.48-20.64 10.18-41.32 20.53-62.6 29.31-16.87 6.54-36.74 7.36-54.63 6.73-22.1-1.21-44.29-4.97-65.26-12.12-63.81-20.07-127.61-40.17-191.42-60.23-8.37-2.71-16.78-5.28-25.18-7.89-.45-5.72-.2-11.41-.26-17.13.01-49.25-.01-98.51.01-147.76 8.63-.25 17.28.18 25.9-.28 2.54-.136 5.067-.16 7.598-.157z" fill="#343a40"/></svg>