<svg xmlns="http://www.w3.org/2000/svg" width="930.222" height="200" viewBox="0 0 372.089 79.926"><path d="M43.563 25.805l-1.721 2.084c-3.058 3.74-8.635 16.141-10.5 23.337-1.524 5.883-1.842 8.748-1.896 17.027-.036 5.472-.133 11.647.419 11.647h27.063c.57 0 .505-6.235.463-11.691-.063-8.244-.48-11.091-1.92-17.005-1.869-7.686-5.855-16.812-9.673-22.202l-2.235-3.197zM4.478-.099c-1.367-.023-2.362.347-3.2 1.107C.06 2.115 0 4.248 0 39.468c0 32.599.142 37.482 1.103 38.86l1.103 1.571h27.086c20.91 0 27.212-.202 27.636-.885.301-.487.505-5.35.463-10.806-.063-8.244-.387-11.115-1.92-17.004-3.351-12.886-9.666-24.502-18.759-33.16-7.908-7.53-17.01-13.512-26.764-16.881C7.59.35 5.844-.075 4.478-.098zm78.034 0c-1.407.004-3.238.43-5.646 1.262-10.164 3.51-19.234 9.385-27.526 17.824l-5.779 6.82 2.228 3.188c3.818 5.39 7.813 14.522 9.683 22.208 1.147 4.412 1.598 7.139 1.786 11.691.032.765.07 1.572.089 2.458.02.878.035 1.826.044 2.856.041 5.455.108 11.69-.463 11.69h27.24l1.544-1.572c.96-1.376 1.103-6.238 1.103-38.726 0-33.586-.114-37.29-1.168-38.46C84.902.317 83.92-.102 82.512-.1zM327.36 12.61c-3.808.007-7.519 1.34-10.169 3.676-3.156 2.782-4.313 5.072-4.919 9.654l-.485 3.653h-5.47v9.211h5.647V52.51c0 7.534.204 13.91.463 14.17.259.26 2.8.466 5.646.466h5.184V38.804h8.47v-9.21h-8.47v-2.348c0-3.45 2.608-5.686 6.131-5.27 1.482.175 3.195.543 3.816.82.836.372 1.697-.386 3.33-2.901l2.228-3.41-1.588-1.197c-1.854-1.413-6.526-2.683-9.814-2.677zm-33.15.067c-5.519.287-8.272 8.631-2.824 11.602 2.752 1.5 4.67 1.28 7.102-.775 1.743-1.473 2.184-2.38 2.184-4.606 0-3.127-1.676-5.266-4.676-6.022a6.07 6.07 0 0 0-1.787-.2zm-128.346 1.285l-5.735.198-5.713.2-6.33 11.69c-3.48 6.43-6.555 11.915-6.815 12.179-.26.263-3.48-5.075-7.169-11.868l-6.705-12.355-5.646.177-5.647.177-.816 18.068c-.444 9.937-1.012 21.815-1.257 26.393l-.44 8.325h11.116l.463-9.034c.253-4.969.504-11.744.551-15.056.164-11.44.228-11.433 6.595-.089l5.624 10.009h5.933l5.537-10.451 5.515-10.451.529 12.399c.29 6.82.72 14.712.948 17.537l.397 5.137h11.183l-.022-3.366c-.009-1.85-.471-12.77-1.036-24.267-.566-11.496-1.028-21.944-1.037-23.227l-.023-2.326zm83.284.044v26.105c0 14.353.204 26.31.463 26.57.259.26 8.04.465 17.292.465h16.829v-9.92h-22.586v-43.22h-11.998zm-29.644 5.624v9.897l-3 .2-2.999.221v8.503l3 .222 3 .221.021 9.344c.041 12.4 1.27 15.874 6.55 18.488 3.655 1.809 11.133 1.493 15.33-.642l3.485-1.772-2.117-3.454-2.117-3.454-3.066 1.13c-2.848 1.028-3.229 1.015-4.94-.111-1.843-1.213-1.854-1.264-1.854-10.407v-9.211h9.176v-9.211h-9.11l-.22-4.783-.2-4.782-5.47-.2-5.47-.2zm-27.57 9.1c-7.679.048-13.74 3.933-16.829 10.783-2.124 4.711-2.037 13.315.199 18.134 1.889 4.073 5.752 7.583 9.947 9.079 6.282 2.238 17.37.981 22.41-2.547l1.918-1.328-2.14-3.477-2.116-3.454-3.661 1.705c-3.902 1.823-8.933 2.261-12.132 1.041-2.379-.909-5.315-4.1-5.315-5.779 0-1.232.814-1.328 13.057-1.328h13.058v-3.41c0-11.606-7.476-19.488-18.396-19.419zm.088 8.613c2.177-.035 4.217.69 5.646 2.126 1.135 1.14 2.074 2.733 2.074 3.542 0 1.401-.375 1.462-7.764 1.462-4.95 0-7.764-.256-7.764-.73 0-1.674 2.127-4.699 3.86-5.491a9.917 9.917 0 0 1 3.948-.909zm161.783-8.569c-11.007 0-18.305 6.784-19.078 17.758-.641 9.09 2.663 15.55 9.815 19.175 4.274 2.167 4.791 2.255 11.204 2.015 5.62-.21 7.393-.582 10.763-2.237 2.22-1.09 4.037-2.217 4.037-2.501 0-.285-.943-2.007-2.095-3.83l-2.096-3.321-2.515 1.505c-3.361 1.99-10.619 2.601-13.454 1.129-2.51-1.303-4.203-3.173-4.853-5.314l-.485-1.594h27.04l-.485-3.721c-1.66-13-7.318-19.063-17.797-19.063zm-.55 8.614c2.466 0 3.604.424 5.226 1.948 1.14 1.072 2.286 2.666 2.537 3.543.454 1.588.417 1.594-7.764 1.594-8.18 0-8.218-.006-7.764-1.594.25-.877 1.396-2.47 2.537-3.543 1.622-1.524 2.76-1.948 5.227-1.948zm-53.289-7.839l-5.47.2-5.47.198-.199 17.714c-.103 9.735-.034 18.105.155 18.599.235.616 2.027.886 5.669.886h5.315V29.549z" fill="#fafafa"/></svg>
