<svg xmlns="http://www.w3.org/2000/svg" width="198.934" height="200"><g fill="#fafafa"><path d="M23.338 32.368c-8.263 7.48-11.27 24.429 3.625 34.337l59.424 40.77-28.813-66.012C51.537 25.886 35.02 22.49 23.338 32.368M74.49.274c-9.659.196-24.163 11.7-17.708 29.264l29.8 70.28 10.471-73.921C99.477 7.529 85.576-.95 74.491.274M101.705 23.078h5.634s3.01 0 3.419 1.42c-2.217 1.81-8.254 2.037-7.452 11.71l9.473 63.601 29.597-70.465C148.429 13.61 135.722.47 124.45.069A22.098 22.098 0 0 0 122.849 0c-10.118 0-21.712 7.353-21.144 23.078M141.184 42.062L113.19 107.28l59.407-40.984c13.694-9.713 11.485-25.242 3.82-32.918-3.214-3.613-9.114-6.403-15.365-6.403-7.384-.001-15.287 3.915-19.868 15.087M165.946 75.576l-55.791 38.969h68.694c14.093 0 23.15-14.532 19.124-27.867-2.697-8.381-10.675-14.96-19.935-14.97-3.898.002-8.031 1.176-12.092 3.868M21.737 114.545h67.68l-55.804-38.97C20.721 67.294 6.225 72.14.991 85.886c-4.435 15.735 6.64 28.66 20.746 28.66M96.69 167.862h12.555c2.886.182 8.002 2.702 8.002 8.67 0 6.242-5.31 8.76-8.186 9.044H96.69v-17.714m-.192-27.789h10.335c3.532.191 7.709 2.802 7.709 7.648 0 4.754-3.158 7.922-7.244 8.487h-10.8v-16.135M82.37 128.51v68.62h33.295c7.903 0 17.297-7.92 17.297-18.27 0-10.814-7.064-16.125-11.534-18.27 0 0 8.184-4.755 7.82-15.013-.372-13.8-13.12-17.067-17.49-17.067H82.37M16.79 197.129H31.3v-39.523l43.156 42.133v-71.23H59.955v38.512L16.79 125.72zM135.293 162.076c.363 21.7 15.955 37.924 35.999 37.924 4.752 0 9.76-.9 14.876-2.871v-13.982a24.907 24.907 0 0 1-12.989 3.673c-12.13 0-23.575-8.976-23.1-25.301.816-13.243 11.658-22.388 23.342-22.388 4.279 0 8.68 1.233 12.747 3.926V129.45c-4.743-1.922-9.457-2.782-13.997-2.782-19.994 0-36.495 16.865-36.878 35.408"/></g></svg>
