<svg xmlns="http://www.w3.org/2000/svg" viewBox="0 0 768.015 768.021" height="1024.028" width="1024.02"><path d="M677.794.013a310.027 310.027 0 0 0-5.786.002c-194 .01-388-.01-582 0-13.22-.04-26.55 2.849-38.48 8.559-16.48 7.75-30.48 20.67-39.56 36.45-7.38 12.73-11.52 27.28-11.9 41.99-.1 3.33-.06 6.67-.06 10v573c.01 6.04-.14 12 .52 18.03 2.06 19.15 10.55 37.6 23.81 51.58 12.9 13.84 30.31 23.43 48.91 26.86 7.27 1.48 14.38 1.57 21.76 1.53 194.68-.02 389.36.03 584.04-.02 28.95-.03 56.76-15.01 73.1-38.83 8.58-12.48 14-27.05 15.44-42.15.56-5.7.4-11.25.42-17v-580c.04-14.17-3.29-28.48-9.86-41.04-12.31-24.45-36.27-42.439-63.19-47.389C689.228.4 683.55.076 677.794.013zM90.008 25.594c25.47.04 50.94 0 76.41.02-.03 38.41.03 76.81-.03 115.21-46.92-.02-93.84-.01-140.76 0-.05-16.94.01-33.87-.04-50.81-.22-18.63 8.12-37.05 22.36-49.08 11.54-9.96 26.83-15.5 42.06-15.34zm102 .02h488.01c22.16.41 43.22 12.93 54.06 32.28 5.66 10.01 8.63 21.62 8.34 33.12-.04 16.6.03 33.21-.03 49.81-183.46-.03-366.92 0-550.38-.01v-115.2zM96.01 166.4c23.478 0 46.959.025 70.439.075-.08 191.97-.022 383.97-.032 575.94-25.81.02-51.609-.02-77.409.01-18.3-.09-36.26-8.36-48.08-22.35-10.18-11.79-15.72-27.499-15.33-43.059.02-16.52.02-33.04-.01-49.56 2.65-.62 5.09-.91 7.34-2.55 4.65-3.25 6.9-9.69 4.64-15.01-1.99-5.14-6.62-7.96-11.97-8.5.02-42.53.01-85.06.01-127.59 2.73-.52 5.27-.91 7.53-2.67 5.21-3.83 6.95-11.12 3.51-16.74-2.33-4.25-6.44-5.99-11.06-6.6.03-42.52.03-85.04 0-127.55 7.21-.58 12.87-5.88 12.84-13.28-.21-7.14-5.87-12.2-12.82-12.74-.02-42.58.04-85.17-.03-127.75 23.475-.05 46.953-.076 70.432-.076zm96.018.006c178.99.03 357.99 0 536.98.009 4.48 0 8.96-.04 13.44.06-.08 42.58-.02 85.17-.04 127.75-2.73.5-5.27.91-7.53 2.66-4.98 3.66-6.88 10.63-3.83 16.15 2.23 4.57 6.52 6.61 11.38 7.2-.03 42.52-.03 85.04 0 127.55-2.34.49-4.53.76-6.6 2.04-5.53 3.27-7.98 10.78-4.91 16.56 2.25 4.63 6.5 6.86 11.49 7.41 0 42.54-.01 85.07.01 127.6-3.41.47-6.579 1.46-9.039 3.99-4.04 4.06-5.07 10.31-2.09 15.3 2.36 4.36 6.45 6.06 11.14 6.76-.04 14.86-.01 29.71-.02 44.57-.03 5.39.28 10.59-.73 15.93-2.2 15.55-10.49 30.17-22.69 40.04-11.64 9.62-26.9 14.79-41.98 14.45-161.66-.04-323.34-.01-485-.02.01-192-.03-384.01.02-576.01z" fill="#343a40"/><path d="M72.258 295.264c6.11-2.47 13.36.55 16.11 6.48 3.05 6.12.29 13.85-5.76 16.86-6.26 3.33-14.24.53-17.28-5.79-3.4-6.66 0-14.95 6.93-17.55zM122.558 295.654c6.36-3.17 14.56-.03 17.19 6.55 2.8 6.2-.15 13.58-6.18 16.52-6.33 3.2-14.19.25-17.14-6.12-3.06-6.2-.14-14.12 6.13-16.95zM226.178 295.134c6.65-2.45 14.24 1.42 16.37 8.1 2.13 6-1.06 13.11-6.89 15.63-6.31 2.97-14.18-.03-16.91-6.43-3.27-6.68.57-14.9 7.43-17.3zM277.208 295.204c6.22-2.41 13.42.77 16.07 6.82 3.04 6.17-.14 14.08-6.34 16.82-6.5 3.07-14.54-.14-17.15-6.81-2.88-6.55.77-14.44 7.42-16.83zM328.238 295.274c6.12-2.48 13.38.53 16.13 6.47 3.18 6.39.04 14.41-6.45 17.19-6.25 2.84-13.81-.12-16.68-6.29-3.25-6.64.15-14.79 7-17.37zM378.558 295.654c6.33-3.16 14.48-.06 17.15 6.46 2.86 6.23-.07 13.64-6.14 16.61-6.35 3.21-14.23.23-17.16-6.16-3.03-6.19-.1-14.09 6.15-16.91zM431.188 295.064c5.91-2.07 12.69.85 15.45 6.41 3.17 6.06.64 13.78-5.35 16.96-6.39 3.65-14.77.73-17.72-5.94-3.26-6.81.54-15.13 7.62-17.43zM481.368 295.454c6.79-3.04 14.94.77 17.18 7.78 2.13 6.01-1.06 13.11-6.89 15.63-6.31 2.98-14.18-.02-16.91-6.43-3.13-6.39.24-14.23 6.62-16.98zM533.208 295.204c6.23-2.41 13.42.77 16.07 6.82 3.04 6.17-.14 14.08-6.34 16.82-6.5 3.07-14.54-.14-17.15-6.81-2.88-6.55.77-14.44 7.42-16.83zM584.238 295.274c6.11-2.48 13.38.53 16.13 6.47 3.05 6.13.27 13.88-5.81 16.88-6.32 3.33-14.34.43-17.31-5.98-3.26-6.64.14-14.79 6.99-17.37zM634.558 295.654c6.33-3.16 14.48-.06 17.15 6.46 2.86 6.23-.07 13.64-6.14 16.61-6.33 3.2-14.19.25-17.14-6.12-3.06-6.19-.14-14.12 6.13-16.95zM687.188 295.064c5.91-2.07 12.69.85 15.45 6.41 3.17 6.05.64 13.78-5.35 16.96-6.39 3.65-14.77.73-17.72-5.95-3.26-6.8.54-15.12 7.62-17.42zM72.548 448.744c6.18-2.26 13.22.82 15.9 6.79 2.99 6.24.03 13.94-6.17 16.84-6.41 3.17-14.42.05-17.21-6.46-3.02-6.72.6-14.73 7.48-17.17zM123.598 448.774c6.22-2.3 13.2.7 16 6.65 3.03 6.18.12 14.13-6.14 16.95-6.58 3.27-14.92-.16-17.4-7.04-2.65-6.61 1.02-14.06 7.54-16.56zM225.678 448.914c6.43-2.61 14.06.65 16.56 7.12 2.84 6.55-.79 14.39-7.43 16.78-6.16 2.39-13.24-.68-15.98-6.6-3.29-6.45.19-14.75 6.85-17.3zM277.528 448.684c6.19-2.15 13.28.98 15.79 7.03 3.32 6.97-1.02 15.45-8.3 17.43-6.7 1.98-14.02-2.3-15.75-9.02-1.89-6.32 2.02-13.41 8.26-15.44zM328.548 448.744c6.18-2.26 13.22.82 15.9 6.79 2.99 6.24.03 13.94-6.17 16.84-6.43 3.18-14.42.03-17.22-6.48-3-6.73.62-14.71 7.49-17.15zM379.588 448.784c6.24-2.32 13.24.7 16.03 6.68 3 6.18.09 14.09-6.16 16.91-6.37 3.18-14.55.03-17.19-6.55-3.03-6.68.61-14.47 7.32-17.04zM430.648 448.824c6.15-2.35 13.19.52 16.04 6.4 3.26 6.37.27 14.36-6.22 17.23-6.49 3.11-14.5-.23-17.12-6.85-2.78-6.55.75-14.25 7.3-16.78zM482.488 448.614c6.64-2.16 14.01 1.62 16.07 8.29 2.36 6.7-1.83 14.28-8.58 16.19-6.24 1.94-13.03-1.53-15.43-7.52-2.94-6.67 1.06-14.84 7.94-16.96zM533.558 448.674c6.19-2.12 13.25 1 15.76 7.04 3.32 6.97-1.02 15.45-8.3 17.43-6.7 1.98-14.02-2.3-15.75-9.02-1.9-6.35 2.03-13.43 8.29-15.45zM584.548 448.744c6.18-2.26 13.23.82 15.9 6.79 2.99 6.24.03 13.94-6.17 16.84-6.43 3.18-14.44.03-17.22-6.49-3-6.72.62-14.7 7.49-17.14zM635.588 448.784c6.24-2.32 13.22.69 16.02 6.66 3.01 6.19.11 14.1-6.15 16.93-6.37 3.17-14.54.03-17.19-6.54-3.03-6.68.61-14.48 7.32-17.05zM686.648 448.824c6.21-2.37 13.32.58 16.12 6.56 3.13 6.35.12 14.23-6.3 17.07-6.49 3.11-14.5-.23-17.12-6.85-2.78-6.55.75-14.25 7.3-16.78zM125.558 601.804c6.85-1.36 13.77 3.39 15.02 10.23 1.38 6.77-3.3 13.55-10.02 14.9-7.08 1.59-14.4-3.7-15.25-10.88-.89-6.68 3.72-12.87 10.25-14.25zM381.558 601.804c6.92-1.37 13.87 3.47 15.06 10.4 1.26 6.72-3.4 13.39-10.05 14.72-7.12 1.6-14.44-3.71-15.27-10.93-.85-6.66 3.75-12.81 10.26-14.19zM637.558 601.804c6.84-1.36 13.77 3.39 15.02 10.23 1.38 6.76-3.3 13.55-10.02 14.9-7.08 1.59-14.4-3.7-15.25-10.88-.89-6.68 3.72-12.87 10.25-14.25zM71.598 602.754c6.69-3.25 14.88.57 17.29 7.44 2.39 6.48-1.26 13.95-7.71 16.23-6.02 2.36-13.31-.71-15.93-6.59-3.13-6.31-.13-14.34 6.35-17.08zM225.478 602.614c6.14-2.79 13.61.29 16.46 6.27 3.35 6.64-.14 15.09-7.13 17.52-6.24 2.47-13.57-.81-16.13-6.94-3.03-6.38.42-14.2 6.8-16.85zM293.408 609.494c3.12 6.83-1.12 15.29-8.29 17.2-6.94 2.17-14.59-2.49-16.01-9.58-1.55-6.84 2.78-13.12 9.25-15.23 6.28-1.33 12.5 1.7 15.05 7.61zM327.578 602.764c6.7-3.27 14.9.56 17.31 7.42 2.39 6.51-1.28 13.99-7.76 16.26-6.01 2.32-13.27-.75-15.88-6.61-3.13-6.3-.13-14.33 6.33-17.07zM429.658 602.914c6.03-3.17 13.86-.39 16.9 5.6 3.37 6.19.62 14.43-5.78 17.37-6.38 3.32-14.43.18-17.28-6.32-2.86-6.22.05-13.73 6.16-16.65zM481.478 602.614c6.17-2.8 13.67.32 16.5 6.34 3.28 6.63-.21 15.03-7.17 17.45-6.24 2.47-13.57-.81-16.13-6.94-3.03-6.38.42-14.2 6.8-16.85zM549.158 608.974c3.45 6.65-.38 15.22-7.38 17.52-6.7 2.51-14.55-1.6-16.43-8.48-2.17-7.06 2.2-13.93 9.01-16.14 6.06-1.27 12.12 1.49 14.8 7.1zM583.598 602.754c6.69-3.25 14.88.57 17.29 7.43 2.39 6.49-1.26 13.96-7.71 16.24-6.02 2.36-13.31-.71-15.93-6.59-3.13-6.31-.13-14.34 6.35-17.08zM685.658 602.914c6.03-3.17 13.85-.39 16.89 5.59 3.37 6.19.64 14.42-5.75 17.37-6.39 3.34-14.48.19-17.31-6.34-2.84-6.22.07-13.71 6.17-16.62z" fill="#343a40"/><g style="line-height:125%;-inkscape-font-specification:'Montserrat Bold'" font-weight="700" font-size="102" font-family="Montserrat" letter-spacing="0" word-spacing="0" fill="#343a40"><path d="M412.681 70.562q-3.468-4.386-8.262-6.936-4.794-2.652-9.486-2.652-5.406 0-9.894 2.754-4.386 2.652-6.936 7.446-2.55 4.692-2.55 10.506t2.55 10.608q2.55 4.692 6.936 7.446 4.488 2.652 9.894 2.652 4.386 0 9.18-2.244t8.568-6.12l10.914 11.73q-5.814 6.12-13.872 9.792-7.956 3.57-15.81 3.57-10.608 0-19.176-4.896-8.568-4.896-13.464-13.362-4.896-8.466-4.896-18.972 0-10.404 4.998-18.768t13.668-13.158q8.772-4.794 19.584-4.794 7.956 0 15.708 3.366 7.752 3.264 13.158 8.976l-10.812 13.056zM480.756 67.808q-5.712-3.366-12.24-5.508-6.426-2.142-10.812-2.142-3.468 0-5.508 1.326-1.938 1.224-1.938 3.672 0 2.346 1.734 3.978 1.734 1.53 4.284 2.55 2.55.918 7.548 2.448 7.446 2.142 12.24 4.284 4.896 2.142 8.364 6.63 3.468 4.386 3.468 11.526t-3.774 12.24q-3.774 4.998-10.404 7.548-6.528 2.55-14.586 2.55-8.874 0-17.748-3.06-8.772-3.162-15.198-8.568l7.242-14.586q5.406 4.794 12.75 7.854 7.446 3.06 13.158 3.06 4.182 0 6.528-1.53 2.448-1.53 2.448-4.488 0-2.448-1.836-4.08-1.734-1.632-4.488-2.55-2.652-1.02-7.548-2.346-7.344-2.04-12.138-4.08-4.794-2.142-8.262-6.324-3.366-4.284-3.366-11.322 0-6.63 3.468-11.628 3.57-4.998 9.996-7.65 6.528-2.754 15.096-2.754 7.752 0 15.3 2.244 7.548 2.142 13.26 5.814l-7.038 14.892zM510.386 46.286L528.236 98l17.952-51.714h19.176l-27.948 71.502h-19.38l-27.744-71.502h20.094z"/></g></svg>